<svg width="375" height="375" viewBox="0 0 375 375" fill="none" xmlns="http://www.w3.org/2000/svg">
<g clip-path="url(#clip0_2_4)">
<path d="M-37.5 -37.5H412.5V412.5H-37.5V-37.5Z" fill="#F0FAFF"/>
<path d="M-37.5 -37.5H412.5V412.5H-37.5V-37.5Z" fill="#F0FAFF"/>
<path d="M-37.5 -37.5H412.5V412.5H-37.5V-37.5Z" fill="#F0FAFF"/>
<path d="M164.438 141.98C165.93 141.754 166.941 140.273 167.922 138.844L167.977 138.758C169.547 136.465 171.199 135.41 172.895 135.625C174.363 135.809 175.613 136.922 176.617 138.93C176.723 139.141 176.828 139.355 176.934 139.574C177.48 140.719 178 141.801 178.922 142.441C179.23 142.641 179.566 142.781 179.926 142.863C180.289 142.949 180.652 142.969 181.02 142.926C181.383 142.883 181.734 142.777 182.062 142.613C182.395 142.445 182.688 142.23 182.941 141.965C183.773 141.035 183.98 139.621 184.074 138.492C184.094 138.258 184.109 138.023 184.125 137.789C184.203 136.609 184.285 135.391 184.758 134.246C185.34 132.859 186.75 131.441 188.531 131.59C190.254 131.738 191.406 133.285 191.785 134.746C192.07 135.855 192.027 136.984 191.977 138.07C191.965 138.363 191.953 138.652 191.949 138.945C191.934 139.953 192.004 141.402 192.793 142.383C193.105 142.773 193.5 143.062 193.969 143.242C194.441 143.426 194.926 143.48 195.426 143.402C195.922 143.328 196.367 143.133 196.762 142.816C197.156 142.5 197.445 142.109 197.629 141.641C197.777 141.207 197.875 140.762 197.93 140.309C197.984 139.891 198.07 139.48 198.18 139.078C198.5 137.996 199.367 136.91 200.598 136.91H200.621C201.691 136.922 202.488 137.777 202.871 138.57C203.043 138.938 203.184 139.312 203.301 139.699C203.398 140.031 203.52 140.355 203.66 140.668C203.922 141.195 204.293 141.629 204.777 141.969C205.258 142.309 205.793 142.516 206.379 142.59C207.652 142.734 209.777 142.266 210.492 141.52L213.164 132.445C209.145 127.68 198.395 124.664 185.582 124.727C184.629 124.727 183.695 124.758 182.77 124.797C182.707 124.824 182.645 124.844 182.574 124.852H182.516C182.441 124.852 182.375 124.836 182.309 124.812C171.418 125.344 162.531 128.219 159.043 132.43L162.141 142.066C162.91 142.109 163.676 142.078 164.438 141.98Z" fill="#27AAE1"/>
<path d="M213.164 132.437C209.145 127.672 198.395 124.656 185.582 124.719C184.629 124.719 183.695 124.75 182.77 124.789C182.707 124.82 182.645 124.836 182.574 124.844H182.512C182.441 124.844 182.375 124.828 182.309 124.805C178.516 124.969 174.773 125.48 171.082 126.34C171.082 126.34 213.508 121.984 210.492 141.508L213.164 132.437Z" fill="#F0FAFF"/>
<path d="M190.715 138.023C190.754 136.98 190.793 135.996 190.555 135.063C190.293 134.066 189.516 132.949 188.418 132.855C187.32 132.758 186.348 133.727 185.934 134.73C185.543 135.688 185.465 136.75 185.391 137.875C185.375 138.117 185.359 138.355 185.34 138.598C185.23 139.922 184.969 141.598 183.887 142.809C183.531 143.191 183.117 143.5 182.648 143.738C182.184 143.977 181.688 144.125 181.164 144.188C180.645 144.25 180.129 144.219 179.617 144.098C179.105 143.977 178.633 143.773 178.195 143.484C176.996 142.652 176.379 141.367 175.781 140.121C175.684 139.91 175.59 139.703 175.477 139.496C174.676 137.891 173.754 137.012 172.734 136.883C171.551 136.738 170.305 137.605 169.027 139.473L168.969 139.559C167.891 141.137 166.668 142.926 164.629 143.234C163.938 143.324 163.25 143.359 162.555 143.34L163.719 146.969C170.641 145.281 178.367 144.547 185.34 144.508C194.016 144.457 202.07 145.398 208.828 147.133L209.961 143.293C208.758 143.758 207.512 143.941 206.223 143.84C205.422 143.738 204.695 143.453 204.039 142.988C203.383 142.52 202.875 141.926 202.516 141.207C202.348 140.84 202.207 140.469 202.094 140.082C201.996 139.754 201.875 139.43 201.73 139.117C201.52 138.684 201.102 138.176 200.609 138.172C200.059 138.156 199.59 138.797 199.402 139.43C199.309 139.781 199.238 140.141 199.191 140.5C199.125 141.047 199 141.582 198.816 142.102C198.547 142.777 198.125 143.344 197.555 143.797C196.988 144.254 196.344 144.539 195.621 144.656C195.426 144.688 195.227 144.699 195.027 144.699C194.402 144.699 193.809 144.563 193.242 144.297C192.68 144.031 192.199 143.656 191.805 143.176C190.758 141.875 190.664 140.125 190.684 138.918C190.691 138.625 190.703 138.324 190.715 138.023Z" fill="#F0FAFF"/>
<path d="M185.574 123.453C186.113 123.453 186.668 123.453 187.23 123.465C186.961 115.848 188.055 110.789 188.469 109.188C184.195 107.348 181.285 108.672 180.27 109.289C181.836 112.965 182.824 121.148 183.082 123.512C183.922 123.48 184.758 123.461 185.574 123.453Z" fill="#F0FAFF"/>
<path d="M181.484 102.391C182.629 103.297 183.719 103.633 185.246 103.539C185.754 103.52 186.234 103.395 186.688 103.172C187.387 102.812 187.98 102.324 188.461 101.703C188.945 101.082 189.273 100.387 189.445 99.6211C189.727 98.4141 189.648 96.1172 189.285 94.9805C188.281 91.8984 186.984 89.6953 185.473 87.1445L185.367 86.9688L184.176 89.9688C183.898 90.6523 183.699 91.3594 183.574 92.0859C183.418 93.0117 183.434 93.6914 183.625 94.25C183.656 94.3242 183.688 94.3984 183.711 94.4727C183.766 94.6172 183.766 94.7578 183.703 94.8984C183.641 95.043 183.535 95.1406 183.391 95.1953C183.246 95.25 183.105 95.25 182.961 95.1875C182.82 95.125 182.723 95.0195 182.664 94.875C182.633 94.8086 182.605 94.7383 182.582 94.668C182.328 94.1641 181.949 93.7812 181.445 93.5273C181.59 94.293 181.539 95.043 181.289 95.7773C181.141 96.2148 180.965 96.6406 180.77 97.0625C180.496 97.6172 180.285 98.1992 180.148 98.8008C180.027 99.4766 180.09 100.133 180.328 100.777C180.57 101.418 180.953 101.953 181.484 102.391Z" fill="#F7941D"/>
<path d="M159.828 168.23C165.207 161.691 169.805 164.586 173.855 167.137C178.051 169.773 184.523 169.094 189.246 165.508C193.844 162.027 198.301 164.758 202.23 167.176C203.113 167.719 203.949 168.234 204.766 168.668C207.277 170 208.98 169.066 210.949 167.988C213.352 166.672 216.074 165.18 220.086 168.867L220.109 168.895C220.539 169.328 221.859 170.441 222.867 170.324C223.234 170.281 223.535 170.059 223.789 169.645C225.676 166.547 225.441 158.559 225.387 157.184C219.699 150.148 204.02 145.668 185.352 145.77C167.344 145.867 152.293 150.32 146.855 157.133C147.398 162.047 149.008 169.93 151.16 171.004C151.527 171.152 156.09 172.773 159.828 168.23Z" fill="#27AAE1"/>
<path d="M165.902 176.191C148.984 179.383 137.762 185.551 135.898 186.625C135.832 187.832 135.715 192.086 137.148 194.309C137.312 194.402 137.414 194.539 137.457 194.719C139.109 196.672 142.441 196.504 144.867 195.73C146.984 195.059 148.687 193.238 150.332 191.477C150.738 191.043 151.152 190.594 151.57 190.176C153.496 188.23 155.895 185.809 159.008 184.895C162.66 183.824 166.332 185.023 169.879 186.184C172.902 187.172 176.031 188.195 179.051 187.75C181.32 187.418 183.484 186.262 185.582 185.141C188.383 183.648 191.277 182.102 194.527 182.414C199.273 182.875 202.469 187 205.285 190.645L205.793 191.305C208 194.137 212.395 198.656 217.012 197.18C218.41 196.73 219.73 195.73 221.008 194.766C223.098 193.18 225.258 191.547 227.902 192.211C229.652 192.652 230.852 193.98 232.004 195.266C232.25 195.535 232.488 195.805 232.734 196.062C233.949 197.344 235.766 198.453 237.215 197.742C237.27 197.715 237.324 197.699 237.383 197.687C237.383 197.687 240.375 196.781 238.398 186.68C209.219 172.215 182.879 172.988 165.902 176.191Z" fill="#27AAE1"/>
<path d="M165.609 174.957C176.594 172.871 187.645 172.422 198.762 173.613C205.711 174.371 212.531 175.746 219.227 177.746L221.152 171.191C220.43 170.828 219.785 170.359 219.211 169.789C215.875 166.73 213.875 167.828 211.559 169.098C209.555 170.195 207.289 171.438 204.168 169.785C203.312 169.332 202.465 168.816 201.562 168.254C197.805 165.945 193.918 163.555 190.012 166.512C184.801 170.469 177.879 171.156 173.176 168.203C168.383 165.188 165.16 163.738 160.812 169.031C158.391 171.973 155.598 172.641 153.555 172.641C152.984 172.641 152.418 172.59 151.855 172.488L153.605 177.914C157.551 176.711 161.555 175.723 165.609 174.957Z" fill="#F0FAFF"/>
<path d="M231.816 196.934C231.562 196.668 231.312 196.387 231.062 196.109C229.988 194.914 228.973 193.789 227.594 193.437C225.543 192.918 223.711 194.305 221.781 195.773C220.422 196.805 219.016 197.871 217.406 198.387C212.043 200.102 207.203 195.172 204.789 192.078L204.273 191.414C201.484 187.809 198.598 184.078 194.402 183.676C191.535 183.402 188.934 184.789 186.18 186.262C183.988 187.422 181.715 188.641 179.234 189.004C175.914 189.492 172.645 188.426 169.48 187.387C165.957 186.227 162.633 185.148 159.355 186.109C156.559 186.93 154.293 189.223 152.465 191.066C152.066 191.469 151.672 191.895 151.254 192.34C149.508 194.223 147.68 196.164 145.238 196.937C142.969 197.664 139.957 197.891 137.805 196.637L141.75 218.5C171.422 227.141 206.887 227.148 232.34 218.52L235.914 199.219C234.398 199.078 232.898 198.07 231.816 196.934Z" fill="#F0FAFF"/>
<path d="M184.117 103.543C182.984 103.156 182.082 102.355 181.762 101.438C181.492 100.664 181.625 99.8516 181.762 99.0703L182.262 96.2578C183.027 96.7773 183.547 97.4805 183.812 98.3633C185.402 97.1133 186.187 95.1641 186.293 93.3555C188.473 96.1445 188.668 99.7617 186.887 102.531C186.641 102.953 186.316 103.301 185.914 103.574C185.473 103.848 184.656 103.723 184.117 103.543Z" fill="#FFF200"/>
<path d="M215.719 193.613C214.926 193.805 213.883 194 213.074 193.77C212.039 193.477 211.168 192.512 210.395 191.801C208.953 190.461 207.66 188.941 206.152 187.676C206.086 187.621 206.016 187.617 205.945 187.672C205.879 187.723 205.859 187.789 205.895 187.871C207.133 190.211 213.066 198.641 215.953 193.906C215.992 193.828 215.984 193.754 215.93 193.684C215.875 193.617 215.805 193.594 215.719 193.613Z" fill="#F0FAFF"/>
<path d="M219.551 192.703C219.496 192.508 219.395 192.336 219.25 192.191L219.016 192.012C218.836 191.906 218.641 191.852 218.43 191.852C218.199 191.852 217.984 191.914 217.789 192.043C217.594 192.172 217.453 192.348 217.371 192.566C217.293 192.703 217.262 192.855 217.27 193.012C217.281 193.113 217.297 193.219 217.313 193.32C217.367 193.516 217.465 193.688 217.609 193.832L217.844 194.012C218.023 194.117 218.219 194.172 218.426 194.172C218.582 194.168 218.727 194.133 218.867 194.074C219.008 194.012 219.133 193.93 219.242 193.82C219.352 193.715 219.434 193.59 219.496 193.449C219.555 193.309 219.59 193.164 219.594 193.012L219.551 192.703Z" fill="#F0FAFF"/>
<path d="M210.723 164.145C209.984 164.191 209.531 164.512 208.902 164.855C208.051 165.324 207.141 165.535 206.168 165.492C203.973 165.402 202.781 163.641 200.953 162.766C200.84 162.707 200.738 162.723 200.648 162.816C200.555 162.906 200.539 163.008 200.602 163.121C201.574 165.133 204.055 166.895 206.277 167.172C207.949 167.379 211.117 166.648 211.102 164.527C211.102 164.422 211.062 164.332 210.988 164.258C210.914 164.184 210.828 164.148 210.723 164.145Z" fill="#F0FAFF"/>
<path d="M214.367 163.621C214.316 163.438 214.219 163.273 214.082 163.137L213.859 162.965C213.687 162.863 213.5 162.813 213.301 162.813C213.152 162.809 213.012 162.84 212.879 162.91C212.594 163.016 212.402 163.207 212.293 163.488C212.223 163.621 212.191 163.762 212.199 163.914C212.215 164.008 212.227 164.105 212.238 164.203C212.289 164.391 212.387 164.555 212.523 164.691L212.746 164.863C212.918 164.965 213.105 165.016 213.305 165.016C213.453 165.02 213.598 164.988 213.73 164.918C214.012 164.813 214.207 164.621 214.312 164.34C214.383 164.207 214.414 164.066 214.406 163.914L214.367 163.621Z" fill="#F0FAFF"/>
<path d="M196.535 140.68C196.469 140.469 196.324 140.359 196.102 140.352C195.906 140.34 195.496 140.352 195.324 140.25C195.035 140.098 194.875 139.605 194.742 139.281C194.422 138.465 194.246 137.602 194.016 136.77C193.988 136.676 193.93 136.625 193.832 136.613C193.738 136.602 193.668 136.637 193.617 136.715C192.785 138.008 192.727 140.141 193.668 141.406C194.117 142.008 194.938 142.414 195.699 142.203C195.863 142.164 196.008 142.098 196.141 141.996C196.273 141.895 196.379 141.773 196.461 141.629C196.539 141.48 196.586 141.328 196.598 141.16C196.613 140.996 196.59 140.836 196.535 140.68Z" fill="#F0FAFF"/>
<path d="M208.504 139.023C208.422 139.203 208.309 139.363 208.168 139.504C208.027 139.645 207.867 139.758 207.684 139.84C207.504 139.918 207.313 139.969 207.113 139.98C206.914 139.992 206.719 139.969 206.527 139.91C205.703 139.672 205.168 138.926 204.715 138.238C204.664 138.141 204.586 138.109 204.48 138.137C204.371 138.164 204.32 138.234 204.328 138.344C204.277 141.187 208.258 142.094 209.625 139.68C210.055 138.941 208.859 138.27 208.504 139.023Z" fill="#F0FAFF"/>
<path d="M166.094 127.887C162.953 129.113 160.52 130.648 159.047 132.426L162.145 142.062C162.91 142.105 163.676 142.078 164.438 141.98C165.93 141.754 166.941 140.273 167.922 138.844L167.977 138.758C169.547 136.465 171.199 135.41 172.895 135.625C165.258 133.16 166.094 127.887 166.094 127.887Z" fill="#1C75BC"/>
<path d="M185.344 144.508C188.09 144.492 190.777 144.574 193.375 144.754C193.32 144.574 193.246 144.406 193.148 144.25C192.676 144.012 192.262 143.695 191.914 143.297C191.016 142.984 189.945 143.059 188.984 142.867C187.105 142.492 185.988 141.152 185.227 139.594C185.062 140.691 184.715 141.887 183.891 142.809C183.531 143.191 183.121 143.5 182.652 143.738C182.184 143.977 181.688 144.125 181.168 144.188C180.645 144.25 180.129 144.219 179.617 144.098C179.109 143.977 178.633 143.773 178.195 143.484C177 142.652 176.379 141.367 175.785 140.121C175.684 139.91 175.59 139.703 175.48 139.496C174.68 137.891 173.754 137.012 172.738 136.883C171.551 136.738 170.305 137.605 169.031 139.473L168.973 139.559C167.895 141.137 166.668 142.926 164.629 143.234C163.941 143.324 163.25 143.359 162.555 143.34L163.723 146.969C170.645 145.281 178.379 144.547 185.344 144.508Z" fill="#E6E7E8"/>
<path d="M182.18 140.469C181.254 140.941 180.539 140.906 179.73 140.18C179.117 139.625 178.566 138.953 177.984 138.367C177.867 138.25 177.621 138.367 177.687 138.539C178.16 139.762 178.781 141.27 180.109 141.781C180.988 142.117 182.562 141.855 182.465 140.633C182.465 140.563 182.43 140.508 182.367 140.469C182.305 140.434 182.242 140.434 182.18 140.469Z" fill="#F0FAFF"/>
<path d="M169.68 147.059C158.949 148.855 150.617 152.426 146.855 157.137C147.398 162.055 149.008 169.934 151.16 171.008C151.527 171.152 156.09 172.773 159.828 168.23C165.207 161.691 169.805 164.586 173.855 167.137C178.051 169.773 184.523 169.094 189.246 165.508C169.039 169.57 169.68 147.074 169.68 147.059Z" fill="#1C75BC"/>
<path d="M208.984 175.195C212.414 175.883 215.828 176.734 219.227 177.746L220.25 174.262C216.535 175.078 212.781 175.391 208.984 175.195Z" fill="#E6E7E8"/>
<path d="M188.512 167.672L188.348 167.637C183.398 170.574 177.395 170.859 173.176 168.215C168.387 165.199 165.164 163.75 160.812 169.043C158.391 171.984 155.598 172.652 153.555 172.652C152.984 172.652 152.418 172.602 151.859 172.5L153.605 177.926C160.91 175.695 168.363 174.215 175.965 173.488C183.57 172.762 191.168 172.805 198.762 173.613C199.449 173.688 200.133 173.773 200.816 173.859C192.922 171.672 188.512 167.672 188.512 167.672Z" fill="#E6E7E8"/>
<path d="M180.27 109.285C181.836 112.961 182.824 121.145 183.082 123.508C183.922 123.477 184.758 123.457 185.574 123.449C186.113 123.449 186.668 123.449 187.23 123.461C187.137 120.984 187.191 118.512 187.391 116.043C186.93 115.621 186.492 115.176 186.082 114.703C185.473 113.949 184.906 113.059 184.77 112.098C184.051 111.813 183.285 111.488 182.867 110.84C182.621 110.422 182.504 109.969 182.52 109.484C182.527 109.121 182.57 108.758 182.645 108.402C181.801 108.555 181.008 108.848 180.27 109.285Z" fill="#D1D3D4"/>
<path d="M223.031 170.289C223.371 170.176 223.621 169.961 223.789 169.645C225.676 166.551 225.441 158.563 225.387 157.188C219.699 150.148 204.02 145.668 185.352 145.773C182.957 145.785 180.625 145.875 178.348 146.039C179.465 146.039 233.059 146.484 222.867 170.32L223.031 170.289Z" fill="#F0FAFF"/>
<path d="M238.402 186.672C216.512 175.836 196.227 173.555 180.289 174.441C180.289 174.441 241.699 178.102 237.387 197.687C237.398 197.684 240.379 196.781 238.402 186.672Z" fill="#F0FAFF"/>
<path d="M178.172 162C176.422 160.539 174.633 159.383 173.402 157.406C172.773 156.398 172.289 155.328 171.957 154.188C171.664 153.168 171.672 152.113 171.422 151.094C171.398 151.02 171.352 150.984 171.277 150.984C171.203 150.984 171.152 151.02 171.133 151.094C170 155.18 173.895 161.426 177.984 162.312C178.156 162.355 178.328 162.129 178.172 162Z" fill="#F0FAFF"/>
<path d="M183.383 163.789C182.41 163.301 181.336 163.043 180.309 162.719C180.117 162.656 180.027 162.965 180.223 163.035C181.219 163.406 182.219 163.863 183.266 164.063C183.426 164.094 183.543 163.871 183.383 163.789Z" fill="#F0FAFF"/>
<path d="M171.195 131.422C171.188 131.422 171.184 131.426 171.184 131.434C171.184 131.441 171.188 131.449 171.195 131.449C171.203 131.449 171.207 131.441 171.207 131.434C171.207 131.426 171.203 131.422 171.195 131.422Z" fill="#F0FAFF"/>
<path d="M159.363 186.105C156.566 186.926 154.301 189.219 152.473 191.062C152.074 191.469 151.68 191.891 151.262 192.336C149.516 194.219 147.688 196.164 145.246 196.937C142.969 197.664 139.957 197.891 137.805 196.637L141.75 218.5C171.422 227.141 206.887 227.148 232.34 218.52C158.34 234.602 169.488 187.387 169.488 187.387C165.965 186.234 162.641 185.148 159.363 186.105Z" fill="#E6E7E8"/>
<path d="M150.781 180.16C142.441 182.996 137.129 185.914 135.898 186.625C135.832 187.832 135.715 192.086 137.148 194.309C137.312 194.402 137.414 194.539 137.457 194.719C139.109 196.672 142.441 196.504 144.867 195.73C146.984 195.059 148.687 193.238 150.332 191.477C150.738 191.043 151.152 190.594 151.57 190.176C153.496 188.23 155.895 185.809 159.008 184.895C146.586 184.715 150.75 180.188 150.781 180.16Z" fill="#1C75BC"/>
<path d="M184.398 182.699C182.066 184.039 180.262 185.242 177.426 185.246C174.559 185.246 172.039 184.082 169.246 183.773C169.051 183.75 169 184.035 169.148 184.125C171.789 185.777 175.527 186.688 178.637 186.387C180.941 186.168 183.828 185.289 184.738 182.961C184.805 182.766 184.551 182.609 184.398 182.699Z" fill="#F0FAFF"/>
<path d="M188.801 181.375C188.781 181.199 188.711 181.051 188.586 180.926C188.426 180.785 188.242 180.707 188.027 180.695C187.656 180.648 187.289 180.902 187.031 181.137C186.93 181.238 186.879 181.359 186.879 181.5C186.879 181.645 186.93 181.766 187.031 181.867C187.176 182 187.34 182.102 187.523 182.18C187.758 182.262 187.996 182.281 188.238 182.234C188.426 182.184 188.574 182.074 188.684 181.91C188.789 181.746 188.828 181.566 188.801 181.375Z" fill="#F0FAFF"/>
<path d="M238.402 186.672C209.219 172.207 182.875 172.98 165.902 176.187C165.902 176.187 229.434 172.801 237.387 197.68C237.398 197.684 240.379 196.781 238.402 186.672Z" fill="#F0FAFF"/>
<path d="M182.02 198.434C182.02 198.965 181.992 199.488 181.938 200.008C181.883 200.527 181.797 201.031 181.688 201.52C181.578 202.008 181.445 202.473 181.285 202.91C181.125 203.352 180.945 203.758 180.742 204.133C180.539 204.508 180.32 204.84 180.082 205.133C179.844 205.43 179.594 205.676 179.328 205.879C179.062 206.082 178.793 206.234 178.512 206.34C178.23 206.441 177.945 206.492 177.66 206.492C177.375 206.492 177.09 206.441 176.809 206.34C176.527 206.234 176.258 206.082 175.992 205.879C175.727 205.676 175.477 205.43 175.238 205.133C175 204.84 174.781 204.508 174.578 204.133C174.375 203.758 174.195 203.352 174.035 202.91C173.875 202.473 173.742 202.008 173.633 201.52C173.523 201.031 173.438 200.527 173.383 200.008C173.328 199.488 173.301 198.965 173.301 198.434C173.301 197.906 173.328 197.383 173.383 196.863C173.438 196.344 173.523 195.84 173.633 195.352C173.742 194.863 173.875 194.398 174.035 193.957C174.195 193.52 174.375 193.109 174.578 192.738C174.781 192.363 175 192.027 175.238 191.734C175.477 191.441 175.727 191.191 175.992 190.992C176.258 190.789 176.527 190.637 176.809 190.531C177.09 190.43 177.375 190.379 177.66 190.379C177.945 190.379 178.23 190.43 178.512 190.531C178.793 190.637 179.062 190.789 179.328 190.992C179.594 191.191 179.844 191.441 180.082 191.734C180.32 192.027 180.539 192.363 180.742 192.738C180.945 193.109 181.125 193.52 181.285 193.957C181.445 194.398 181.578 194.863 181.688 195.352C181.797 195.84 181.883 196.344 181.938 196.863C181.992 197.383 182.02 197.906 182.02 198.434Z" fill="#004266"/>
<path d="M202.289 198.434C202.289 198.965 202.262 199.488 202.207 200.008C202.152 200.527 202.066 201.031 201.957 201.52C201.848 202.008 201.715 202.473 201.555 202.91C201.398 203.352 201.215 203.758 201.012 204.133C200.812 204.508 200.59 204.84 200.352 205.133C200.113 205.43 199.863 205.676 199.598 205.879C199.336 206.082 199.062 206.234 198.781 206.34C198.5 206.441 198.215 206.492 197.93 206.492C197.645 206.492 197.359 206.441 197.078 206.34C196.801 206.234 196.527 206.082 196.262 205.879C195.996 205.676 195.746 205.43 195.508 205.133C195.27 204.84 195.051 204.508 194.848 204.133C194.645 203.758 194.465 203.352 194.305 202.91C194.145 202.473 194.012 202.008 193.902 201.52C193.793 201.031 193.711 200.527 193.652 200.008C193.598 199.488 193.57 198.965 193.57 198.434C193.57 197.906 193.598 197.383 193.652 196.863C193.711 196.344 193.793 195.84 193.902 195.352C194.012 194.863 194.145 194.398 194.305 193.957C194.465 193.52 194.645 193.109 194.848 192.738C195.051 192.363 195.27 192.027 195.508 191.734C195.746 191.441 195.996 191.191 196.262 190.992C196.527 190.789 196.801 190.637 197.078 190.531C197.359 190.43 197.645 190.379 197.93 190.379C198.215 190.379 198.5 190.43 198.781 190.531C199.062 190.637 199.336 190.789 199.598 190.992C199.863 191.191 200.113 191.441 200.352 191.734C200.59 192.027 200.812 192.363 201.012 192.738C201.215 193.109 201.398 193.52 201.555 193.957C201.715 194.398 201.848 194.863 201.957 195.352C202.066 195.84 202.152 196.344 202.207 196.863C202.262 197.383 202.289 197.906 202.289 198.434Z" fill="#004266"/>
<path d="M193.57 208.641C193.422 208.641 193.281 208.668 193.145 208.727C193.008 208.781 192.887 208.863 192.785 208.965C192.68 209.07 192.598 209.187 192.543 209.324C192.484 209.461 192.457 209.602 192.457 209.75C192.457 212.285 190.551 214.352 188.203 214.352C185.859 214.352 183.949 212.285 183.949 209.75C183.949 209.602 183.922 209.461 183.863 209.324C183.809 209.187 183.727 209.07 183.621 208.965C183.52 208.859 183.398 208.781 183.262 208.723C183.125 208.668 182.984 208.641 182.836 208.641C182.687 208.641 182.547 208.668 182.41 208.723C182.273 208.781 182.152 208.859 182.051 208.965C181.945 209.07 181.863 209.187 181.809 209.324C181.75 209.461 181.723 209.602 181.723 209.75C181.723 213.508 184.637 216.57 188.203 216.57C191.773 216.57 194.688 213.508 194.688 209.75C194.688 209.602 194.656 209.461 194.602 209.324C194.543 209.187 194.465 209.066 194.359 208.965C194.254 208.859 194.133 208.781 193.996 208.723C193.859 208.668 193.719 208.641 193.57 208.641Z" fill="#004266"/>
<path d="M240.059 186.031C240.059 186.023 240.059 186.02 240.059 186.016C240.059 185.996 240.059 185.977 240.043 185.957C240.031 185.941 240.035 185.922 240.027 185.906C240.023 185.891 240.02 185.875 240.012 185.863L239.988 185.805C239.984 185.793 239.98 185.781 239.973 185.77C239.961 185.746 239.953 185.727 239.941 185.707C239.938 185.699 239.93 185.688 239.926 185.68L239.883 185.617C239.879 185.605 239.871 185.598 239.863 185.59C239.852 185.57 239.836 185.551 239.816 185.531L239.797 185.504L239.723 185.43L239.664 185.379L239.641 185.363L239.57 185.312H239.555L239.473 185.27C233.527 182.293 227.383 179.809 221.039 177.812L222.727 172.082C222.84 172.082 222.957 172.078 223.07 172.062C223.707 171.992 224.613 171.676 225.289 170.559C227.621 166.723 227.152 157.293 227.133 156.895V156.875C227.133 156.875 227.133 156.863 227.133 156.855C227.125 156.789 227.117 156.727 227.098 156.66C227.078 156.594 227.055 156.531 227.02 156.469C226.988 156.398 226.949 156.336 226.902 156.273C223.574 152.039 217.594 149.086 210.652 147.148L212.129 142.141L214.934 132.613C215.043 132.25 214.977 131.918 214.742 131.621C210.215 125.844 198.703 123.445 188.961 123.043C188.707 114.453 190.27 109.215 190.281 109.16C190.363 108.898 190.348 108.645 190.238 108.391C190.129 108.141 189.949 107.957 189.699 107.836C183.078 104.684 178.922 108.082 178.746 108.223C178.551 108.391 178.426 108.602 178.371 108.852C178.32 109.105 178.355 109.348 178.473 109.578C179.914 112.434 180.926 120.156 181.273 123.137C171.84 123.73 161.629 126.187 157.453 131.637C157.215 131.941 157.156 132.277 157.277 132.645L160.605 143.004C160.605 143.012 160.605 143.02 160.605 143.027L161.875 146.961C154.773 148.895 148.676 151.895 145.324 156.246L145.305 156.27V156.281C145.266 156.336 145.23 156.391 145.199 156.449L145.187 156.473C145.16 156.531 145.141 156.594 145.121 156.652V156.68C145.105 156.742 145.098 156.809 145.094 156.871C145.094 156.883 145.094 156.891 145.094 156.898C145.09 156.957 145.09 157.012 145.094 157.066C145.324 159.25 146.598 169.871 149.973 172.324L151.781 177.973C141.238 181.363 135.051 185.086 134.695 185.301V185.316L134.637 185.355L134.602 185.383L134.555 185.422L134.441 185.535L134.379 185.621C134.367 185.637 134.355 185.652 134.348 185.672L134.309 185.703C134.301 185.723 134.289 185.738 134.281 185.758C134.273 185.77 134.266 185.785 134.262 185.797L134.238 185.859L134.227 185.895L134.211 185.957C134.207 185.973 134.207 185.988 134.211 186.004C134.211 186.023 134.211 186.043 134.199 186.062C134.195 186.078 134.195 186.098 134.199 186.113C134.195 186.125 134.195 186.137 134.199 186.145C134.176 186.402 133.691 192.402 135.84 195.457L140.098 219.188C140.18 219.633 140.437 219.922 140.875 220.055C155.973 224.504 172.578 226.715 188.652 226.715C204.727 226.715 220.297 224.488 233.262 220.039C233.668 219.898 233.914 219.617 233.992 219.191L237.648 199.457C237.727 199.426 237.809 199.395 237.887 199.359C238.238 199.246 238.945 198.922 239.578 198.004C241.062 195.828 241.223 191.805 240.059 186.031ZM197.137 144.641C198.137 144.109 198.844 143.32 199.262 142.277C199.457 141.723 199.59 141.156 199.66 140.574C199.707 140.234 199.77 139.898 199.855 139.562C200 139.074 200.344 138.648 200.598 138.648C200.809 138.648 201.109 138.941 201.293 139.324C201.43 139.621 201.539 139.922 201.633 140.234C201.754 140.637 201.906 141.031 202.082 141.418C202.477 142.211 203.035 142.867 203.762 143.379C204.484 143.895 205.289 144.207 206.172 144.32C207.215 144.398 208.238 144.301 209.246 144.027L208.496 146.586C204.754 145.687 200.965 145.039 197.137 144.641ZM191.434 143.48C191.664 143.762 191.922 144.012 192.211 144.23C189.848 144.09 187.535 144.027 185.336 144.039C184.578 144.039 183.812 144.051 183.039 144.074C183.496 143.828 183.898 143.512 184.242 143.125C185.41 141.809 185.699 140.031 185.812 138.637C185.832 138.398 185.848 138.152 185.863 137.91C185.938 136.824 186.008 135.797 186.371 134.914C186.711 134.094 187.535 133.258 188.371 133.332C189.211 133.406 189.863 134.32 190.086 135.187C190.309 136.055 190.281 137 190.234 138.008C190.223 138.312 190.211 138.621 190.207 138.922C190.188 140.195 190.289 142.055 191.434 143.477V143.48ZM187.906 109.477C187.465 111.406 187.156 113.359 186.98 115.328C186.57 115.098 186.418 114.598 186.227 113.844C186 112.945 185.715 111.832 184.516 111.43C183.387 111.055 183.008 109.758 182.898 108.836C184.172 108.613 185.863 108.664 187.906 109.477ZM180.867 109.5C181.219 109.32 181.59 109.172 181.969 109.055C182.121 110.168 182.613 111.801 184.211 112.332C184.871 112.551 185.066 113.137 185.305 114.074C185.516 114.91 185.793 115.984 186.895 116.316C186.723 118.535 186.672 120.762 186.738 122.988C186.352 122.988 185.961 122.988 185.574 122.988C184.895 122.988 184.207 123.004 183.508 123.031C183.195 120.293 182.277 113.172 180.867 109.492V109.5ZM182.262 125.289C182.348 125.309 182.434 125.32 182.52 125.32H182.633C182.719 125.312 182.801 125.293 182.879 125.266C183.77 125.23 184.672 125.207 185.586 125.203C197.883 125.137 208.621 128.074 212.637 132.555L210.07 141.262C209.402 141.84 207.523 142.227 206.438 142.105C205.93 142.043 205.473 141.863 205.055 141.57C204.641 141.277 204.32 140.902 204.094 140.449C203.961 140.156 203.852 139.855 203.762 139.547C203.637 139.137 203.484 138.738 203.305 138.352C202.734 137.176 201.711 136.437 200.633 136.418H200.605C199.129 136.418 198.098 137.672 197.727 138.934C197.609 139.363 197.523 139.797 197.461 140.238C197.414 140.66 197.324 141.07 197.188 141.473C197.035 141.859 196.797 142.187 196.469 142.449C196.145 142.711 195.773 142.871 195.355 142.937C194.941 143 194.539 142.957 194.148 142.805C193.758 142.652 193.43 142.414 193.168 142.086C192.641 141.434 192.41 140.437 192.434 138.957C192.434 138.668 192.449 138.375 192.461 138.09C192.508 136.969 192.551 135.809 192.246 134.629C191.824 133.004 190.527 131.289 188.57 131.117C186.559 130.941 184.957 132.523 184.316 134.066C183.812 135.285 183.734 136.543 183.648 137.758C183.633 137.992 183.617 138.223 183.598 138.457C183.512 139.508 183.32 140.824 182.582 141.652C181.777 142.555 180.195 142.742 179.195 142.055C178.375 141.484 177.883 140.461 177.359 139.371C177.258 139.152 177.152 138.934 177.043 138.719C175.965 136.559 174.59 135.359 172.953 135.156C171.066 134.918 169.266 136.043 167.586 138.492L167.527 138.578C166.605 139.934 165.656 141.32 164.371 141.512C163.746 141.594 163.125 141.621 162.496 141.598L159.586 132.531C163.09 128.535 171.703 125.809 182.262 125.289ZM163.211 143.816C163.711 143.812 164.207 143.773 164.699 143.707C166.949 143.367 168.285 141.402 169.359 139.824L169.418 139.738C170.582 138.031 171.676 137.223 172.668 137.355C173.727 137.488 174.547 138.711 175.047 139.707C175.148 139.91 175.238 140.117 175.348 140.328C175.941 141.566 176.617 142.969 177.918 143.875C178.148 144.031 178.391 144.168 178.645 144.281C173.715 144.594 168.848 145.301 164.035 146.406L163.211 143.816ZM147.352 157.273C152.801 150.66 167.625 146.348 185.352 146.246H185.973C204.129 146.246 219.301 150.574 224.918 157.355C225.031 160.141 224.953 166.812 223.379 169.395C223.129 169.812 222.91 169.836 222.812 169.848C222.152 169.926 221.008 169.121 220.453 168.559L220.41 168.516C216.141 164.598 213.137 166.246 210.719 167.57C208.793 168.625 207.273 169.457 204.992 168.246C204.188 167.82 203.359 167.309 202.48 166.77C198.621 164.398 193.816 161.441 188.957 165.129C184.398 168.598 178.145 169.273 174.105 166.742C170.07 164.215 165.102 161.074 159.457 167.937C155.996 172.148 151.789 170.746 151.348 170.582C149.688 169.699 148.012 163.109 147.352 157.273ZM152.559 173.098C152.852 173.125 153.16 173.145 153.48 173.145C155.812 173.145 158.75 172.293 161.184 169.332C165.371 164.246 168.367 165.742 172.926 168.609C177.793 171.672 184.941 170.965 190.305 166.895C193.949 164.133 197.527 166.328 201.316 168.66C202.223 169.219 203.082 169.742 203.945 170.207C207.293 171.98 209.789 170.613 211.793 169.516C214.121 168.238 215.809 167.316 218.883 170.133C219.395 170.641 219.965 171.07 220.59 171.43L218.902 177.156C212.328 175.223 205.633 173.887 198.816 173.145C187.652 171.949 176.555 172.402 165.523 174.5C161.605 175.238 157.738 176.176 153.918 177.316L152.559 173.098ZM231.926 218.148C206.656 226.633 171.594 226.621 142.168 218.117L138.441 197.473C140.613 198.316 143.297 198.055 145.398 197.391C147.953 196.578 149.895 194.496 151.609 192.66C152.023 192.219 152.418 191.797 152.812 191.398C154.598 189.594 156.82 187.348 159.5 186.559C162.629 185.641 165.887 186.707 169.336 187.836C172.551 188.887 175.879 189.973 179.309 189.469C181.875 189.082 184.18 187.863 186.41 186.672C189.098 185.238 191.641 183.883 194.371 184.145C198.359 184.531 201.18 188.176 203.906 191.699L204.422 192.363C206.906 195.555 211.918 200.641 217.555 198.832C219.242 198.293 220.68 197.203 222.074 196.145C223.992 194.688 225.652 193.438 227.48 193.891C228.719 194.203 229.688 195.281 230.711 196.422C230.965 196.707 231.219 196.984 231.473 197.258C232.504 198.34 233.898 199.309 235.355 199.602L231.926 218.148ZM237.258 197.219C237.145 197.219 237.137 197.25 237.008 197.316C235.789 197.91 234.133 196.836 233.086 195.734C232.844 195.48 232.605 195.215 232.363 194.945C231.219 193.672 229.918 192.227 228.023 191.746C225.156 191.027 222.902 192.734 220.723 194.387C219.477 195.328 218.199 196.305 216.871 196.727C212.352 198.172 207.887 193.211 206.176 191.008L205.664 190.352C202.789 186.633 199.527 182.418 194.578 181.941C191.18 181.609 188.223 183.195 185.363 184.723C183.207 185.871 181.172 186.957 178.988 187.281C176.074 187.707 173.141 186.746 170.031 185.73C166.41 184.547 162.668 183.324 158.871 184.438C155.641 185.383 153.195 187.855 151.23 189.84C150.812 190.266 150.391 190.715 149.984 191.152C148.379 192.867 146.723 194.645 144.719 195.281C142.305 196.055 139.332 196.074 137.887 194.504C137.816 194.289 137.684 194.109 137.5 193.973C136.387 192.129 136.285 188.684 136.367 186.918C138.762 185.562 149.762 179.727 166.035 176.664C182.895 173.488 209.023 172.727 237.984 187.012C239.602 195.523 237.535 197.059 237.258 197.219Z" fill="#004266"/>
<path d="M180.516 103.598C181.75 104.625 183.176 105.121 184.785 105.094C184.965 105.094 185.148 105.086 185.34 105.074C186.07 105.043 186.762 104.863 187.41 104.531C188.312 104.07 189.07 103.441 189.687 102.645C190.305 101.848 190.723 100.957 190.945 99.9727C191.297 98.4766 191.211 95.9258 190.75 94.5117C189.703 91.2617 188.359 88.9922 186.801 86.3633C186.578 85.9766 186.352 85.5977 186.117 85.2031C185.91 84.8477 185.602 84.6875 185.191 84.7188C184.785 84.75 184.504 84.9531 184.352 85.3359L182.738 89.3984C182.422 90.1836 182.191 90.9961 182.047 91.832C182.035 91.9141 182.02 91.9961 182.008 92.082C181.516 91.8398 180.996 91.668 180.457 91.5625C180.238 91.5195 180.031 91.5469 179.828 91.6445C179.629 91.7422 179.48 91.8906 179.383 92.0859C179.285 92.2852 179.254 92.4922 179.297 92.7109C179.34 92.9297 179.445 93.1094 179.609 93.2578C180.074 93.668 180.043 94.582 179.805 95.3008C179.68 95.6719 179.516 96.043 179.34 96.4336C179.016 97.0977 178.77 97.7891 178.609 98.5078C178.441 99.4648 178.531 100.398 178.871 101.309C179.211 102.219 179.758 102.98 180.516 103.598ZM180.547 98.875C180.684 98.3047 180.883 97.7578 181.145 97.2305C181.344 96.8008 181.523 96.3594 181.68 95.9102C181.836 95.4336 181.922 94.9492 181.941 94.4492C182.039 94.5625 182.121 94.6875 182.187 94.8242C182.211 94.8984 182.242 94.9727 182.273 95.043C182.379 95.2852 182.551 95.457 182.797 95.5625C183.039 95.6641 183.285 95.668 183.535 95.5703C183.781 95.4766 183.961 95.3086 184.07 95.0703C184.184 94.8281 184.195 94.5859 184.109 94.3359C184.082 94.2578 184.051 94.1797 184.02 94.1016C183.855 93.6172 183.844 92.9922 183.984 92.1523C184.105 91.457 184.301 90.7813 184.566 90.125L185.441 87.9219C186.801 90.2188 187.965 92.3008 188.879 95.1133C189.227 96.1875 189.301 98.375 189.027 99.5273C188.867 100.23 188.566 100.871 188.121 101.445C187.68 102.016 187.133 102.469 186.484 102.801C186.086 102.996 185.664 103.102 185.215 103.117C183.469 103.223 182.516 102.672 181.742 102.059C181.27 101.676 180.93 101.195 180.715 100.629C180.504 100.059 180.449 99.4727 180.555 98.875H180.547Z" fill="#004266"/>
<path d="M197.645 161.785C197.824 161.902 198.023 161.957 198.238 161.957C198.645 161.957 198.961 161.785 199.18 161.441L200.957 158.641C201.043 158.516 201.098 158.383 201.125 158.234C201.152 158.09 201.148 157.941 201.117 157.797C201.086 157.652 201.027 157.52 200.945 157.395C200.859 157.273 200.754 157.172 200.625 157.094C200.5 157.012 200.363 156.961 200.215 156.937C200.07 156.91 199.922 156.918 199.777 156.949C199.633 156.984 199.496 157.047 199.379 157.133C199.258 157.219 199.156 157.328 199.078 157.453L197.297 160.258C197.219 160.379 197.168 160.516 197.141 160.66C197.117 160.805 197.121 160.949 197.152 161.094C197.184 161.234 197.242 161.367 197.328 161.488C197.414 161.605 197.52 161.707 197.645 161.785Z" fill="#004266"/>
<path d="M212.852 156.754C212.961 156.852 213.086 156.922 213.227 156.973C213.363 157.02 213.508 157.039 213.656 157.031C213.801 157.02 213.941 156.984 214.074 156.918C214.207 156.855 214.324 156.77 214.422 156.656C214.52 156.547 214.59 156.422 214.641 156.285C214.688 156.145 214.707 156.004 214.699 155.855C214.687 155.707 214.652 155.57 214.59 155.437C214.523 155.305 214.437 155.191 214.324 155.094L211.172 152.312C211.059 152.215 210.934 152.141 210.797 152.094C210.656 152.047 210.512 152.027 210.367 152.035C210.219 152.043 210.078 152.082 209.945 152.145C209.813 152.211 209.699 152.297 209.602 152.406C209.504 152.52 209.43 152.641 209.383 152.781C209.332 152.922 209.312 153.062 209.324 153.211C209.332 153.355 209.371 153.496 209.434 153.629C209.5 153.762 209.586 153.875 209.695 153.973L212.852 156.754Z" fill="#004266"/>
<path d="M220.84 162.125C220.914 162.141 220.988 162.145 221.062 162.148C221.328 162.145 221.562 162.063 221.766 161.895C221.969 161.73 222.098 161.516 222.152 161.258L222.898 157.613C222.926 157.469 222.926 157.324 222.898 157.18C222.871 157.035 222.816 156.902 222.734 156.781C222.652 156.656 222.551 156.555 222.43 156.473C222.309 156.391 222.172 156.336 222.027 156.305C221.883 156.277 221.738 156.277 221.594 156.305C221.449 156.332 221.316 156.387 221.191 156.469C221.07 156.547 220.969 156.648 220.883 156.773C220.801 156.895 220.746 157.027 220.715 157.172L219.973 160.816C219.941 160.961 219.941 161.105 219.969 161.25C219.996 161.395 220.051 161.527 220.133 161.648C220.215 161.773 220.316 161.875 220.437 161.957C220.562 162.039 220.695 162.094 220.84 162.125Z" fill="#004266"/>
<path d="M157.188 164.445C157.383 164.59 157.602 164.66 157.844 164.66C158.219 164.66 158.52 164.512 158.742 164.207L161.762 160.105C161.848 159.984 161.906 159.855 161.941 159.711C161.977 159.57 161.984 159.426 161.961 159.281C161.938 159.137 161.891 159 161.813 158.875C161.734 158.75 161.637 158.645 161.52 158.555C161.402 158.469 161.27 158.406 161.129 158.371C160.984 158.34 160.84 158.332 160.695 158.355C160.547 158.375 160.414 158.426 160.285 158.5C160.16 158.578 160.055 158.672 159.965 158.793L156.945 162.898C156.859 163.016 156.797 163.148 156.762 163.289C156.727 163.434 156.719 163.578 156.742 163.723C156.766 163.867 156.816 164.004 156.891 164.129C156.969 164.254 157.066 164.359 157.188 164.445Z" fill="#004266"/>
<path d="M177.148 163.84C177.07 163.969 177.023 164.105 177.004 164.25C176.98 164.395 176.988 164.539 177.023 164.684C177.062 164.824 177.125 164.953 177.211 165.074C177.301 165.191 177.41 165.285 177.535 165.363C178.945 166.203 180.469 166.719 182.102 166.91C182.145 166.914 182.187 166.914 182.23 166.91C182.527 166.914 182.785 166.812 183 166.609C183.219 166.406 183.336 166.16 183.352 165.863C183.367 165.566 183.281 165.309 183.086 165.082C182.895 164.855 182.648 164.727 182.355 164.699C181.039 164.547 179.816 164.137 178.68 163.457C178.555 163.383 178.418 163.332 178.27 163.309C178.125 163.289 177.977 163.297 177.836 163.332C177.691 163.367 177.559 163.43 177.441 163.52C177.32 163.605 177.223 163.715 177.148 163.84Z" fill="#004266"/>
<path d="M175.937 152.734C176.621 153.176 177.008 153.801 177.102 154.605C177.133 154.887 177.254 155.125 177.465 155.313C177.676 155.5 177.926 155.594 178.207 155.598H178.328C178.477 155.578 178.613 155.535 178.742 155.465C178.875 155.395 178.984 155.305 179.078 155.188C179.168 155.074 179.234 154.945 179.277 154.805C179.32 154.664 179.332 154.52 179.316 154.375C179.234 153.652 179 152.984 178.613 152.367C178.227 151.754 177.727 151.25 177.109 150.863C176.984 150.785 176.852 150.73 176.703 150.707C176.559 150.684 176.414 150.688 176.27 150.719C176.125 150.75 175.996 150.813 175.875 150.895C175.754 150.98 175.652 151.086 175.574 151.211C175.496 151.336 175.445 151.469 175.422 151.617C175.395 151.762 175.402 151.906 175.434 152.047C175.469 152.191 175.527 152.324 175.613 152.445C175.699 152.563 175.805 152.664 175.93 152.738L175.937 152.734Z" fill="#004266"/>
<path d="M191.023 152.383H191.191C191.336 152.375 191.477 152.34 191.609 152.277C191.738 152.215 191.855 152.129 191.953 152.023C192.051 151.914 192.125 151.793 192.176 151.656C192.227 151.52 192.246 151.379 192.242 151.234C192.238 151.086 192.203 150.949 192.145 150.816C192.082 150.684 192 150.566 191.895 150.469C191.785 150.367 191.664 150.293 191.531 150.242C191.395 150.187 191.254 150.164 191.105 150.168C190.398 150.187 189.797 149.937 189.309 149.426C189.207 149.32 189.09 149.234 188.957 149.172C188.824 149.113 188.684 149.078 188.535 149.074C188.387 149.07 188.246 149.09 188.105 149.145C187.969 149.195 187.844 149.27 187.738 149.371C187.629 149.469 187.543 149.586 187.484 149.719C187.422 149.852 187.387 149.992 187.383 150.141C187.379 150.285 187.398 150.43 187.449 150.566C187.504 150.703 187.578 150.828 187.68 150.934C188.113 151.395 188.621 151.75 189.203 152C189.785 152.254 190.391 152.379 191.023 152.383Z" fill="#004266"/>
<path d="M201.43 155.055C201.555 155.129 201.691 155.176 201.836 155.199C201.984 155.219 202.129 155.211 202.27 155.176C202.414 155.137 202.543 155.074 202.664 154.988C202.781 154.898 202.879 154.793 202.953 154.668C203.656 153.48 204.07 152.199 204.199 150.828C204.211 150.68 204.199 150.535 204.152 150.395C204.109 150.258 204.039 150.129 203.945 150.016C203.852 149.902 203.738 149.813 203.609 149.742C203.477 149.676 203.34 149.633 203.191 149.621C203.047 149.605 202.902 149.621 202.762 149.664C202.621 149.711 202.492 149.777 202.379 149.871C202.266 149.965 202.176 150.078 202.105 150.207C202.035 150.34 201.996 150.477 201.98 150.625C201.883 151.66 201.57 152.629 201.035 153.527C200.961 153.652 200.91 153.789 200.891 153.938C200.867 154.082 200.875 154.227 200.914 154.371C200.949 154.516 201.012 154.645 201.102 154.766C201.191 154.883 201.301 154.98 201.43 155.055Z" fill="#004266"/>
<path d="M205.809 165.367C205.984 165.469 206.172 165.523 206.375 165.523C206.797 165.523 207.117 165.34 207.332 164.98C208.039 163.789 208.453 162.508 208.582 161.133C208.594 160.988 208.578 160.844 208.535 160.703C208.488 160.562 208.422 160.437 208.324 160.324C208.23 160.211 208.117 160.121 207.988 160.055C207.855 159.988 207.719 159.945 207.57 159.934C207.426 159.922 207.281 159.937 207.141 159.98C207 160.023 206.871 160.094 206.762 160.187C206.648 160.281 206.555 160.395 206.488 160.523C206.418 160.656 206.379 160.793 206.367 160.937C206.27 161.977 205.953 162.945 205.418 163.84C205.344 163.969 205.293 164.105 205.273 164.25C205.25 164.398 205.258 164.543 205.297 164.684C205.332 164.828 205.395 164.957 205.484 165.078C205.574 165.195 205.68 165.289 205.809 165.367Z" fill="#004266"/>
<path d="M186.039 159.184L188.891 160.059C188.996 160.09 189.105 160.105 189.215 160.105C189.492 160.109 189.734 160.02 189.945 159.84C190.156 159.66 190.281 159.434 190.32 159.164C190.363 158.891 190.309 158.637 190.16 158.406C190.012 158.172 189.805 158.016 189.543 157.937L186.691 157.07C186.551 157.02 186.402 157.004 186.254 157.012C186.102 157.023 185.961 157.062 185.824 157.133C185.691 157.199 185.574 157.289 185.48 157.406C185.383 157.52 185.313 157.648 185.266 157.793C185.223 157.937 185.207 158.082 185.223 158.234C185.238 158.383 185.285 158.523 185.355 158.652C185.43 158.785 185.523 158.898 185.645 158.992C185.762 159.082 185.895 159.148 186.039 159.187V159.184Z" fill="#004266"/>
<path d="M152.004 155.137C151.867 155.074 151.727 155.039 151.582 155.035C151.434 155.031 151.289 155.055 151.152 155.105C151.012 155.156 150.891 155.23 150.781 155.332C150.672 155.43 150.59 155.547 150.527 155.68L149.008 158.984C148.949 159.117 148.914 159.258 148.91 159.406C148.902 159.555 148.926 159.695 148.977 159.832C149.027 159.973 149.105 160.094 149.203 160.203C149.305 160.309 149.422 160.395 149.555 160.457C149.703 160.523 149.859 160.559 150.02 160.555C150.238 160.555 150.438 160.496 150.621 160.379C150.805 160.266 150.941 160.105 151.031 159.91L152.559 156.609C152.621 156.477 152.652 156.336 152.66 156.188C152.664 156.039 152.641 155.895 152.59 155.758C152.535 155.617 152.461 155.496 152.359 155.387C152.258 155.281 152.137 155.195 152.004 155.137Z" fill="#004266"/>
<path d="M168.773 159.133C168.863 159.246 168.969 159.34 169.094 159.414C169.215 159.488 169.352 159.535 169.492 159.559C169.637 159.578 169.777 159.574 169.918 159.539C170.059 159.508 170.188 159.449 170.309 159.363C170.426 159.281 170.523 159.176 170.598 159.055C170.676 158.934 170.73 158.801 170.754 158.66C170.781 158.52 170.777 158.375 170.75 158.234C170.719 158.094 170.664 157.965 170.582 157.844L168.371 154.75C168.285 154.629 168.18 154.531 168.055 154.453C167.93 154.375 167.793 154.32 167.648 154.297C167.504 154.273 167.359 154.277 167.215 154.313C167.07 154.344 166.938 154.402 166.816 154.488C166.699 154.574 166.598 154.68 166.52 154.805C166.441 154.93 166.391 155.063 166.367 155.211C166.344 155.355 166.348 155.5 166.379 155.641C166.414 155.785 166.473 155.918 166.559 156.035L168.773 159.133Z" fill="#004266"/>
<path d="M200.691 195.324C200.691 195.652 200.652 195.965 200.574 196.27C200.496 196.57 200.383 196.84 200.234 197.07C200.086 197.301 199.918 197.48 199.727 197.605C199.535 197.73 199.336 197.793 199.129 197.793C198.922 197.793 198.723 197.73 198.531 197.605C198.336 197.48 198.168 197.301 198.023 197.07C197.875 196.84 197.762 196.57 197.684 196.27C197.602 195.965 197.562 195.652 197.562 195.324C197.562 194.996 197.602 194.68 197.684 194.379C197.762 194.074 197.875 193.809 198.023 193.578C198.168 193.344 198.336 193.168 198.531 193.043C198.723 192.918 198.922 192.852 199.129 192.852C199.336 192.852 199.535 192.918 199.727 193.043C199.918 193.168 200.086 193.344 200.234 193.578C200.383 193.809 200.496 194.074 200.574 194.379C200.652 194.68 200.691 194.996 200.691 195.324Z" fill="#F0FAFF"/>
<path d="M180.789 195.324C180.789 195.652 180.75 195.965 180.672 196.27C180.59 196.57 180.477 196.84 180.332 197.07C180.184 197.301 180.016 197.48 179.824 197.605C179.633 197.73 179.434 197.793 179.227 197.793C179.016 197.793 178.816 197.73 178.625 197.605C178.434 197.48 178.266 197.301 178.117 197.07C177.973 196.84 177.859 196.57 177.777 196.27C177.699 195.965 177.66 195.652 177.66 195.324C177.66 194.996 177.699 194.68 177.777 194.379C177.859 194.074 177.973 193.809 178.117 193.578C178.266 193.344 178.434 193.168 178.625 193.043C178.816 192.918 179.016 192.852 179.227 192.852C179.434 192.852 179.633 192.918 179.824 193.043C180.016 193.168 180.184 193.344 180.332 193.578C180.477 193.809 180.59 194.074 180.672 194.379C180.75 194.68 180.789 194.996 180.789 195.324Z" fill="#F0FAFF"/>
<path d="M143.161 245.52C143.09 241.774 137.688 241.774 137.762 245.52C137.833 249.048 137.833 252.684 137.005 256.137C136.755 257.184 136.391 258.516 135.458 259.126C134.376 259.848 133.083 259.235 132.649 257.973C131.462 254.481 126.243 255.997 127.43 259.524C129.266 264.852 135.383 267.262 139.489 263.051C143.555 258.911 143.231 250.993 143.161 245.52Z" fill="#004266"/>
<path d="M165.482 263.481C163.502 260.782 161.232 258.372 158.642 256.282C160.584 254.915 162.205 253.008 162.888 250.954C164.256 246.852 160.584 242.817 156.408 243.001C151.982 243.216 149.064 247.317 148.271 251.313C147.228 256.501 147.228 262.008 146.834 267.262C146.545 270.719 151.943 270.719 152.232 267.262C152.447 264.419 152.666 261.575 152.916 258.731C155.978 260.747 158.642 263.231 160.838 266.219C162.853 268.993 167.568 266.29 165.482 263.481ZM157.775 249.083C157.92 249.661 156.303 251.098 155.869 251.497C155.111 252.18 154.392 252.684 153.459 252.79C153.564 252.18 153.709 251.567 153.963 250.993C154.213 250.305 157.271 246.633 157.775 249.083Z" fill="#004266"/>
<path d="M183.804 258.227C180.277 259.235 174.121 259.559 175.093 254.087C175.742 250.38 179.195 247.391 182.976 247.68C186.433 247.965 186.433 242.567 182.976 242.278C176.101 241.739 169.945 247.965 169.621 254.7C169.441 258.118 171.058 261.286 174.086 263.016C177.539 264.958 181.609 264.454 185.246 263.446C188.593 262.473 187.187 257.29 183.804 258.227Z" fill="#004266"/>
<path d="M207.602 251.133C207.493 248.005 207.423 239.794 202.094 242.063C198.637 243.54 196.009 248.04 194.532 251.278C192.591 255.673 191.653 260.313 190.825 264.997C190.212 268.415 195.395 269.856 196.009 266.434C196.333 264.633 196.657 262.798 197.052 261.001L202.454 261.216C202.524 262.657 202.559 264.094 202.598 265.501C202.669 268.993 208.067 268.993 207.962 265.501C207.852 260.712 207.782 255.923 207.602 251.133ZM198.782 255.059C199.391 253.473 200.184 251.891 201.122 250.489C201.446 249.981 201.805 249.516 202.165 249.083C202.2 249.801 202.165 250.524 202.2 251.133C202.274 252.684 202.309 254.231 202.344 255.813C201.087 255.778 199.825 255.708 198.563 255.673C198.637 255.454 198.708 255.274 198.782 255.059Z" fill="#004266"/>
<path d="M227.762 244.188C229.524 241.165 224.844 238.462 223.117 241.45C221.965 243.395 220.344 246.454 218.223 247.715C218.328 245.376 218.402 243.071 218.402 240.731C218.438 237.239 213.035 237.239 213 240.731C212.965 247.606 212.531 254.481 211.633 261.286C211.418 262.727 211.957 264.169 213.504 264.598C214.766 264.958 216.637 264.169 216.817 262.727C217.25 259.704 217.574 256.715 217.824 253.692C219.695 255.419 220.887 257.794 221.102 260.352C221.426 263.77 226.824 263.805 226.5 260.352C226.176 256.751 224.844 253.583 222.613 250.993C224.738 249.118 226.356 246.598 227.762 244.188Z" fill="#004266"/>
<path d="M244.969 259.27C242.484 259.165 240 259.27 237.555 259.489C237.734 258.118 237.949 256.751 238.129 255.383C239.352 255.383 240.578 255.419 241.801 255.563C243.277 255.708 244.5 254.231 244.5 252.864C244.5 251.278 243.277 250.305 241.801 250.165C240.863 250.055 239.93 250.02 238.957 249.981C239.172 248.614 239.426 247.212 239.641 245.805C241.477 245.805 243.277 245.88 245.113 245.989C248.57 246.239 248.57 240.84 245.113 240.587C242.52 240.407 239.895 240.372 237.301 240.477C236.293 240.477 235.574 240.981 235.141 241.669C234.961 241.954 234.816 242.313 234.746 242.712C233.559 249.337 232.586 255.958 231.758 262.583C231.504 264.528 233.664 265.426 235.176 265.212C238.418 264.673 241.691 264.528 244.969 264.673C248.426 264.813 248.426 259.415 244.969 259.27Z" fill="#004266"/>
<path d="M136.502 289.43C136.396 289.43 136.306 289.399 136.236 289.336C136.173 289.266 136.142 289.18 136.142 289.086V279.977C136.142 279.875 136.173 279.789 136.236 279.727C136.306 279.664 136.396 279.633 136.502 279.633H137.814C137.947 279.633 138.052 279.672 138.127 279.742C138.197 279.817 138.244 279.875 138.267 279.914L140.845 284.649L143.439 279.914C143.459 279.875 143.502 279.817 143.564 279.742C143.634 279.672 143.744 279.633 143.892 279.633H145.189C145.291 279.633 145.377 279.664 145.439 279.727C145.509 279.789 145.548 279.875 145.548 279.977V289.086C145.548 289.18 145.509 289.266 145.439 289.336C145.377 289.399 145.291 289.43 145.189 289.43H143.767C143.673 289.43 143.588 289.399 143.517 289.336C143.455 289.266 143.423 289.18 143.423 289.086V283.446L141.642 286.758C141.611 286.844 141.556 286.914 141.486 286.977C141.412 287.039 141.306 287.071 141.173 287.071H140.517C140.392 287.071 140.291 287.039 140.22 286.977C140.146 286.914 140.084 286.844 140.033 286.758L138.267 283.446V289.086C138.267 289.18 138.236 289.266 138.173 289.336C138.111 289.399 138.025 289.43 137.923 289.43H136.502Z" fill="#004266"/>
<path d="M150.745 289.43C150.651 289.43 150.565 289.399 150.495 289.336C150.432 289.266 150.401 289.18 150.401 289.086V279.977C150.401 279.875 150.432 279.789 150.495 279.727C150.565 279.664 150.651 279.633 150.745 279.633H154.917C155.686 279.633 156.323 279.75 156.823 279.977C157.323 280.196 157.686 280.516 157.917 280.93C158.155 281.336 158.276 281.817 158.276 282.367C158.276 282.711 158.214 283.016 158.089 283.274C157.964 283.535 157.807 283.75 157.62 283.914C157.44 284.082 157.268 284.207 157.104 284.289C157.468 284.457 157.784 284.739 158.057 285.133C158.339 285.52 158.479 285.977 158.479 286.508C158.479 287.094 158.343 287.602 158.073 288.039C157.811 288.477 157.425 288.821 156.917 289.071C156.405 289.313 155.78 289.43 155.042 289.43H150.745ZM152.636 287.774H154.776C155.233 287.774 155.577 287.649 155.807 287.399C156.046 287.141 156.167 286.836 156.167 286.492C156.167 286.129 156.046 285.821 155.807 285.571C155.565 285.321 155.222 285.196 154.776 285.196H152.636V287.774ZM152.636 283.586H154.651C155.089 283.586 155.417 283.477 155.636 283.258C155.854 283.039 155.964 282.758 155.964 282.414C155.964 282.071 155.854 281.801 155.636 281.602C155.417 281.395 155.089 281.289 154.651 281.289H152.636V283.586Z" fill="#004266"/>
<path d="M166.208 289.571C165.684 289.571 165.192 289.508 164.723 289.383C164.254 289.25 163.836 289.051 163.473 288.789C163.106 288.52 162.817 288.192 162.598 287.805C162.387 287.41 162.278 286.946 162.27 286.414C162.27 286.332 162.293 286.266 162.348 286.211C162.411 286.149 162.481 286.117 162.567 286.117H164.176C164.309 286.117 164.411 286.149 164.473 286.211C164.536 286.266 164.586 286.36 164.629 286.492C164.68 286.785 164.778 287.024 164.926 287.211C165.083 287.399 165.274 287.535 165.504 287.617C165.731 287.703 165.989 287.742 166.27 287.742C166.801 287.742 167.2 287.578 167.473 287.242C167.754 286.899 167.895 286.41 167.895 285.774V281.508H163.254C163.161 281.508 163.075 281.477 163.004 281.414C162.942 281.344 162.911 281.254 162.911 281.149V279.977C162.911 279.875 162.942 279.789 163.004 279.727C163.075 279.664 163.161 279.633 163.254 279.633H169.848C169.95 279.633 170.036 279.664 170.098 279.727C170.161 279.789 170.192 279.875 170.192 279.977V285.836C170.192 286.641 170.024 287.317 169.692 287.867C169.356 288.422 168.887 288.844 168.286 289.133C167.692 289.426 166.997 289.571 166.208 289.571Z" fill="#004266"/>
<path d="M178.507 289.571C177.608 289.571 176.858 289.438 176.257 289.18C175.651 288.922 175.194 288.582 174.882 288.164C174.577 287.739 174.421 287.285 174.413 286.805C174.413 286.723 174.436 286.657 174.491 286.602C174.542 286.551 174.608 286.524 174.694 286.524H176.21C176.335 286.524 176.428 286.551 176.491 286.602C176.553 286.645 176.616 286.703 176.678 286.774C176.741 286.942 176.842 287.102 176.991 287.258C177.135 287.407 177.327 287.524 177.569 287.617C177.819 287.703 178.132 287.742 178.507 287.742C179.108 287.742 179.561 287.649 179.866 287.461C180.178 287.266 180.335 287 180.335 286.664C180.335 286.426 180.249 286.235 180.085 286.086C179.917 285.942 179.655 285.805 179.303 285.68C178.96 285.555 178.495 285.43 177.913 285.305C177.214 285.141 176.62 284.942 176.132 284.711C175.639 284.473 175.272 284.164 175.022 283.789C174.78 283.407 174.663 282.93 174.663 282.367C174.663 281.817 174.811 281.321 175.116 280.883C175.428 280.446 175.858 280.11 176.413 279.867C176.975 279.617 177.647 279.492 178.428 279.492C179.053 279.492 179.604 279.578 180.085 279.742C180.561 279.91 180.964 280.129 181.288 280.399C181.608 280.672 181.854 280.961 182.022 281.274C182.186 281.578 182.276 281.875 182.288 282.164C182.288 282.25 182.26 282.321 182.21 282.383C182.155 282.446 182.085 282.477 181.991 282.477H180.428C180.335 282.477 180.249 282.461 180.178 282.43C180.104 282.391 180.038 282.321 179.975 282.227C179.932 281.969 179.772 281.75 179.491 281.571C179.217 281.395 178.866 281.305 178.428 281.305C177.967 281.305 177.604 281.391 177.335 281.555C177.073 281.723 176.944 281.977 176.944 282.321C176.944 282.539 177.01 282.727 177.147 282.883C177.292 283.039 177.522 283.176 177.835 283.289C178.155 283.407 178.589 283.532 179.132 283.664C179.932 283.832 180.589 284.035 181.1 284.274C181.62 284.516 181.999 284.817 182.241 285.18C182.491 285.547 182.616 286.008 182.616 286.571C182.616 287.196 182.436 287.735 182.085 288.18C181.741 288.629 181.26 288.973 180.647 289.211C180.03 289.45 179.319 289.571 178.507 289.571Z" fill="#004266"/>
<path d="M189.414 289.43C189.308 289.43 189.219 289.399 189.148 289.336C189.086 289.266 189.055 289.18 189.055 289.086V281.586H186.508C186.414 281.586 186.336 281.555 186.273 281.492C186.211 281.43 186.18 281.348 186.18 281.242V279.977C186.18 279.875 186.211 279.789 186.273 279.727C186.336 279.664 186.414 279.633 186.508 279.633H193.851C193.953 279.633 194.039 279.664 194.101 279.727C194.164 279.789 194.195 279.875 194.195 279.977V281.242C194.195 281.348 194.164 281.43 194.101 281.492C194.039 281.555 193.953 281.586 193.851 281.586H191.32V289.086C191.32 289.18 191.281 289.266 191.211 289.336C191.148 289.399 191.062 289.43 190.961 289.43H189.414Z" fill="#004266"/>
<path d="M202.347 289.571C201.523 289.571 200.8 289.434 200.175 289.164C199.558 288.883 199.085 288.457 198.753 287.883C198.417 287.313 198.253 286.582 198.253 285.696V279.977C198.253 279.875 198.284 279.789 198.347 279.727C198.409 279.664 198.488 279.633 198.581 279.633H200.128C200.23 279.633 200.316 279.664 200.378 279.727C200.441 279.789 200.472 279.875 200.472 279.977V285.68C200.472 286.36 200.632 286.867 200.956 287.211C201.288 287.547 201.753 287.711 202.347 287.711C202.917 287.711 203.366 287.547 203.691 287.211C204.023 286.867 204.191 286.36 204.191 285.68V279.977C204.191 279.875 204.222 279.789 204.284 279.727C204.355 279.664 204.441 279.633 204.534 279.633H206.081C206.175 279.633 206.253 279.664 206.316 279.727C206.378 279.789 206.409 279.875 206.409 279.977V285.696C206.409 286.582 206.241 287.313 205.909 287.883C205.585 288.457 205.116 288.883 204.503 289.164C203.886 289.434 203.167 289.571 202.347 289.571Z" fill="#004266"/>
<path d="M211.535 289.43C211.441 289.43 211.355 289.399 211.285 289.336C211.223 289.266 211.191 289.18 211.191 289.086V279.977C211.191 279.875 211.223 279.789 211.285 279.727C211.355 279.664 211.441 279.633 211.535 279.633H215.066C215.992 279.633 216.769 279.782 217.394 280.071C218.019 280.364 218.496 280.797 218.832 281.367C219.164 281.93 219.34 282.625 219.363 283.446C219.371 283.864 219.379 284.227 219.379 284.539C219.379 284.844 219.371 285.192 219.363 285.586C219.332 286.461 219.152 287.188 218.832 287.758C218.519 288.321 218.055 288.742 217.441 289.024C216.836 289.297 216.066 289.43 215.129 289.43H211.535ZM213.426 287.617H215.066C215.523 287.617 215.898 287.551 216.191 287.414C216.492 287.282 216.715 287.063 216.863 286.758C217.019 286.446 217.098 286.051 217.098 285.571C217.105 285.301 217.113 285.063 217.113 284.852C217.121 284.633 217.121 284.414 217.113 284.196C217.113 283.977 217.105 283.739 217.098 283.477C217.086 282.782 216.91 282.27 216.566 281.946C216.223 281.614 215.695 281.446 214.988 281.446H213.426V287.617Z" fill="#004266"/>
<path d="M224.256 289.43C224.162 289.43 224.076 289.399 224.006 289.336C223.943 289.266 223.912 289.18 223.912 289.086V279.977C223.912 279.875 223.943 279.789 224.006 279.727C224.076 279.664 224.162 279.633 224.256 279.633H225.865C225.959 279.633 226.037 279.664 226.1 279.727C226.162 279.789 226.193 279.875 226.193 279.977V289.086C226.193 289.18 226.162 289.266 226.1 289.336C226.037 289.399 225.959 289.43 225.865 289.43H224.256Z" fill="#004266"/>
<path d="M234.955 289.571C234.111 289.571 233.381 289.43 232.767 289.149C232.15 288.867 231.666 288.446 231.314 287.883C230.971 287.321 230.787 286.61 230.767 285.742C230.756 285.348 230.752 284.953 230.752 284.555C230.752 284.16 230.756 283.754 230.767 283.336C230.787 282.504 230.971 281.801 231.314 281.227C231.666 280.645 232.158 280.211 232.783 279.93C233.408 279.641 234.131 279.492 234.955 279.492C235.775 279.492 236.494 279.641 237.111 279.93C237.736 280.211 238.224 280.645 238.58 281.227C238.943 281.801 239.135 282.504 239.158 283.336C239.178 283.754 239.189 284.16 239.189 284.555C239.189 284.953 239.178 285.348 239.158 285.742C239.135 286.61 238.947 287.321 238.596 287.883C238.24 288.446 237.756 288.867 237.142 289.149C236.525 289.43 235.799 289.571 234.955 289.571ZM234.955 287.742C235.494 287.742 235.943 287.582 236.299 287.258C236.65 286.938 236.834 286.41 236.846 285.68C236.865 285.266 236.877 284.879 236.877 284.524C236.877 284.16 236.865 283.782 236.846 283.383C236.834 282.895 236.744 282.5 236.58 282.196C236.412 281.883 236.189 281.66 235.908 281.524C235.635 281.379 235.318 281.305 234.955 281.305C234.599 281.305 234.283 281.379 234.002 281.524C233.728 281.66 233.506 281.883 233.33 282.196C233.162 282.5 233.072 282.895 233.064 283.383C233.053 283.782 233.049 284.16 233.049 284.524C233.049 284.879 233.053 285.266 233.064 285.68C233.084 286.41 233.267 286.938 233.611 287.258C233.963 287.582 234.412 287.742 234.955 287.742Z" fill="#004266"/>
</g>
<defs>
<clipPath id="clip0_2_4">
<rect width="375" height="375" fill="white"/>
</clipPath>
</defs>
</svg>
