<svg width="375" height="125" viewBox="0 0 375 125" fill="none" xmlns="http://www.w3.org/2000/svg">
<rect width="375" height="51" fill="#95DCFF"/>
<path d="M55.1514 32.264C54.8874 33.656 54.4074 34.724 53.7114 35.468C53.0154 36.212 52.1514 36.584 51.1194 36.584C50.1474 36.584 49.2774 36.2 48.5094 35.432C47.7414 34.676 47.2974 33.77 47.1774 32.714C47.5374 32.402 47.9394 32.156 48.3834 31.976C48.8274 31.784 49.3194 31.652 49.8594 31.58C50.0274 32.672 50.1894 33.392 50.3454 33.74C50.5134 34.088 50.7294 34.262 50.9934 34.262C51.3534 34.262 51.6114 34.01 51.7674 33.506C51.9234 32.99 52.0014 32.18 52.0014 31.076C52.0014 29.828 51.9534 28.418 51.8574 26.846C51.7614 25.274 51.6294 23.84 51.4614 22.544C51.7374 22.352 52.0974 22.202 52.5414 22.094C52.9854 21.986 53.4474 21.932 53.9274 21.932C54.2634 21.932 54.5694 21.95 54.8454 21.986C55.1214 22.022 55.3974 22.076 55.6734 22.148C55.6854 22.52 55.6974 22.94 55.7094 23.408C55.7214 23.864 55.7274 24.35 55.7274 24.866C55.7274 26.474 55.6854 27.824 55.6014 28.916C55.5174 29.996 55.3674 31.112 55.1514 32.264ZM68.2042 34.208C67.8322 34.592 67.3762 34.934 66.8362 35.234C66.2962 35.534 65.6722 35.786 64.9642 35.99C64.1962 34.178 63.6142 32.894 63.2182 32.138C62.8342 31.37 62.4262 30.668 61.9942 30.032C61.8862 30.056 61.8022 30.08 61.7422 30.104C61.6942 30.116 61.6462 30.134 61.5982 30.158C61.5742 31.022 61.5382 31.868 61.4902 32.696C61.4422 33.512 61.3822 34.322 61.3102 35.126C60.7702 35.126 60.2242 35.102 59.6722 35.054C59.1202 35.018 58.6342 34.964 58.2142 34.892C58.2262 34.328 58.2322 33.908 58.2322 33.632C58.2442 33.356 58.2502 33.098 58.2502 32.858C58.2502 31.334 58.1962 29.744 58.0882 28.088C57.9922 26.432 57.8362 24.632 57.6202 22.688C58.1842 22.208 58.8682 21.83 59.6722 21.554C60.4882 21.278 61.2922 21.14 62.0842 21.14C63.6562 21.14 64.8682 21.476 65.7202 22.148C66.5722 22.82 66.9982 23.762 66.9982 24.974C66.9982 25.706 66.8062 26.39 66.4222 27.026C66.0382 27.662 65.4682 28.232 64.7122 28.736C65.3482 29.468 65.9482 30.278 66.5122 31.166C67.0882 32.054 67.6522 33.068 68.2042 34.208ZM61.6342 27.908V27.98C62.1982 27.764 62.6182 27.434 62.8942 26.99C63.1702 26.546 63.3082 25.982 63.3082 25.298C63.3082 24.626 63.1582 24.104 62.8582 23.732C62.5702 23.36 62.1502 23.174 61.5982 23.174H61.5262C61.5622 24.35 61.5862 25.286 61.5982 25.982C61.6222 26.666 61.6342 27.308 61.6342 27.908ZM75.7989 30.77C76.2909 30.722 76.8069 30.752 77.3469 30.86C77.8989 30.956 78.2949 31.094 78.5349 31.274C78.4389 32.654 77.9349 33.728 77.0229 34.496C76.1229 35.252 74.8869 35.63 73.3149 35.63C71.8269 35.63 70.6629 35.168 69.8229 34.244C68.9829 33.32 68.5629 32.006 68.5629 30.302C68.5629 28.118 69.1629 26.276 70.3629 24.776C71.5629 23.276 73.0749 22.526 74.8989 22.526C76.0149 22.526 76.9149 22.874 77.5989 23.57C78.2829 24.254 78.6789 25.214 78.7869 26.45C78.1509 26.726 77.6049 26.906 77.1489 26.99C76.6929 27.074 76.1169 27.116 75.4209 27.116C75.4209 26.336 75.3189 25.736 75.1149 25.316C74.9229 24.896 74.6469 24.686 74.2869 24.686C73.7829 24.686 73.3629 25.148 73.0269 26.072C72.6909 26.996 72.5229 28.112 72.5229 29.42C72.5229 30.692 72.6729 31.67 72.9729 32.354C73.2849 33.026 73.7229 33.362 74.2869 33.362C74.8629 33.362 75.2829 33.134 75.5469 32.678C75.8109 32.222 75.8949 31.586 75.7989 30.77ZM90.8043 35.99C90.3843 36.266 89.8803 36.494 89.2923 36.674C88.7163 36.866 88.0263 37.01 87.2223 37.106C87.1503 36.386 87.0483 35.636 86.9163 34.856C86.7963 34.064 86.6403 33.26 86.4483 32.444C85.6803 32.456 84.9903 32.48 84.3783 32.516C83.7663 32.552 83.1903 32.606 82.6503 32.678C82.4583 33.218 82.2603 33.734 82.0563 34.226C81.8523 34.718 81.6483 35.168 81.4443 35.576C80.8563 35.48 80.2983 35.288 79.7703 35C79.2543 34.724 78.8463 34.394 78.5463 34.01C79.4703 32.294 80.2743 30.566 80.9583 28.826C81.6423 27.074 82.3563 24.872 83.1003 22.22C83.6883 22.22 84.2163 22.25 84.6843 22.31C85.1643 22.358 85.6923 22.454 86.2683 22.598C87.3123 24.254 88.2183 26.222 88.9863 28.502C89.7543 30.782 90.3603 33.278 90.8043 35.99ZM84.5943 26.342C84.4383 26.93 84.2643 27.554 84.0723 28.214C83.8803 28.874 83.6763 29.546 83.4603 30.23C83.8683 30.17 84.2643 30.122 84.6483 30.086C85.0443 30.05 85.4403 30.026 85.8363 30.014C85.6323 29.342 85.4283 28.7 85.2243 28.088C85.0203 27.476 84.8103 26.894 84.5943 26.342ZM102.898 34.748C102.514 35.312 102.07 35.786 101.566 36.17C101.062 36.566 100.462 36.908 99.7657 37.196C99.1657 35.984 98.5477 34.922 97.9117 34.01C97.2757 33.086 96.5197 32.168 95.6437 31.256C95.6197 31.268 95.5837 31.292 95.5357 31.328C95.4997 31.352 95.4697 31.37 95.4457 31.382C95.4577 32.126 95.4937 32.888 95.5537 33.668C95.6137 34.436 95.6977 35.216 95.8057 36.008C95.4937 36.104 95.0137 36.188 94.3657 36.26C93.7297 36.332 93.1537 36.368 92.6377 36.368C92.3617 34.964 92.1517 33.476 92.0077 31.904C91.8757 30.32 91.8097 28.7 91.8097 27.044C91.8097 26.396 91.8217 25.73 91.8457 25.046C91.8697 24.362 91.9057 23.66 91.9537 22.94C92.2417 22.748 92.6017 22.598 93.0337 22.49C93.4657 22.382 93.9097 22.328 94.3657 22.328C94.7017 22.328 95.0077 22.346 95.2837 22.382C95.5597 22.418 95.8357 22.472 96.1117 22.544C95.9437 23.444 95.8057 24.374 95.6977 25.334C95.5897 26.282 95.5117 27.248 95.4637 28.232C96.1117 27.512 96.7057 26.696 97.2457 25.784C97.7977 24.86 98.3917 23.672 99.0277 22.22C99.5557 22.388 100.054 22.64 100.522 22.976C101.002 23.3 101.47 23.732 101.926 24.272C101.35 25.304 100.762 26.222 100.162 27.026C99.5617 27.83 98.9137 28.556 98.2177 29.204C99.1177 29.972 99.9277 30.788 100.648 31.652C101.38 32.516 102.13 33.548 102.898 34.748ZM112.457 35.18C112.109 35.288 110.993 35.414 109.109 35.558C107.237 35.702 105.671 35.774 104.411 35.774C104.111 33.866 103.835 31.64 103.583 29.096C103.343 26.552 103.211 24.434 103.187 22.742C105.035 22.394 106.637 22.148 107.993 22.004C109.361 21.848 110.699 21.77 112.007 21.77C112.007 22.214 111.977 22.688 111.917 23.192C111.869 23.684 111.785 24.2 111.665 24.74C110.993 24.74 110.297 24.752 109.577 24.776C108.857 24.8 108.107 24.836 107.327 24.884C107.303 25.148 107.285 25.454 107.273 25.802C107.261 26.138 107.249 26.648 107.237 27.332C107.849 27.152 108.461 27.02 109.073 26.936C109.685 26.852 110.309 26.81 110.945 26.81C111.041 27.23 111.113 27.662 111.161 28.106C111.209 28.55 111.233 29.072 111.233 29.672C110.549 29.672 109.871 29.696 109.199 29.744C108.527 29.78 107.873 29.834 107.237 29.906C107.249 30.446 107.267 30.974 107.291 31.49C107.315 32.006 107.351 32.498 107.399 32.966C107.747 32.966 108.479 32.9 109.595 32.768C110.711 32.624 111.551 32.498 112.115 32.39C112.211 32.642 112.289 33.056 112.349 33.632C112.421 34.196 112.457 34.712 112.457 35.18Z" fill="#002F48"/>
<g clip-path="url(#clip0_9_1737)">
<path d="M-99.4879 47.9873L455.846 43.7324C452.426 48.8845 449.632 52.3268 447.466 54.0592C446.165 55.1493 444.463 56.0592 442.358 56.7859C435.298 58.2634 431.735 59.1169 431.665 59.3437L423.627 68.2197C422.775 68.6986 421.8 69.0141 420.701 69.1662C413.593 69.4408 410.155 69.6915 410.388 69.9155C408.939 70.2239 407.375 70.9732 405.699 72.1648C404.312 73.3099 403.362 74.6563 402.848 76.2042C402.04 83.5437 401.351 87.7127 400.778 88.7113C399.979 90.5422 398.33 91.7662 395.829 92.3873C392.98 92.307 391.391 91.3422 391.059 89.493L388.26 65.6662C386.743 60.9606 384.723 58.3648 382.204 57.8761C380.349 57.3944 378.631 57.2465 377.048 57.4324C374.372 57.9887 372.605 58.7451 371.749 59.6986C368.646 62.9113 366.009 67.9704 363.837 74.8746C362.877 76.3887 361.179 77.3408 358.744 77.7282C357.177 77.793 355.909 77.3859 354.942 76.5084C350.447 68.4845 346.806 64.0732 344.023 63.2746C338.454 60.5746 333.88 60.2239 330.3 62.2225C327.906 63.2479 325.797 65.1901 323.976 68.0507L321.031 82.231C320.638 83.8606 319.521 84.8493 317.678 85.1972C315.402 85.269 313.742 84.0183 312.698 81.4451L310.659 64.1465C310.007 63.0056 308.724 62.107 306.809 61.4493C305.256 60.8887 303.447 60.9676 301.38 61.6845C295.341 62.8535 294.393 78.7268 298.537 109.306C296.906 113.068 294.5 114.901 291.319 114.806C287.214 113.868 285.109 111.442 285.004 107.527C286.534 88.3859 286.912 77.5845 286.14 75.1239C285.747 71.4873 282.955 68.7859 277.761 67.0197C275.485 66.538 273.49 66.4211 271.778 66.6676C268.974 67.3507 267.273 68.2282 266.676 69.3014L260.207 81.2239C253.99 84.7183 250.79 86.7887 250.606 87.4394C250.209 98.3127 248.302 103.714 244.886 103.641C241.643 103.634 239.407 101.918 238.18 98.493C239.451 84.6676 239.224 75.9465 237.499 72.3282C236.432 70.3127 235.461 69.1423 234.586 68.8155C234.33 68.4239 232.788 68.662 229.96 69.531C229.396 69.5761 228.978 69.4831 228.711 69.2493L225.984 59.3155C225.529 57.9352 224.11 57.038 221.73 56.6225C219.835 56.2718 217.524 57.1704 214.796 59.3169L206.867 72.162L194.698 78.1901C189.474 87.7394 185.673 93.2 183.299 94.5676C179.949 96.4817 176.55 96.269 173.103 93.9282C172.045 93.0986 170.943 91.7296 169.794 89.8239C167.182 82.4887 165.226 78.1465 163.927 76.7986C161.765 73.9521 158.534 72.6155 154.235 72.7915C150.488 73.2817 147.668 74.8324 145.771 77.4451C144.452 78.9887 142.868 84.9225 141.019 95.2437C140.64 96.2493 139.795 97.2493 138.488 98.2437C137.709 98.7056 136.844 98.8958 135.895 98.8169C133.448 98.8845 131.214 97.1577 129.191 93.6338L124.644 73.007C122.241 70.2127 119.071 68.6253 115.13 68.2451C113.698 68.1394 112.236 68.3915 110.743 69L99.8977 77.0761C97.7766 78.0831 96.0323 78.531 94.6634 78.4225C93.0157 78.5099 91.077 77.9761 88.8458 76.8211L78.3923 68.3859C75.8265 67.4704 72.9907 67.6 69.8852 68.7732C68.2088 69.493 66.8067 71.0183 65.6806 73.3507L60.7478 89.0352C59.1136 91.5915 56.5357 92.1732 53.0155 90.7789C49.6356 88.6042 46.9491 80.0803 44.9576 65.2056C42.2998 59.4324 38.2279 56.2113 32.7434 55.5394C29.481 55.7775 26.7976 56.7648 24.69 58.5014C23.2261 59.5014 21.1201 62.7056 18.3703 68.1141C17.2698 69.2606 16.014 69.8718 14.6029 69.9479C12.8782 69.8775 11.7626 69.5197 11.2546 68.8732C8.82591 63.7465 6.3716 60.4183 3.89166 58.8873C0.000648499 56.4606 -4.06525 56.0113 -8.30602 57.5408C-10.8583 58.8099 -12.5664 60.2014 -13.4287 61.7155L-16.3308 74.6958C-16.6202 75.7282 -17.8579 76.5099 -20.0424 77.0408C-21.7233 77.4211 -23.7841 77.0352 -26.2249 75.8845C-28.2495 70.3296 -30.9828 66.9535 -34.4245 65.7577C-40.8874 63.8803 -46.9177 64.3761 -52.5168 67.2437C-56.1409 69.8507 -57.8641 73.5169 -57.6907 78.2422L-53.9746 109.893C-55.256 113.715 -56.4862 115.762 -57.6666 116.032C-59.0189 116.872 -60.6651 117.073 -62.6084 116.635C-66.1315 116.18 -68.4019 114.265 -69.421 110.889C-65.9039 86.5986 -65.9944 73.4352 -69.6924 71.3972C-71.3417 68.1803 -73.5879 66.1197 -76.4282 65.2197C-77.5453 65.0239 -78.4468 65.0437 -79.1313 65.2789L-86.0329 68.1606C-86.5138 68.3394 -87.4666 68.0141 -88.8897 67.1831C-90.0792 66.3127 -91.6742 62.4648 -93.6747 55.638L-99.4879 47.9873Z" fill="#95DCFF"/>
<path d="M-7.62308 56.2972H-7.608C-7.45423 56.2958 -7.26729 56.2817 -7.05171 56.2563C-5.23511 56.0155 -4.20092 55.8929 -3.95067 55.8859C-3.02653 55.8197 -2.41748 55.7929 -2.12501 55.8042C-1.02449 55.7859 0.181552 56.0014 1.49313 56.4507C2.88913 56.9789 4.03035 57.6183 4.91981 58.3676C5.44142 58.7915 5.8952 59.2099 6.27963 59.6239C6.355 59.6817 6.99119 60.4113 8.18669 61.8155C7.34095 60.262 6.41983 59.0549 5.42183 58.1944C4.36804 57.2873 3.11677 56.569 1.66951 56.038C0.356429 55.5437 -1.09987 55.3197 -2.70241 55.3676C-3.46523 55.4014 -4.25067 55.4958 -5.05872 55.6493C-6.38386 55.907 -7.23714 56.1225 -7.62308 56.2972Z" fill="#F0FAFF"/>
<path d="M11.642 67.7986L11.6435 67.8028C12.0023 68.3225 12.4365 68.7408 12.9461 69.0577C13.4556 69.3465 13.9983 69.5014 14.5727 69.5225C15.218 69.5197 15.7501 69.3887 16.1692 69.131C16.3712 69.0183 16.5989 68.8324 16.8491 68.5761C17.0089 68.4141 17.2004 68.1648 17.4265 67.8296C16.7798 68.4155 16.3124 68.7676 16.0215 68.8887C15.6778 69.0592 15.2662 69.1437 14.7868 69.1423C14.1868 69.1451 13.6727 69.0535 13.2446 68.8718C13.041 68.7859 12.842 68.6761 12.6461 68.5437C12.5209 68.4676 12.227 68.2408 11.7626 67.8662L11.6752 67.8056L11.642 67.7986Z" fill="#F0FAFF"/>
<path d="M21.6236 60.1423C21.6372 60.1535 21.7427 60.0563 21.9432 59.8535C22.5764 59.169 23.0347 58.6845 23.3166 58.3972C23.6844 58.0324 23.9618 57.7732 24.1488 57.6183C24.7593 57.093 25.4015 56.6606 26.0754 56.3211C26.9242 55.9014 27.8679 55.5606 28.9066 55.2986C29.3951 55.1662 29.8715 55.0507 30.3388 54.9507C30.5273 54.9028 31.3082 54.7507 32.68 54.4944C32.968 54.4352 33.1504 54.3873 33.2273 54.3535C32.0635 54.3352 30.7067 54.4817 29.1569 54.793C27.8317 55.0958 26.7252 55.4775 25.8342 55.938C25.0578 56.3085 24.3236 56.8408 23.6347 57.5352C23.2096 57.9718 22.8508 58.3859 22.5538 58.7775C22.1316 59.3268 21.8211 59.7817 21.6236 60.1423Z" fill="#F0FAFF"/>
<path d="M39.0827 56.1296L39.0842 56.131L39.4264 56.4437C40.5586 57.3521 41.2701 57.9437 41.5611 58.2183C41.7209 58.3592 41.9455 58.5747 42.2305 58.862C42.6104 59.2563 42.8742 59.5507 43.0249 59.7465C43.334 60.131 43.6807 60.6409 44.0637 61.2747C44.1963 61.4549 44.6742 62.3578 45.4989 63.9873C45.5607 64.1057 45.6345 64.224 45.7235 64.3423C45.6074 63.7338 45.2667 62.8141 44.6998 61.5803C44.2792 60.7056 43.8375 59.9944 43.3762 59.4437C42.8651 58.8169 42.2501 58.231 41.5264 57.6873C40.5721 56.9718 39.7581 56.4521 39.0827 56.1296Z" fill="#F0FAFF"/>
<path d="M48.318 77.0676V77.0831C48.6919 79.4507 49.3115 81.9225 50.1753 84.4958C50.7874 86.3591 51.4794 87.7563 52.2543 88.6901C53.2312 89.8789 54.2925 90.569 55.4382 90.762C56.3654 90.9113 57.4599 90.6042 58.7232 89.8394C57.5699 90.2098 56.8885 90.3958 56.6805 90.4C56.183 90.4732 55.7382 90.4549 55.3493 90.3451C54.401 90.0929 53.4829 89.438 52.598 88.3789C52.01 87.669 51.4568 86.6225 50.9397 85.2437C50.7165 84.6394 50.5025 84.0042 50.2989 83.3366C49.6085 80.9577 49.105 79.2789 48.7884 78.3014C48.5803 77.6324 48.4235 77.2211 48.318 77.0676Z" fill="#F0FAFF"/>
<path d="M64.2574 73.2493C64.277 73.2564 64.4368 73.086 64.7338 72.7381C66.1208 70.9944 66.953 69.9677 67.2334 69.662C67.5545 69.2775 67.9193 68.8831 68.3279 68.4803C69.0937 67.7169 69.9153 67.162 70.7958 66.8169C71.8164 66.4367 72.8883 66.2916 74.0129 66.3817C74.429 66.4029 75.0983 66.4902 76.021 66.6437C76.2803 66.6761 77.3114 66.8958 79.1145 67.3043C79.2788 67.3423 79.4447 67.3662 79.6075 67.3761C79.3632 67.2113 78.5446 66.9226 77.1486 66.5085C76.3165 66.2719 75.531 66.1057 74.7923 66.0099C72.5023 65.7324 70.642 66.1127 69.2098 67.1536C68.4771 67.6451 67.6706 68.4198 66.7856 69.4775C65.7303 70.8169 64.8876 72.0733 64.2574 73.2493Z" fill="#F0FAFF"/>
<path d="M87.2553 74.2944L87.2568 74.2958C87.9111 74.9056 88.7478 75.5366 89.7669 76.1859C90.4875 76.6479 91.2127 76.9859 91.9408 77.1972C92.6177 77.3732 93.2961 77.4408 93.973 77.3986C94.8429 77.3465 95.663 77.193 96.4379 76.9408C96.3293 76.9338 96.2102 76.9366 96.0821 76.9465C95.3615 77.0056 94.8896 77.0408 94.6665 77.0507C94.3243 77.0648 94.0574 77.0676 93.866 77.0592C93.2449 77.0422 92.6795 76.9592 92.17 76.8084C91.6499 76.6577 91.0529 76.4141 90.3805 76.0746C89.9418 75.8606 89.0553 75.3465 87.7181 74.5282L87.3216 74.3155C87.2764 74.2901 87.2553 74.2831 87.2553 74.2944Z" fill="#F0FAFF"/>
<path d="M103.941 72.6338C103.995 72.6225 104.22 72.469 104.616 72.176C106.382 70.776 107.654 69.7859 108.431 69.2042C109.083 68.7211 109.709 68.3197 110.307 68C110.882 67.6775 111.544 67.4169 112.294 67.2197C112.608 67.1423 112.882 67.0887 113.118 67.0563C113.158 67.0394 113.635 66.9873 114.548 66.8986C114.642 66.8873 114.728 66.8718 114.804 66.8535C113.95 66.7254 113.11 66.731 112.284 66.8704C111.425 67.0324 110.672 67.2887 110.029 67.638C109.135 68.1197 108.149 68.8014 107.069 69.6817C105.723 70.8183 104.68 71.8028 103.941 72.6338Z" fill="#F0FAFF"/>
<path d="M118.147 67.8014L118.153 67.8042C118.233 67.8423 118.356 67.8902 118.524 67.9479C119.403 68.2366 119.914 68.4085 120.058 68.4662C120.367 68.5761 120.701 68.7099 121.056 68.8676C121.711 69.1549 122.384 69.5296 123.079 69.9916C123.612 70.3564 124.053 70.7479 124.403 71.1662C124.584 71.3507 125.03 71.9803 125.743 73.0549C125.195 71.4493 124.307 70.2479 123.078 69.4549C122.448 69.0338 121.676 68.669 120.764 68.3592C119.778 68.0423 118.905 67.8549 118.147 67.8014Z" fill="#F0FAFF"/>
<path d="M129.636 90.9521L129.663 91.0634C130.702 94.4775 132.214 96.5507 134.201 97.2817C135.134 97.6141 136.028 97.5592 136.883 97.1197C137.397 96.8606 137.896 96.5225 138.378 96.107C139.2 95.3831 139.702 94.8803 139.883 94.5986L139.624 94.7521C138.749 95.431 138.128 95.893 137.759 96.1366C137.318 96.4324 136.908 96.6549 136.529 96.8056C136.242 96.9296 135.897 97.0113 135.493 97.0493C135.11 97.062 134.73 97 134.355 96.8606C133.598 96.5901 132.867 96.0268 132.161 95.1732C131.745 94.6423 131.404 94.1437 131.14 93.6803C130.975 93.4183 130.562 92.6465 129.9 91.3648L129.665 90.969C129.659 90.9493 129.648 90.9437 129.636 90.9521Z" fill="#F0FAFF"/>
<path d="M142.094 83.7267H142.096C142.115 83.7296 142.188 83.5352 142.31 83.1408C142.918 80.8479 143.382 79.2676 143.706 78.4014C143.98 77.5958 144.399 76.807 144.965 76.0338C145.408 75.4084 146.109 74.7676 147.066 74.1141C147.889 73.5422 149.781 72.6282 152.744 71.3746L152.913 71.2718L152.616 71.3169C152.313 71.3944 151.99 71.4887 151.643 71.5986C148.102 72.7225 145.755 74.1056 144.601 75.7465C143.989 76.4915 143.451 77.5915 142.984 79.0451C142.765 79.762 142.578 80.5338 142.425 81.3606L142.179 82.8366C142.109 83.3831 142.087 83.6803 142.111 83.7282L142.094 83.7267Z" fill="#F0FAFF"/>
<path d="M163.773 74.6986L163.775 74.7028C163.824 74.7761 163.962 74.9352 164.183 75.1803L165.712 76.8014C165.998 77.1183 166.226 77.3789 166.393 77.5831C166.91 78.2 167.329 78.7775 167.648 79.3169C168.012 79.9549 168.294 80.5845 168.492 81.2028C168.621 81.5972 168.729 81.9479 168.813 82.2578C169.179 83.6578 169.413 84.5197 169.517 84.8423C169.713 85.4578 169.898 85.9493 170.076 86.3197C170.553 87.3718 171.373 88.5042 172.54 89.7155C172.886 90.0704 173.106 90.2732 173.198 90.3211L173.214 90.3296L173.09 90.107C171.735 88.3803 170.816 86.9254 170.337 85.7437C170.198 85.4071 170.063 85.0169 169.93 84.5732C169.372 82.4732 169.051 81.3254 168.965 81.131C168.739 80.4352 168.459 79.7958 168.125 79.2113C167.281 77.7099 165.829 76.2056 163.773 74.6986Z" fill="#F0FAFF"/>
<path d="M176.397 93.1648L176.405 93.1676C177.988 93.6564 179.351 93.8549 180.495 93.7634C181.627 93.6592 182.618 93.2747 183.466 92.6085C184.55 91.8056 185.717 90.5056 186.965 88.707C188.407 86.693 189.608 84.6394 190.57 82.5479C190.329 82.8493 190.066 83.2127 189.783 83.6366L186.991 87.8521C186.501 88.5676 186.127 89.0916 185.872 89.4211C184.841 90.7718 183.934 91.7225 183.151 92.2761C182.397 92.8592 181.516 93.2127 180.505 93.3352C179.946 93.3944 179.456 93.4113 179.037 93.3845C178.594 93.3676 177.818 93.2944 176.706 93.1634C176.491 93.1479 176.388 93.1493 176.397 93.1648Z" fill="#F0FAFF"/>
<path d="M191.769 79.7211L191.796 79.6986C191.955 79.5803 192.554 78.9056 193.593 77.6733C195.108 76.4211 196.061 75.6817 196.453 75.4535C197.009 75.0944 197.499 74.8352 197.924 74.6747C198.239 74.5366 199.059 74.2775 200.381 73.8986C200.837 73.7366 201.155 73.6099 201.336 73.5155C202.011 73.2141 202.851 72.6789 203.853 71.907C204.085 71.7197 204.227 71.593 204.275 71.5268C204.144 71.5732 204.008 71.6394 203.865 71.7225L202.294 72.607C201.914 72.8056 201.619 72.9507 201.405 73.0437C201.039 73.2028 200.745 73.3169 200.526 73.3859C198.847 73.8761 197.924 74.1676 197.758 74.2592C197.313 74.4225 196.789 74.6986 196.186 75.0859C195.245 75.7099 194.288 76.4887 193.311 77.4225C192.506 78.4817 191.992 79.2479 191.769 79.7211Z" fill="#F0FAFF"/>
<path d="M211.992 60.1225V60.1239C212.029 60.1197 212.217 59.9873 212.559 59.7267C213.985 58.5591 214.938 57.8042 215.421 57.4591C216.211 56.8831 216.771 56.5112 217.103 56.3422C218.207 55.6943 219.375 55.3563 220.607 55.3281C222.135 55.3112 223.584 55.6803 224.953 56.4366C225.523 56.745 226.105 57.1746 226.702 57.7267C226.913 57.8972 227.525 58.5746 228.54 59.7605C227.403 57.431 225.657 55.9296 223.302 55.2563C221.347 54.6915 219.53 54.7648 217.851 55.476C216.878 55.9028 215.953 56.4648 215.071 57.1648C213.898 58.1155 212.871 59.1014 211.992 60.1225Z" fill="#F0FAFF"/>
<path d="M228.595 65.3408V65.3479C228.576 67.0718 228.943 68.1085 229.699 68.4549C229.865 68.5409 230.104 68.6042 230.416 68.6451C230.703 68.6704 231.125 68.6521 231.678 68.5901C232.948 68.3042 233.738 68.0803 234.051 67.9155L233.876 67.9493C233.608 67.9479 233.379 67.9563 233.19 67.9747C233.082 67.9873 232.587 68.0718 231.707 68.2239L231.294 68.2437C230.905 68.2563 230.587 68.2451 230.335 68.2099C230.109 68.1789 229.934 68.131 229.807 68.0648C229.537 67.9324 229.326 67.6775 229.173 67.3C229.111 67.1563 229.053 66.9944 228.998 66.8099L228.683 65.5634C228.639 65.4085 228.61 65.3338 228.595 65.3408Z" fill="#F0FAFF"/>
<path d="M239.665 91.6648L239.632 91.8226C238.945 96.069 239.287 98.9634 240.657 100.503C241.461 101.39 242.364 101.856 243.363 101.901C244.467 101.935 245.688 101.569 247.027 100.803L246.725 100.869L245.35 101.273C245.136 101.328 244.94 101.373 244.761 101.407C244.176 101.511 243.692 101.537 243.307 101.482C242.71 101.377 242.245 101.211 241.908 100.985C241.497 100.723 241.161 100.415 240.897 100.063C240.398 99.4366 240.065 98.5916 239.899 97.5296C239.82 96.9859 239.774 96.4226 239.756 95.8409C239.729 95.5662 239.718 94.4057 239.721 92.3592C239.719 92.2071 239.709 92.0014 239.689 91.7423C239.688 91.6648 239.68 91.6395 239.665 91.6648Z" fill="#F0FAFF"/>
<path d="M250.75 85.469L250.844 85.4366C252.754 84.5958 255.018 83.4014 257.638 81.8549C259.606 79.8817 260.89 78.4437 261.49 77.5394C262.214 76.5 262.71 75.3042 262.981 73.9521L262.862 74.1549C262.392 75.1775 262.084 75.8028 261.941 76.0338C261.695 76.4718 261.412 76.907 261.091 77.338C260.447 78.2437 259.197 79.631 257.344 81.5014C257.269 81.5718 257.123 81.669 256.906 81.7887C254.72 82.9986 253.464 83.7099 253.14 83.9211C252.276 84.4366 251.48 84.9521 250.75 85.469Z" fill="#F0FAFF"/>
<path d="M271.788 65.1253L271.79 65.1268C271.929 65.1437 272.131 65.1493 272.399 65.1437C274.279 65.0761 275.379 65.0507 275.702 65.0662C276.673 65.0845 277.368 65.1239 277.79 65.1845C278.963 65.3014 280.182 65.693 281.449 66.3591C282.501 66.907 283.538 67.7352 284.559 68.8437C284.885 69.1915 285.335 69.7958 285.914 70.6549C286.161 71.0197 286.662 71.8704 287.416 73.2084C287.475 73.3084 287.547 73.4113 287.633 73.5155C286.519 69.9521 284.423 67.3789 281.345 65.7944C278.91 64.5253 275.725 64.3028 271.788 65.1253Z" fill="#F0FAFF"/>
<path d="M286.814 101.055L286.775 101.185C286.564 102.008 286.398 102.97 286.279 104.07C286.19 104.875 286.169 105.641 286.219 106.369C286.261 107.144 286.394 107.924 286.618 108.708C286.826 109.401 287.086 110.01 287.398 110.531C288.056 111.623 288.857 112.324 289.796 112.635C290.781 112.994 292.103 113.079 293.763 112.887C292.196 112.738 291.361 112.645 291.258 112.607C290.714 112.515 290.238 112.377 289.828 112.194C289.054 111.876 288.382 111.246 287.806 110.306C287.215 109.268 286.855 108.094 286.728 106.783C286.672 106.192 286.651 105.528 286.666 104.793C286.666 104.38 286.721 103.328 286.829 101.637L286.832 101.085C286.837 101.056 286.831 101.046 286.814 101.055Z" fill="#F0FAFF"/>
<path d="M296.933 64.4422L296.94 64.4352L298.317 62.4859C298.614 62.0929 298.952 61.7268 299.333 61.3859C300.017 60.7549 300.928 60.2986 302.063 60.0169C303.081 59.7789 304.13 59.738 305.21 59.893C305.716 59.9606 306.287 60.0803 306.925 60.2507C307.186 60.3211 307.463 60.4028 307.759 60.4944C308.99 60.9028 309.746 61.1408 310.028 61.2084C308.546 60.3915 307.092 59.8282 305.665 59.5197C305.033 59.4 304.427 59.3451 303.847 59.3577C303.115 59.3732 302.464 59.4535 301.89 59.6C300.675 59.9014 299.705 60.407 298.98 61.1169C298.089 62.0282 297.408 63.1366 296.933 64.4422Z" fill="#F0FAFF"/>
<path d="M313.189 75.4112L313.18 75.5662C313.175 77.0634 313.287 78.5211 313.513 79.9408C313.644 80.6479 313.786 81.2155 313.941 81.6422C314.062 81.9958 314.226 82.3267 314.434 82.638C315.242 83.8183 316.656 84.0972 318.677 83.476C317.712 83.5282 317.184 83.5465 317.097 83.5296C316.723 83.5141 316.418 83.4704 316.18 83.4014C315.658 83.2845 315.212 82.962 314.844 82.4324C314.529 81.9296 314.3 81.3521 314.157 80.6986C313.985 80.0014 313.718 78.4634 313.355 76.0859C313.332 75.9591 313.292 75.7662 313.23 75.5084C313.21 75.4126 313.197 75.3802 313.189 75.4112Z" fill="#F0FAFF"/>
<path d="M327.532 62.4451C327.553 62.4535 327.704 62.3916 327.983 62.2606C329.472 61.507 330.243 61.1282 330.291 61.1225C330.825 60.8761 331.405 60.6479 332.029 60.4352C332.894 60.1225 333.941 59.9155 335.172 59.8141C336.781 59.7169 338.298 59.8394 339.719 60.1789C340.452 60.3535 341.16 60.569 341.845 60.8239C342.315 60.9718 343.622 61.4958 345.767 62.3972C345.894 62.4507 346.052 62.5 346.239 62.5479C346.025 62.3352 345.235 61.8901 343.871 61.2127C340.946 59.7718 338.034 59.1577 335.13 59.3718C334.527 59.4113 333.901 59.5 333.252 59.6352C332.703 59.7451 332.074 59.9338 331.363 60.2056C330.758 60.4479 330.116 60.7662 329.439 61.162C328.613 61.6479 327.978 62.0746 327.532 62.4451Z" fill="#F0FAFF"/>
<path d="M352.481 68.4127L352.521 68.5268C353.993 71.9662 355.481 74.2296 356.984 75.3141C357.557 75.7239 358.255 75.8789 359.078 75.7803C359.911 75.6549 360.872 75.2563 361.956 74.5831C361.841 74.6071 361.743 74.6338 361.659 74.6634C360.701 75.0042 360.154 75.1873 360.015 75.2155C359.608 75.3268 359.256 75.393 358.959 75.4127C358.601 75.4366 358.288 75.4042 358.019 75.3169C357.838 75.2732 357.581 75.1493 357.247 74.9451C356.792 74.6676 356.246 74.1 355.609 73.2423C355.241 72.7592 354.329 71.3268 352.873 68.9437L352.559 68.4902L352.497 68.4099L352.481 68.4127Z" fill="#F0FAFF"/>
<path d="M365.663 65.4902H365.664C365.684 65.4972 365.819 65.324 366.074 64.9719C367.188 63.293 368.025 62.0803 368.586 61.3352C369.055 60.7042 369.548 60.1352 370.068 59.6268C370.509 59.1775 371.191 58.6451 372.109 58.0296C372.489 57.762 373.422 57.2211 374.906 56.407C375.023 56.3366 375.127 56.2662 375.215 56.1944C374.429 56.4 373.357 56.8718 371.999 57.6127C371.361 57.9408 370.597 58.5155 369.706 59.3366C368.92 60.1197 368.216 60.9859 367.598 61.9352C366.769 63.2296 366.124 64.4141 365.663 65.4902Z" fill="#F0FAFF"/>
</g>
<g clip-path="url(#clip1_9_1737)">
<path d="M-40.2349 -33.4763H96.0443V104.555H-40.2349V-33.4763Z" fill="#F0FAFF"/>
<path d="M-40.2349 -33.4763H96.0443V104.555H-40.2349V-33.4763Z" fill="#F0FAFF"/>
<path d="M-40.2349 -33.4763H96.0443V104.555H-40.2349V-33.4763Z" fill="#95DCFF"/>
<path d="M20.9204 21.5769C21.3723 21.5074 21.6787 21.0533 21.9756 20.6148L21.9922 20.5884C22.4677 19.8851 22.9681 19.5616 23.4815 19.6275C23.9263 19.6838 24.3049 20.0253 24.6089 20.6412C24.6409 20.7059 24.6728 20.7718 24.7047 20.8389C24.8704 21.1899 25.0277 21.5218 25.3069 21.7183C25.4003 21.7794 25.5021 21.8226 25.6109 21.8477C25.7209 21.8741 25.8309 21.8801 25.9421 21.8669C26.0522 21.8537 26.1586 21.8214 26.258 21.771C26.3585 21.7195 26.4473 21.6536 26.5242 21.5721C26.7761 21.287 26.8388 20.8532 26.8672 20.507C26.8731 20.4351 26.8779 20.3632 26.8826 20.2913C26.9063 19.9294 26.9311 19.5556 27.0743 19.2045C27.2505 18.7792 27.6776 18.3442 28.217 18.3898C28.7387 18.4353 29.0877 18.9098 29.2024 19.3579C29.2888 19.6982 29.2758 20.0445 29.2604 20.3776C29.2568 20.4674 29.2533 20.5561 29.2521 20.6459C29.2474 20.9551 29.2687 21.3996 29.5076 21.7004C29.6023 21.8202 29.7218 21.9088 29.8637 21.964C30.0069 22.0203 30.1535 22.037 30.305 22.0131C30.4552 21.9903 30.5901 21.9304 30.7095 21.8334C30.829 21.7363 30.9166 21.6165 30.9722 21.4727C31.0171 21.3397 31.0467 21.2031 31.0633 21.0641C31.0798 20.9359 31.1058 20.8101 31.139 20.6867C31.236 20.3548 31.4986 20.0217 31.8712 20.0217H31.8783C32.2025 20.0253 32.4438 20.2877 32.5597 20.5309C32.6118 20.6436 32.6544 20.7586 32.6899 20.8772C32.7194 20.979 32.7561 21.0785 32.7987 21.1743C32.8779 21.3361 32.9903 21.4691 33.137 21.5733C33.2825 21.6776 33.4446 21.7411 33.622 21.7639C34.0077 21.8082 34.6512 21.6644 34.8677 21.4356L35.6769 18.6522C34.4596 17.1904 31.204 16.2654 27.3239 16.2845C27.0352 16.2845 26.7525 16.2941 26.4721 16.3061C26.4532 16.3145 26.4343 16.3205 26.413 16.3229H26.3952C26.3727 16.3229 26.3526 16.3181 26.3325 16.3109C23.0344 16.4738 20.3431 17.3557 19.2867 18.6474L20.2248 21.6033C20.4578 21.6165 20.6897 21.6069 20.9204 21.5769Z" fill="#27AAE1"/>
<path d="M35.6769 18.6498C34.4596 17.188 31.204 16.263 27.3239 16.2822C27.0352 16.2822 26.7525 16.2917 26.4721 16.3037C26.4532 16.3133 26.4343 16.3181 26.413 16.3205H26.394C26.3727 16.3205 26.3526 16.3157 26.3325 16.3085C25.1838 16.3588 24.0505 16.5158 22.9326 16.7794C22.9326 16.7794 35.781 15.4434 34.8677 21.432L35.6769 18.6498Z" fill="#F0FAFF"/>
<path d="M28.8783 20.3632C28.8901 20.0433 28.9019 19.7413 28.8298 19.4549C28.7505 19.1494 28.5151 18.8067 28.1827 18.778C27.8503 18.748 27.5557 19.0452 27.4303 19.3531C27.312 19.6467 27.2884 19.9726 27.2659 20.3176C27.2612 20.3919 27.2564 20.465 27.2505 20.5393C27.2174 20.9455 27.1381 21.4595 26.8104 21.831C26.7028 21.9484 26.5774 22.043 26.4354 22.1161C26.2947 22.1892 26.1444 22.2347 25.9859 22.2539C25.8286 22.2731 25.6724 22.2635 25.5174 22.2264C25.3625 22.1892 25.2193 22.1269 25.0868 22.0382C24.7237 21.783 24.5368 21.3888 24.3558 21.0066C24.3262 20.9419 24.2978 20.8784 24.2635 20.8149C24.021 20.3224 23.7418 20.0528 23.433 20.0133C23.0746 19.969 22.6972 20.235 22.3104 20.8077L22.2926 20.8341C21.9661 21.3181 21.5959 21.8669 20.9784 21.9616C20.769 21.9891 20.5608 21.9999 20.3502 21.9939L20.7027 23.107C22.799 22.5894 25.1389 22.3642 27.2505 22.3522C29.8779 22.3366 32.3172 22.6254 34.3638 23.1574L34.7068 21.9795C34.3425 22.1221 33.9651 22.1784 33.5747 22.1473C33.3322 22.1161 33.1122 22.0287 32.9134 21.8861C32.7147 21.7423 32.5609 21.5602 32.4521 21.3397C32.4012 21.2271 32.3586 21.1132 32.3243 20.9946C32.2947 20.894 32.2581 20.7945 32.2143 20.6987C32.1504 20.5657 32.0238 20.4099 31.8748 20.4087C31.708 20.4039 31.566 20.6004 31.5092 20.7945C31.4808 20.9024 31.4595 21.0126 31.4453 21.1228C31.4252 21.2906 31.3874 21.4547 31.3318 21.6141C31.2502 21.8214 31.1224 21.9951 30.9497 22.1341C30.7781 22.2743 30.583 22.3618 30.3641 22.3977C30.305 22.4073 30.2446 22.4109 30.1843 22.4109C29.995 22.4109 29.8152 22.3689 29.6437 22.2875C29.4733 22.206 29.3278 22.091 29.2083 21.9436C28.8913 21.5446 28.8629 21.0078 28.8688 20.6376C28.8712 20.5477 28.8747 20.4554 28.8783 20.3632Z" fill="#F0FAFF"/>
<path d="M27.3215 15.8939C27.4847 15.8939 27.6527 15.8939 27.8231 15.8975C27.7415 13.5611 28.0727 12.0094 28.1981 11.5182C26.9039 10.9538 26.0226 11.36 25.715 11.5493C26.1894 12.6768 26.4887 15.187 26.5668 15.9119C26.8211 15.9023 27.0743 15.8963 27.3215 15.8939Z" fill="#F0FAFF"/>
<path d="M26.0829 9.43331C26.4295 9.71129 26.7596 9.81433 27.2221 9.78557C27.3759 9.77958 27.5214 9.74124 27.6586 9.67295C27.8704 9.56271 28.0502 9.41294 28.1957 9.22243C28.3424 9.03191 28.4418 8.81863 28.4938 8.58379C28.579 8.21355 28.5553 7.50901 28.4453 7.16034C28.1413 6.21497 27.7485 5.53919 27.2907 4.75677L27.2588 4.70285L26.898 5.62306C26.814 5.83274 26.7537 6.04962 26.7158 6.27248C26.6685 6.55645 26.6732 6.76494 26.7312 6.93628C26.7406 6.95904 26.7501 6.98181 26.7572 7.00457C26.7738 7.04891 26.7738 7.09204 26.7548 7.13518C26.7359 7.17951 26.704 7.20947 26.6602 7.22624C26.6164 7.24301 26.5738 7.24301 26.5301 7.22384C26.4875 7.20467 26.4579 7.17232 26.4402 7.12799C26.4307 7.10762 26.4224 7.08605 26.4153 7.06448C26.3384 6.90992 26.2237 6.79249 26.0711 6.71461C26.1148 6.94946 26.0995 7.17951 26.0238 7.40477C25.9788 7.53897 25.9256 7.66957 25.8664 7.79897C25.7836 7.96912 25.7197 8.14765 25.6783 8.33217C25.6416 8.53946 25.6606 8.74075 25.7327 8.93845C25.8061 9.13496 25.922 9.29911 26.0829 9.43331Z" fill="#F7941D"/>
<path d="M19.5245 29.6288C21.1534 27.623 22.5458 28.5109 23.7725 29.2933C25.0431 30.1021 27.0033 29.8936 28.4335 28.7937C29.8259 27.7261 31.1756 28.5636 32.3657 29.3053C32.6331 29.4718 32.8862 29.63 33.1335 29.763C33.8941 30.1716 34.4099 29.8852 35.0061 29.5545C35.7337 29.1507 36.5582 28.693 37.7731 29.8241L37.7802 29.8325C37.9103 29.9655 38.3102 30.307 38.6154 30.271C38.7266 30.2578 38.8177 30.1895 38.8946 30.0625C39.466 29.1124 39.395 26.6621 39.3784 26.2403C37.656 24.0824 32.9075 22.708 27.2541 22.7392C21.8005 22.7692 17.2425 24.1351 15.5958 26.2247C15.7602 27.7321 16.2476 30.15 16.8994 30.4795C17.0106 30.525 18.3924 31.0223 19.5245 29.6288Z" fill="#27AAE1"/>
<path d="M21.364 32.0707C16.2405 33.0496 12.8418 34.9416 12.2775 35.2711C12.2574 35.6413 12.2219 36.9462 12.6561 37.6279C12.7058 37.6567 12.7365 37.6986 12.7495 37.7537C13.2499 38.3528 14.259 38.3013 14.9937 38.0641C15.6348 37.858 16.1506 37.2996 16.6486 36.7592C16.7717 36.6262 16.8971 36.4884 17.0237 36.3602C17.6069 35.7635 18.3332 35.0207 19.276 34.7403C20.3821 34.412 21.4941 34.7798 22.5683 35.1357C23.4839 35.4388 24.4315 35.7528 25.3459 35.6162C26.0332 35.5143 26.6886 35.1597 27.3239 34.8158C28.1721 34.3581 29.0486 33.8836 30.0329 33.9794C31.4702 34.1208 32.4379 35.3861 33.2908 36.504L33.4446 36.7065C34.113 37.5752 35.4438 38.9615 36.8421 38.5086C37.2656 38.3708 37.6655 38.0641 38.0523 37.7681C38.6852 37.2816 39.3394 36.7808 40.1403 36.9845C40.6702 37.1199 41.0334 37.5273 41.3824 37.9215C41.4569 38.0042 41.5291 38.0868 41.6036 38.1659C41.9715 38.5589 42.5216 38.8992 42.9605 38.6811C42.977 38.6727 42.9936 38.668 43.0113 38.6644C43.0113 38.6644 43.9175 38.3864 43.3189 35.2879C34.4821 30.851 26.5052 31.0882 21.364 32.0707Z" fill="#27AAE1"/>
<path d="M21.2753 31.6921C24.6018 31.0523 27.9485 30.9145 31.3152 31.2799C33.4198 31.5124 35.4852 31.9341 37.5129 32.5476L38.0961 30.537C37.8772 30.4256 37.682 30.2818 37.5081 30.1069C36.4979 29.1687 35.8922 29.5054 35.1907 29.8948C34.5838 30.2315 33.8977 30.6125 32.9525 30.1057C32.6934 29.9667 32.4367 29.8085 32.1634 29.636C31.0254 28.9279 29.8483 28.1946 28.6654 29.1016C27.0873 30.3154 24.991 30.5262 23.5667 29.6204C22.1152 28.6954 21.1392 28.2509 19.8226 29.8744C19.0891 30.7767 18.2433 30.9816 17.6246 30.9816C17.4519 30.9816 17.2804 30.966 17.11 30.9348L17.64 32.5991C18.8348 32.2301 20.0474 31.9269 21.2753 31.6921Z" fill="#F0FAFF"/>
<path d="M41.3256 38.4331C41.2487 38.3516 41.173 38.2654 41.0973 38.1803C40.772 37.8136 40.4644 37.4686 40.0468 37.3607C39.4257 37.2014 38.8709 37.6267 38.2865 38.0772C37.8748 38.3936 37.449 38.7207 36.9616 38.8788C35.3374 39.4048 33.8716 37.8927 33.1406 36.9438L32.9844 36.7401C32.1398 35.6341 31.2655 34.4899 29.995 34.3665C29.1267 34.2826 28.3388 34.7079 27.5048 35.1597C26.8412 35.5155 26.1527 35.8894 25.4015 36.0008C24.396 36.1506 23.4058 35.8235 22.4476 35.5047C21.3806 35.1489 20.3738 34.8182 19.3813 35.1129C18.5343 35.3645 17.8482 36.0679 17.2945 36.6334C17.1739 36.7568 17.0544 36.8874 16.9278 37.024C16.399 37.6016 15.8454 38.1971 15.106 38.4343C14.4187 38.6572 13.5066 38.7267 12.8548 38.342L14.0496 45.0483C23.0355 47.6987 33.7758 47.7011 41.4841 45.0543L42.5665 39.1341C42.1075 39.0909 41.6533 38.7818 41.3256 38.4331Z" fill="#F0FAFF"/>
<path d="M26.8802 9.78675C26.5372 9.66813 26.2639 9.4225 26.1669 9.14092C26.0853 8.90368 26.1255 8.65446 26.1669 8.41482L26.3183 7.55212C26.5502 7.71148 26.7075 7.92716 26.788 8.19795C27.2694 7.81453 27.5072 7.21663 27.5392 6.66187C28.1993 7.51737 28.2584 8.6269 27.719 9.47642C27.6445 9.60582 27.5463 9.71246 27.4244 9.79633C27.2907 9.88021 27.0435 9.84187 26.8802 9.78675Z" fill="#FFF200"/>
<path d="M36.4505 37.4146C36.2104 37.4734 35.8945 37.5333 35.6497 37.4626C35.3362 37.3727 35.0724 37.0768 34.8381 36.8587C34.4016 36.4477 34.0101 35.9816 33.5534 35.5934C33.5333 35.5766 33.512 35.5754 33.4907 35.5922C33.4706 35.6078 33.4647 35.6281 33.4754 35.6533C33.8504 36.371 35.6473 38.9567 36.5215 37.5045C36.5334 37.4805 36.531 37.4578 36.5144 37.4362C36.4979 37.4158 36.4766 37.4087 36.4505 37.4146Z" fill="#F0FAFF"/>
<path d="M37.611 37.1355C37.5945 37.0756 37.5637 37.0228 37.5199 36.9785L37.449 36.9234C37.3946 36.891 37.3354 36.8743 37.2715 36.8743C37.2017 36.8743 37.1367 36.8934 37.0775 36.933C37.0184 36.9725 36.9758 37.0264 36.9509 37.0935C36.9273 37.1355 36.9178 37.1822 36.9202 37.2301C36.9237 37.2613 36.9285 37.2936 36.9332 37.3248C36.9498 37.3847 36.9793 37.4374 37.0231 37.4818L37.0941 37.5369C37.1485 37.5692 37.2076 37.586 37.2703 37.586C37.3177 37.5848 37.3614 37.574 37.404 37.556C37.4466 37.5369 37.4845 37.5117 37.5176 37.4782C37.5507 37.4458 37.5755 37.4075 37.5945 37.3643C37.6122 37.3212 37.6229 37.2769 37.6241 37.2301L37.611 37.1355Z" fill="#F0FAFF"/>
<path d="M34.9375 28.3755C34.7139 28.3899 34.5767 28.4881 34.3862 28.5936C34.1283 28.7373 33.8527 28.802 33.5582 28.7889C32.8933 28.7613 32.5325 28.2209 31.9789 27.9525C31.9446 27.9346 31.9138 27.9393 31.8866 27.9681C31.8582 27.9957 31.8535 28.0268 31.8724 28.0616C32.167 28.6786 32.9182 29.219 33.5913 29.3041C34.0976 29.3676 35.057 29.1435 35.0523 28.4929C35.0523 28.4606 35.0404 28.433 35.0179 28.4102C34.9955 28.3875 34.9694 28.3767 34.9375 28.3755Z" fill="#F0FAFF"/>
<path d="M36.0412 28.2149C36.0259 28.1586 35.9963 28.1083 35.9549 28.0663L35.8875 28.0136C35.8354 27.9825 35.7786 27.9669 35.7183 27.9669C35.6733 27.9657 35.6308 27.9753 35.5905 27.9969C35.5042 28.0292 35.4462 28.0879 35.4131 28.1742C35.3918 28.2149 35.3823 28.2581 35.3847 28.3048C35.3894 28.3335 35.393 28.3635 35.3965 28.3935C35.4119 28.451 35.4415 28.5013 35.4829 28.5432L35.5503 28.5959C35.6024 28.6271 35.6591 28.6427 35.7195 28.6427C35.7644 28.6439 35.8082 28.6343 35.8484 28.6127C35.9336 28.5804 35.9927 28.5217 36.0247 28.4354C36.046 28.3946 36.0554 28.3515 36.0531 28.3048L36.0412 28.2149Z" fill="#F0FAFF"/>
<path d="M30.6409 21.178C30.6208 21.1132 30.5771 21.0797 30.5096 21.0773C30.4505 21.0737 30.3263 21.0773 30.2742 21.0462C30.1867 20.9994 30.1382 20.8485 30.098 20.749C30.0009 20.4986 29.9477 20.2338 29.8779 19.9786C29.8696 19.9498 29.8519 19.9342 29.8223 19.9306C29.7939 19.927 29.7726 19.9378 29.7573 19.9618C29.5053 20.3584 29.4875 21.0126 29.7726 21.4008C29.9087 21.5853 30.1571 21.7099 30.3878 21.6452C30.4375 21.6333 30.4812 21.6129 30.5215 21.5817C30.5617 21.5506 30.5936 21.5134 30.6185 21.4691C30.6421 21.4236 30.6563 21.3769 30.6599 21.3253C30.6646 21.275 30.6575 21.2259 30.6409 21.178Z" fill="#F0FAFF"/>
<path d="M34.2656 20.6699C34.2407 20.725 34.2064 20.7742 34.1638 20.8173C34.1212 20.8604 34.0727 20.8952 34.0171 20.9203C33.9627 20.9443 33.9048 20.9599 33.8444 20.9635C33.7841 20.9671 33.725 20.9599 33.667 20.9419C33.4174 20.8688 33.2553 20.64 33.1181 20.4291C33.1027 20.3991 33.079 20.3895 33.0471 20.3979C33.014 20.4063 32.9986 20.4279 33.001 20.4614C32.9856 21.3337 34.191 21.6117 34.6051 20.8712C34.7352 20.6448 34.3732 20.4387 34.2656 20.6699Z" fill="#F0FAFF"/>
<path d="M21.422 17.2539C20.4709 17.6301 19.7339 18.101 19.2879 18.6462L20.226 21.6021C20.4578 21.6153 20.6897 21.6069 20.9204 21.5769C21.3723 21.5075 21.6787 21.0533 21.9756 20.6148L21.9922 20.5884C22.4677 19.8851 22.9681 19.5616 23.4815 19.6275C21.1688 18.8714 21.422 17.2539 21.422 17.2539Z" fill="#1C75BC"/>
<path d="M27.2517 22.3522C28.0833 22.3474 28.8972 22.3726 29.6839 22.4277C29.6673 22.3726 29.6449 22.321 29.6153 22.2731C29.4721 22.2 29.3467 22.103 29.2415 21.9808C28.9694 21.8849 28.6452 21.9077 28.3542 21.849C27.7852 21.7339 27.4469 21.3229 27.2162 20.8449C27.1665 21.1816 27.0612 21.5482 26.8116 21.831C26.7028 21.9484 26.5786 22.0431 26.4366 22.1161C26.2947 22.1892 26.1444 22.2348 25.9871 22.2539C25.8286 22.2731 25.6724 22.2635 25.5174 22.2264C25.3637 22.1892 25.2193 22.1269 25.0868 22.0383C24.7248 21.7831 24.5368 21.3888 24.3569 21.0066C24.3262 20.9419 24.2978 20.8784 24.2647 20.8149C24.0222 20.3225 23.7418 20.0529 23.4342 20.0133C23.0746 19.969 22.6972 20.235 22.3116 20.8077L22.2938 20.8341C21.9673 21.3182 21.5959 21.8669 20.9784 21.9616C20.7701 21.9891 20.5608 21.9999 20.3502 21.9939L20.7039 23.1071C22.8001 22.5894 25.1424 22.3642 27.2517 22.3522Z" fill="#E6E7E8"/>
<path d="M26.2935 21.1133C26.0131 21.2582 25.7966 21.2475 25.5517 21.0246C25.366 20.8544 25.1992 20.6484 25.0229 20.4686C24.9875 20.4327 24.9129 20.4686 24.933 20.5213C25.0762 20.8964 25.2643 21.3589 25.6665 21.5158C25.9327 21.6189 26.4094 21.5386 26.3798 21.1636C26.3798 21.142 26.3692 21.1252 26.3502 21.1133C26.3313 21.1025 26.3124 21.1025 26.2935 21.1133Z" fill="#F0FAFF"/>
<path d="M22.5079 23.1346C19.2583 23.6858 16.735 24.7809 15.5958 26.2259C15.7602 27.7345 16.2476 30.1512 16.8994 30.4807C17.0106 30.5251 18.3924 31.0223 19.5245 29.6288C21.1534 27.623 22.5458 28.5109 23.7726 29.2933C25.0431 30.1021 27.0033 29.8936 28.4335 28.7937C22.3139 30.0398 22.5079 23.1394 22.5079 23.1346Z" fill="#1C75BC"/>
<path d="M34.4111 31.7652C35.4497 31.9761 36.4837 32.2373 37.5129 32.5476L37.8228 31.4788C36.6978 31.7292 35.5609 31.8251 34.4111 31.7652Z" fill="#E6E7E8"/>
<path d="M28.2111 29.4575L28.1614 29.4467C26.6626 30.3477 24.8443 30.4352 23.5667 29.624C22.1164 28.699 21.1404 28.2545 19.8226 29.878C19.0891 30.7803 18.2433 30.9851 17.6246 30.9851C17.4519 30.9851 17.2804 30.9696 17.1112 30.9384L17.64 32.6027C19.8522 31.9185 22.1093 31.4644 24.4114 31.2416C26.7146 31.0187 29.0155 31.0319 31.3152 31.2799C31.5234 31.3027 31.7304 31.329 31.9375 31.3554C29.5467 30.6844 28.2111 29.4575 28.2111 29.4575Z" fill="#E6E7E8"/>
<path d="M25.715 11.5481C26.1894 12.6756 26.4887 15.1858 26.5668 15.9107C26.8211 15.9011 27.0743 15.8951 27.3215 15.8927C27.4847 15.8927 27.6527 15.8927 27.8231 15.8963C27.7947 15.1367 27.8112 14.3782 27.8716 13.621C27.732 13.4916 27.5995 13.355 27.4753 13.21C27.2907 12.9787 27.1192 12.7056 27.0778 12.4108C26.8601 12.3233 26.6283 12.2239 26.5017 12.025C26.4272 11.8968 26.3917 11.7578 26.3964 11.6092C26.3988 11.4978 26.4118 11.3863 26.4343 11.2773C26.1787 11.324 25.9386 11.4139 25.715 11.5481Z" fill="#D1D3D4"/>
<path d="M38.6651 30.2602C38.768 30.2255 38.8437 30.1596 38.8946 30.0625C39.466 29.1136 39.395 26.6633 39.3784 26.2415C37.656 24.0824 32.9075 22.708 27.2541 22.7404C26.5289 22.744 25.8227 22.7715 25.133 22.8219C25.4713 22.8219 41.7018 22.9585 38.6154 30.2698L38.6651 30.2602Z" fill="#F0FAFF"/>
<path d="M43.3201 35.2854C36.6907 31.9617 30.5475 31.2619 25.7209 31.5339C25.7209 31.5339 44.3186 32.6566 43.0125 38.6643C43.0161 38.6631 43.9187 38.3864 43.3201 35.2854Z" fill="#F0FAFF"/>
<path d="M25.0797 27.7177C24.5498 27.2696 24.008 26.9149 23.6353 26.3086C23.4449 25.9995 23.2982 25.6712 23.1976 25.3213C23.1089 25.0086 23.1113 24.6851 23.0356 24.3723C23.0285 24.3496 23.0143 24.3388 22.9918 24.3388C22.9693 24.3388 22.9539 24.3496 22.948 24.3723C22.605 25.6256 23.7844 27.5415 25.023 27.8135C25.075 27.8267 25.1271 27.7572 25.0797 27.7177Z" fill="#F0FAFF"/>
<path d="M26.6578 28.2665C26.3633 28.1167 26.038 28.0376 25.7268 27.9382C25.6689 27.919 25.6417 28.0136 25.7008 28.0352C26.0025 28.149 26.3053 28.2892 26.6223 28.3503C26.6708 28.3599 26.7063 28.2916 26.6578 28.2665Z" fill="#F0FAFF"/>
<path d="M22.9683 18.3383C22.965 18.3383 22.9634 18.3397 22.9634 18.3427C22.9634 18.3456 22.965 18.3485 22.9683 18.3485C22.9715 18.3485 22.9732 18.3456 22.9732 18.3427C22.9732 18.3397 22.9715 18.3383 22.9683 18.3383Z" fill="#F0FAFF"/>
<path d="M19.3837 35.1117C18.5367 35.3633 17.8505 36.0667 17.2969 36.6322C17.1763 36.7568 17.0568 36.8862 16.9302 37.0228C16.4014 37.6004 15.8478 38.1971 15.1084 38.4343C14.4187 38.6572 13.5066 38.7267 12.8548 38.342L14.0496 45.0483C23.0355 47.6987 33.7758 47.7011 41.4841 45.0543C19.0738 49.9873 22.45 35.5047 22.45 35.5047C21.3829 35.1513 20.3762 34.8182 19.3837 35.1117Z" fill="#E6E7E8"/>
<path d="M16.7847 33.2881C14.259 34.158 12.6502 35.053 12.2775 35.2711C12.2574 35.6413 12.2219 36.9462 12.6561 37.6279C12.7058 37.6567 12.7365 37.6986 12.7495 37.7538C13.2499 38.3528 14.259 38.3013 14.9937 38.0641C15.6348 37.858 16.1506 37.2996 16.6486 36.7593C16.7717 36.6263 16.8971 36.4885 17.0237 36.3603C17.6069 35.7636 18.3332 35.0207 19.276 34.7403C15.5142 34.6852 16.7752 33.2965 16.7847 33.2881Z" fill="#1C75BC"/>
<path d="M26.9654 34.0669C26.2592 34.4779 25.7126 34.8469 24.8538 34.8481C23.9855 34.8481 23.2225 34.491 22.3766 34.3964C22.3175 34.3892 22.3021 34.4767 22.3471 34.5042C23.1468 35.0111 24.2789 35.2902 25.2205 35.198C25.9185 35.1309 26.7927 34.8613 27.0683 34.1472C27.0885 34.0873 27.0116 34.0393 26.9654 34.0669Z" fill="#F0FAFF"/>
<path d="M28.2986 33.6607C28.2927 33.6068 28.2714 33.5613 28.2336 33.5229C28.1851 33.4798 28.1295 33.4558 28.0644 33.4522C27.952 33.4379 27.8408 33.5157 27.7627 33.5876C27.732 33.6188 27.7166 33.6559 27.7166 33.6991C27.7166 33.7434 27.732 33.7805 27.7627 33.8117C27.8065 33.8524 27.8562 33.8836 27.9118 33.9075C27.9828 33.9327 28.0549 33.9387 28.1283 33.9243C28.1851 33.9087 28.23 33.8752 28.2631 33.8249C28.2951 33.7745 28.3069 33.7194 28.2986 33.6607Z" fill="#F0FAFF"/>
<path d="M43.3201 35.2854C34.4821 30.8485 26.504 31.0858 21.364 32.0695C21.364 32.0695 40.604 31.0307 43.0125 38.6619C43.0161 38.6631 43.9187 38.3864 43.3201 35.2854Z" fill="#F0FAFF"/>
<path d="M26.245 38.8932C26.245 39.0562 26.2367 39.2167 26.2201 39.3761C26.2036 39.5354 26.1776 39.69 26.1444 39.8398C26.1113 39.9896 26.0711 40.1321 26.0226 40.2663C25.9741 40.4017 25.9197 40.5264 25.8581 40.6414C25.7966 40.7564 25.7304 40.8583 25.6582 40.9481C25.5861 41.0392 25.5103 41.1147 25.4299 41.177C25.3495 41.2393 25.2678 41.286 25.1827 41.3184C25.0975 41.3495 25.0111 41.3651 24.9248 41.3651C24.8384 41.3651 24.7521 41.3495 24.6669 41.3184C24.5817 41.286 24.5001 41.2393 24.4196 41.177C24.3392 41.1147 24.2635 41.0392 24.1913 40.9481C24.1192 40.8583 24.0529 40.7564 23.9914 40.6414C23.9299 40.5264 23.8755 40.4017 23.827 40.2663C23.7785 40.1321 23.7382 39.9896 23.7051 39.8398C23.672 39.69 23.646 39.5354 23.6294 39.3761C23.6128 39.2167 23.6046 39.0562 23.6046 38.8932C23.6046 38.7315 23.6128 38.5709 23.6294 38.4115C23.646 38.2522 23.672 38.0976 23.7051 37.9478C23.7382 37.7981 23.7785 37.6555 23.827 37.5201C23.8755 37.3859 23.9299 37.2601 23.9914 37.1463C24.0529 37.0312 24.1192 36.9282 24.1913 36.8383C24.2635 36.7485 24.3392 36.6718 24.4196 36.6107C24.5001 36.5484 24.5817 36.5016 24.6669 36.4693C24.7521 36.4381 24.8384 36.4225 24.9248 36.4225C25.0111 36.4225 25.0975 36.4381 25.1827 36.4693C25.2678 36.5016 25.3495 36.5484 25.4299 36.6107C25.5103 36.6718 25.5861 36.7485 25.6582 36.8383C25.7304 36.9282 25.7966 37.0312 25.8581 37.1463C25.9197 37.2601 25.9741 37.3859 26.0226 37.5201C26.0711 37.6555 26.1113 37.7981 26.1444 37.9478C26.1776 38.0976 26.2036 38.2522 26.2201 38.4115C26.2367 38.5709 26.245 38.7315 26.245 38.8932Z" fill="#004266"/>
<path d="M32.3835 38.8932C32.3835 39.0562 32.3752 39.2167 32.3586 39.3761C32.3421 39.5354 32.316 39.69 32.2829 39.8398C32.2498 39.9896 32.2096 40.1321 32.1611 40.2663C32.1137 40.4017 32.0581 40.5264 31.9966 40.6414C31.9363 40.7564 31.8689 40.8583 31.7967 40.9481C31.7245 41.0392 31.6488 41.1147 31.5684 41.177C31.4891 41.2393 31.4063 41.286 31.3211 41.3184C31.236 41.3495 31.1496 41.3651 31.0633 41.3651C30.9769 41.3651 30.8905 41.3495 30.8054 41.3184C30.7214 41.286 30.6386 41.2393 30.5581 41.177C30.4777 41.1147 30.402 41.0392 30.3298 40.9481C30.2576 40.8583 30.1914 40.7564 30.1299 40.6414C30.0684 40.5264 30.0139 40.4017 29.9654 40.2663C29.9169 40.1321 29.8767 39.9896 29.8436 39.8398C29.8105 39.69 29.7856 39.5354 29.7679 39.3761C29.7513 39.2167 29.743 39.0562 29.743 38.8932C29.743 38.7315 29.7513 38.5709 29.7679 38.4115C29.7856 38.2522 29.8105 38.0976 29.8436 37.9478C29.8767 37.7981 29.9169 37.6555 29.9654 37.5201C30.0139 37.3859 30.0684 37.2601 30.1299 37.1463C30.1914 37.0312 30.2576 36.9282 30.3298 36.8383C30.402 36.7485 30.4777 36.6718 30.5581 36.6107C30.6386 36.5484 30.7214 36.5016 30.8054 36.4693C30.8905 36.4381 30.9769 36.4225 31.0633 36.4225C31.1496 36.4225 31.236 36.4381 31.3211 36.4693C31.4063 36.5016 31.4891 36.5484 31.5684 36.6107C31.6488 36.6718 31.7245 36.7485 31.7967 36.8383C31.8689 36.9282 31.9363 37.0312 31.9966 37.1463C32.0581 37.2601 32.1137 37.3859 32.1611 37.5201C32.2096 37.6555 32.2498 37.7981 32.2829 37.9478C32.316 38.0976 32.3421 38.2522 32.3586 38.4115C32.3752 38.5709 32.3835 38.7315 32.3835 38.8932Z" fill="#004266"/>
<path d="M29.743 42.0241C29.6981 42.0241 29.6555 42.0325 29.6141 42.0504C29.5727 42.0672 29.536 42.0924 29.5053 42.1235C29.4733 42.1559 29.4485 42.1918 29.4319 42.2338C29.4142 42.2757 29.4059 42.3188 29.4059 42.3644C29.4059 43.142 28.8286 43.7758 28.1176 43.7758C27.4078 43.7758 26.8294 43.142 26.8294 42.3644C26.8294 42.3188 26.8211 42.2757 26.8033 42.2338C26.7868 42.1918 26.7619 42.1559 26.73 42.1235C26.6992 42.0912 26.6626 42.0672 26.6212 42.0492C26.5798 42.0325 26.5372 42.0241 26.4922 42.0241C26.4473 42.0241 26.4047 42.0325 26.3633 42.0492C26.3219 42.0672 26.2852 42.0912 26.2544 42.1235C26.2225 42.1559 26.1977 42.1918 26.1811 42.2338C26.1634 42.2757 26.1551 42.3188 26.1551 42.3644C26.1551 43.517 27.0376 44.4564 28.1176 44.4564C29.1989 44.4564 30.0814 43.517 30.0814 42.3644C30.0814 42.3188 30.0719 42.2757 30.0553 42.2338C30.0376 42.1918 30.0139 42.1547 29.982 42.1235C29.9501 42.0912 29.9134 42.0672 29.872 42.0492C29.8306 42.0325 29.788 42.0241 29.743 42.0241Z" fill="#004266"/>
<path d="M43.8217 35.089C43.8217 35.0866 43.8217 35.0854 43.8217 35.0842C43.8217 35.0782 43.8217 35.0722 43.8169 35.0662C43.8134 35.0614 43.8146 35.0554 43.8122 35.0506C43.811 35.0458 43.8098 35.041 43.8075 35.0374L43.8004 35.0195C43.7992 35.0159 43.798 35.0123 43.7957 35.0087C43.7921 35.0015 43.7897 34.9955 43.7862 34.9895C43.785 34.9871 43.7826 34.9835 43.7815 34.9811L43.7684 34.9619C43.7673 34.9584 43.7649 34.956 43.7625 34.9536C43.759 34.9476 43.7542 34.9416 43.7483 34.9356L43.7424 34.9272L43.7199 34.9044L43.7022 34.8889L43.6951 34.8841L43.6738 34.8685H43.6691L43.6442 34.8553C41.8437 33.9423 39.9829 33.1802 38.0618 32.568L38.5728 30.8102C38.6071 30.8102 38.6426 30.809 38.6769 30.8042C38.8697 30.7827 39.1442 30.6856 39.3488 30.3429C40.0551 29.1663 39.9131 26.2739 39.9072 26.1516V26.1457C39.9072 26.1457 39.9072 26.1421 39.9072 26.1397C39.9048 26.1193 39.9025 26.1001 39.8966 26.0798C39.8906 26.0594 39.8835 26.0402 39.8729 26.021C39.8634 25.9995 39.8516 25.9803 39.8374 25.9611C38.8295 24.6623 37.0184 23.7565 34.9162 23.1622L35.3634 21.6261L36.2128 18.7037C36.2459 18.5923 36.2258 18.4904 36.1548 18.3994C34.7837 16.6272 31.2975 15.8915 28.3471 15.7681C28.2702 13.1333 28.7434 11.5265 28.747 11.5098C28.7718 11.4295 28.7671 11.3516 28.734 11.2737C28.7008 11.197 28.6464 11.1407 28.5707 11.1036C26.5656 10.1366 25.3069 11.1791 25.2536 11.2222C25.1945 11.2737 25.1566 11.3384 25.1401 11.4151C25.1247 11.493 25.1353 11.5673 25.1708 11.638C25.6073 12.5138 25.9137 14.8827 26.019 15.7969C23.1621 15.979 20.0698 16.7327 18.8052 18.4041C18.7331 18.4976 18.7153 18.6006 18.752 18.7133L19.7599 21.8909C19.7599 21.8933 19.7599 21.8957 19.7599 21.8981L20.1443 23.1046C17.9937 23.6978 16.1471 24.618 15.1321 25.9527L15.1261 25.9599V25.9635C15.1143 25.9803 15.1037 25.9971 15.0942 26.0151L15.0907 26.0222C15.0824 26.0402 15.0765 26.0594 15.0705 26.0774V26.0857C15.0658 26.1049 15.0635 26.1253 15.0623 26.1445C15.0623 26.1481 15.0623 26.1504 15.0623 26.1528C15.0611 26.1708 15.0611 26.1876 15.0623 26.2044C15.1321 26.8742 15.5177 30.132 16.5398 30.8845L17.0875 32.6171C13.8947 33.6571 12.0208 34.799 11.9132 34.8649V34.8697L11.8954 34.8817L11.8848 34.8901L11.8706 34.902L11.8363 34.9368L11.8174 34.9631C11.8138 34.9679 11.8103 34.9727 11.8079 34.9787L11.7961 34.9883C11.7937 34.9943 11.7901 34.9991 11.7878 35.0051C11.7854 35.0087 11.783 35.0135 11.7819 35.0171L11.7748 35.0362L11.7712 35.047L11.7665 35.0662C11.7653 35.071 11.7653 35.0758 11.7665 35.0806C11.7665 35.0866 11.7665 35.0926 11.7629 35.0985C11.7618 35.1033 11.7618 35.1093 11.7629 35.1141C11.7618 35.1177 11.7618 35.1213 11.7629 35.1237C11.7558 35.2028 11.6092 37.0432 12.2598 37.9802L13.5492 45.2592C13.5741 45.3958 13.6522 45.4845 13.7847 45.5252C18.3569 46.8899 23.3857 47.5681 28.2537 47.5681C33.1216 47.5681 37.837 46.8851 41.7633 45.5204C41.8863 45.4773 41.9609 45.391 41.9845 45.2604L43.0918 39.2071C43.1154 39.1976 43.1403 39.188 43.1639 39.1772C43.2704 39.1424 43.4845 39.043 43.6762 38.7614C44.1257 38.094 44.1742 36.8599 43.8217 35.089ZM30.8231 22.3929C31.1259 22.23 31.3401 21.9879 31.4666 21.668C31.5258 21.4979 31.566 21.3241 31.5873 21.1456C31.6015 21.0414 31.6204 20.9383 31.6465 20.8353C31.6902 20.6855 31.7943 20.5549 31.8712 20.5549C31.9351 20.5549 32.0262 20.6448 32.0818 20.7622C32.1232 20.8532 32.1563 20.9455 32.1847 21.0414C32.2214 21.1648 32.2675 21.2858 32.3208 21.4044C32.4402 21.6476 32.6094 21.8489 32.8294 22.0059C33.0483 22.1641 33.292 22.2599 33.5593 22.2947C33.8752 22.3186 34.1851 22.2887 34.4903 22.2048L34.2632 22.9896C33.1299 22.714 31.9824 22.5151 30.8231 22.3929ZM29.096 22.0371C29.1657 22.1233 29.2438 22.2 29.3314 22.2671C28.6157 22.224 27.9153 22.2048 27.2493 22.2084C27.0198 22.2084 26.788 22.212 26.5537 22.2192C26.6921 22.1437 26.814 22.0466 26.9181 21.928C27.2718 21.5242 27.3593 20.9791 27.3936 20.5513C27.3996 20.4782 27.4043 20.4027 27.409 20.3284C27.4315 19.9953 27.4528 19.6802 27.5628 19.4094C27.6657 19.1578 27.9153 18.9014 28.1685 18.9242C28.4228 18.9469 28.6204 19.2273 28.6878 19.4933C28.7553 19.7593 28.747 20.0493 28.7328 20.3584C28.7292 20.4519 28.7257 20.5465 28.7245 20.6388C28.7186 21.0294 28.7493 21.5997 29.096 22.0359V22.0371ZM28.0277 11.6068C27.894 12.1987 27.8006 12.7978 27.7474 13.4017C27.6231 13.331 27.577 13.1776 27.519 12.9464C27.4504 12.6708 27.3641 12.3293 27.0009 12.2059C26.659 12.0909 26.5443 11.6931 26.5111 11.4103C26.8968 11.342 27.409 11.3576 28.0277 11.6068ZM25.896 11.614C26.0025 11.5589 26.1148 11.5133 26.2296 11.4774C26.2757 11.8189 26.4248 12.3197 26.9086 12.4827C27.1085 12.5498 27.1677 12.7295 27.2399 13.0171C27.3037 13.2735 27.3877 13.603 27.7213 13.7048C27.6693 14.3854 27.6539 15.0684 27.674 15.7513C27.5569 15.7513 27.4386 15.7513 27.3215 15.7513C27.1156 15.7513 26.9074 15.7561 26.6957 15.7645C26.601 14.9246 26.323 12.7403 25.896 11.6116V11.614ZM26.3183 16.4571C26.3443 16.4631 26.3704 16.4667 26.3964 16.4667H26.4307C26.4567 16.4643 26.4816 16.4583 26.5052 16.4499C26.7749 16.4391 27.0482 16.4319 27.325 16.4307C31.0491 16.4104 34.3011 17.3114 35.5172 18.6857L34.7399 21.3565C34.5377 21.5338 33.9686 21.6524 33.6398 21.6153C33.486 21.5961 33.3476 21.541 33.221 21.4511C33.0956 21.3613 32.9986 21.2463 32.93 21.1073C32.8898 21.0174 32.8566 20.9251 32.8294 20.8305C32.7916 20.7047 32.7454 20.5825 32.691 20.4638C32.5183 20.1032 32.2084 19.8767 31.8819 19.8707H31.8736C31.4264 19.8707 31.1141 20.2554 31.0017 20.6424C30.9662 20.7742 30.9402 20.9072 30.9213 21.0426C30.9071 21.172 30.8799 21.2978 30.8385 21.4212C30.7923 21.5398 30.7202 21.6405 30.6208 21.7207C30.5226 21.801 30.4102 21.8501 30.2837 21.8705C30.1583 21.8897 30.0364 21.8765 29.9181 21.8298C29.7998 21.783 29.7005 21.71 29.6212 21.6093C29.4615 21.4092 29.3917 21.1037 29.3988 20.6496C29.3988 20.5609 29.4035 20.471 29.4071 20.3836C29.4213 20.0397 29.4343 19.6838 29.342 19.322C29.2143 18.8235 28.8215 18.2975 28.2288 18.2448C27.6196 18.1909 27.1346 18.6761 26.9406 19.1494C26.788 19.5233 26.7643 19.9091 26.7383 20.2817C26.7335 20.3536 26.7288 20.4243 26.7229 20.4962C26.6969 20.8185 26.6389 21.2223 26.4153 21.4763C26.1716 21.7531 25.6925 21.8106 25.3897 21.5997C25.1413 21.4248 24.9922 21.1109 24.8337 20.7766C24.8029 20.7095 24.771 20.6424 24.7379 20.5765C24.4114 19.9139 23.9949 19.546 23.4993 19.4837C22.9279 19.4106 22.3825 19.7557 21.8739 20.507L21.8561 20.5333C21.5769 20.9491 21.2895 21.3745 20.9003 21.4332C20.711 21.4583 20.5229 21.4667 20.3324 21.4595L19.4511 18.6785C20.5123 17.4528 23.1207 16.6164 26.3183 16.4571ZM20.5489 22.1401C20.7003 22.1389 20.8506 22.1269 20.9996 22.1066C21.681 22.0023 22.0856 21.3996 22.4109 20.9156L22.4287 20.8892C22.7812 20.3656 23.1124 20.1176 23.4129 20.1583C23.7335 20.199 23.9819 20.5741 24.1334 20.8796C24.1641 20.9419 24.1913 21.0054 24.2244 21.0701C24.4043 21.4499 24.6089 21.8801 25.0028 22.1581C25.0726 22.206 25.146 22.2479 25.2229 22.2827C23.73 22.3785 22.256 22.5954 20.7985 22.9345L20.5489 22.1401ZM15.746 26.2679C17.3963 24.2393 21.8857 22.9165 27.2541 22.8854H27.4421C32.9406 22.8854 37.5353 24.213 39.2365 26.293C39.2708 27.1473 39.2471 29.1939 38.7704 29.9859C38.6946 30.1141 38.6284 30.1213 38.5988 30.1248C38.3989 30.1488 38.0523 29.902 37.8843 29.7294L37.8713 29.7163C36.5783 28.5145 35.6686 29.0201 34.9363 29.4263C34.3531 29.7498 33.8929 30.005 33.2021 29.6336C32.9584 29.503 32.7076 29.346 32.4414 29.1807C31.2726 28.4534 29.8176 27.5463 28.3459 28.6774C26.9654 29.7414 25.0715 29.9487 23.8483 29.1723C22.6262 28.3971 21.1215 27.4337 19.4121 29.5389C18.364 30.8306 17.0899 30.4004 16.9562 30.3501C16.4535 30.0793 15.946 28.058 15.746 26.2679ZM17.3229 31.1217C17.4117 31.1301 17.5051 31.1361 17.6021 31.1361C18.3084 31.1361 19.198 30.8749 19.935 29.9667C21.2031 28.4066 22.1105 28.8656 23.491 29.745C24.965 30.6844 27.1298 30.4675 28.7541 29.219C29.8578 28.3719 30.9414 29.0453 32.0889 29.7606C32.3633 29.9319 32.6236 30.0925 32.885 30.2351C33.8988 30.7791 34.6548 30.3597 35.2616 30.023C35.9667 29.6312 36.4777 29.3484 37.4087 30.2123C37.5637 30.3681 37.7364 30.4999 37.9257 30.6101L37.4147 32.3667C35.4237 31.7736 33.3961 31.3638 31.3318 31.1361C27.9508 30.7695 24.59 30.9085 21.2493 31.5519C20.0627 31.7784 18.8916 32.0659 17.7346 32.4158L17.3229 31.1217ZM41.3587 44.9405C33.706 47.5429 23.0876 47.5394 14.1762 44.9309L13.0477 38.5985C13.7054 38.8573 14.5181 38.777 15.1545 38.5733C15.9282 38.3241 16.5161 37.6854 17.0355 37.1223C17.1609 36.9869 17.2804 36.8575 17.3998 36.7353C17.9405 36.1817 18.6136 35.4927 19.4251 35.2507C20.3727 34.9691 21.3593 35.2962 22.4038 35.6425C23.3774 35.9648 24.3853 36.2979 25.424 36.1434C26.2012 36.0247 26.8992 35.6509 27.5746 35.2855C28.3885 34.8457 29.1586 34.43 29.9856 34.5102C31.1934 34.6288 32.0475 35.7468 32.8732 36.8275L33.0294 37.0312C33.7817 38.0101 35.2995 39.5702 37.0065 39.0154C37.5176 38.8501 37.9529 38.5158 38.3752 38.1911C38.9561 37.7441 39.4589 37.3607 40.0125 37.4997C40.3875 37.5956 40.6809 37.9263 40.9908 38.2761C41.0677 38.3636 41.1446 38.4487 41.2215 38.5326C41.5338 38.8645 41.9561 39.1616 42.3974 39.2515L41.3587 44.9405ZM42.9735 38.5206C42.9392 38.5206 42.9368 38.5302 42.8978 38.5505C42.5287 38.7327 42.0271 38.4032 41.7101 38.0653C41.6367 37.9874 41.5646 37.9059 41.4912 37.8232C41.1446 37.4326 40.7507 36.9893 40.1769 36.8419C39.3086 36.6214 38.626 37.1451 37.9659 37.6519C37.5886 37.9406 37.2017 38.2402 36.7995 38.3696C35.4308 38.8129 34.0787 37.2912 33.5605 36.6154L33.4055 36.4142C32.5349 35.2735 31.5471 33.9806 30.0483 33.8344C29.0191 33.7326 28.1235 34.2191 27.2576 34.6876C26.6046 35.0398 25.9883 35.3729 25.327 35.4724C24.4445 35.603 23.5561 35.3082 22.6144 34.9967C21.5178 34.6336 20.3845 34.2586 19.2346 34.6001C18.2563 34.8901 17.5158 35.6485 16.9207 36.2572C16.7942 36.3878 16.6664 36.5256 16.5434 36.6598C16.0572 37.1858 15.5556 37.731 14.9487 37.9263C14.2176 38.1635 13.3174 38.1695 12.8797 37.6878C12.8584 37.6219 12.8182 37.5668 12.7626 37.5249C12.4254 36.9593 12.3946 35.9025 12.4195 35.3609C13.1447 34.9452 16.4759 33.1551 21.4042 32.2157C26.51 31.2416 34.4229 31.0079 43.1935 35.3897C43.6833 38.0006 43.0575 38.4714 42.9735 38.5206Z" fill="#004266"/>
<path d="M25.7895 9.80353C26.1633 10.1187 26.5951 10.2708 27.0825 10.2624C27.1369 10.2624 27.1925 10.26 27.2505 10.2565C27.4717 10.2469 27.6811 10.1917 27.8775 10.0899C28.1507 9.94851 28.3802 9.75561 28.5671 9.51118C28.7541 9.26674 28.8806 8.99356 28.9481 8.69161C29.0545 8.23271 29.0285 7.45029 28.8889 7.01654C28.5719 6.01965 28.1649 5.3235 27.6929 4.51712C27.6255 4.3985 27.5569 4.28227 27.4859 4.16125C27.4232 4.05222 27.3298 4.00309 27.2055 4.01268C27.0825 4.02226 26.9973 4.08457 26.9512 4.20199L26.4626 5.44811C26.3668 5.68895 26.297 5.93817 26.2532 6.19458C26.2497 6.21975 26.245 6.24491 26.2414 6.27127C26.0924 6.19698 25.935 6.14426 25.7718 6.11191C25.7055 6.09873 25.6428 6.10712 25.5813 6.13707C25.521 6.16703 25.476 6.21256 25.4465 6.27247C25.4169 6.33357 25.4074 6.39708 25.4204 6.46418C25.4334 6.53128 25.4654 6.58639 25.5151 6.63192C25.6558 6.75773 25.6464 7.03811 25.5742 7.25858C25.5364 7.37241 25.4867 7.48623 25.4334 7.60605C25.3353 7.80974 25.2607 8.02182 25.2122 8.24229C25.1614 8.53585 25.1886 8.82222 25.2915 9.10139C25.3944 9.38057 25.56 9.61422 25.7895 9.80353ZM25.799 8.35492C25.8404 8.17999 25.9007 8.01224 25.98 7.85048C26.0403 7.71868 26.0947 7.58329 26.142 7.44549C26.1894 7.29932 26.2154 7.15074 26.2213 6.99737C26.2509 7.03212 26.2757 7.07046 26.2958 7.1124C26.3029 7.13516 26.3124 7.15793 26.3219 7.1795C26.3538 7.25378 26.4058 7.3065 26.4804 7.33886C26.5537 7.37001 26.6282 7.37121 26.704 7.34125C26.7785 7.3125 26.8329 7.26097 26.866 7.18788C26.9003 7.1136 26.9039 7.03931 26.8779 6.96262C26.8696 6.93866 26.8601 6.9147 26.8506 6.89073C26.801 6.74216 26.7974 6.55045 26.84 6.29284C26.8767 6.07956 26.9358 5.87227 27.0163 5.67097L27.2813 4.99519C27.6929 5.69973 28.0455 6.33837 28.3223 7.20106C28.4276 7.53057 28.45 8.20155 28.3672 8.55502C28.3187 8.77069 28.2276 8.9672 28.0928 9.14333C27.9591 9.31827 27.7935 9.45726 27.5971 9.5591C27.4764 9.61901 27.3487 9.65136 27.2126 9.65616C26.6838 9.68851 26.3952 9.51956 26.161 9.33145C26.0178 9.21402 25.9149 9.06665 25.8498 8.89291C25.786 8.71797 25.7694 8.53824 25.8013 8.35492H25.799Z" fill="#004266"/>
<path d="M30.9769 27.6518C31.0313 27.6877 31.0916 27.7045 31.1567 27.7045C31.2797 27.7045 31.3756 27.6518 31.4418 27.5463L31.9801 26.6872C32.0061 26.6489 32.0227 26.6082 32.0309 26.5626C32.0392 26.5183 32.038 26.4728 32.0286 26.4284C32.0191 26.3841 32.0014 26.3434 31.9765 26.305C31.9505 26.2679 31.9186 26.2367 31.8795 26.2128C31.8417 26.1876 31.8003 26.172 31.7553 26.1648C31.7115 26.1564 31.6666 26.1588 31.6228 26.1684C31.579 26.1792 31.5376 26.1984 31.5021 26.2247C31.4655 26.2511 31.4347 26.2846 31.4111 26.323L30.8716 27.1833C30.848 27.2204 30.8326 27.2624 30.8243 27.3067C30.8172 27.351 30.8184 27.3954 30.8278 27.4397C30.8373 27.4828 30.8551 27.5236 30.8811 27.5607C30.9071 27.5967 30.939 27.6278 30.9769 27.6518Z" fill="#004266"/>
<path d="M35.5822 26.1085C35.6154 26.1385 35.6532 26.16 35.6958 26.1756C35.7372 26.19 35.781 26.196 35.8259 26.1936C35.8697 26.19 35.9123 26.1792 35.9525 26.1588C35.9927 26.1397 36.0282 26.1133 36.0578 26.0786C36.0874 26.045 36.1087 26.0067 36.124 25.9647C36.1382 25.9216 36.1441 25.8785 36.1418 25.8329C36.1382 25.7874 36.1276 25.7455 36.1087 25.7047C36.0885 25.664 36.0625 25.6292 36.0282 25.5993L35.0735 24.7462C35.0392 24.7162 35.0014 24.6934 34.96 24.6791C34.9174 24.6647 34.8736 24.6587 34.8299 24.6611C34.7849 24.6635 34.7423 24.6755 34.7021 24.6946C34.6619 24.715 34.6276 24.7414 34.598 24.7749C34.5684 24.8097 34.5459 24.8468 34.5317 24.89C34.5164 24.9331 34.5104 24.9762 34.514 25.0218C34.5164 25.0661 34.5282 25.1092 34.5471 25.15C34.5672 25.1907 34.5933 25.2254 34.6264 25.2554L35.5822 26.1085Z" fill="#004266"/>
<path d="M38.0014 27.756C38.0239 27.7608 38.0464 27.762 38.0689 27.7632C38.1493 27.762 38.2203 27.7368 38.2818 27.6853C38.3433 27.635 38.3824 27.5691 38.3989 27.49L38.6249 26.3721C38.6332 26.3278 38.6332 26.2834 38.6249 26.2391C38.6166 26.1948 38.6 26.154 38.5752 26.1169C38.5503 26.0785 38.5196 26.0474 38.4829 26.0222C38.4462 25.9971 38.4048 25.9803 38.3611 25.9707C38.3173 25.9623 38.2735 25.9623 38.2298 25.9707C38.186 25.9791 38.1458 25.9959 38.1079 26.021C38.0712 26.045 38.0405 26.0761 38.0145 26.1145C37.9896 26.1516 37.9731 26.1924 37.9636 26.2367L37.7388 27.3546C37.7294 27.399 37.7294 27.4433 37.7376 27.4876C37.7459 27.532 37.7625 27.5727 37.7873 27.6098C37.8122 27.6482 37.8429 27.6793 37.8796 27.7045C37.9175 27.7297 37.9577 27.7464 38.0014 27.756Z" fill="#004266"/>
<path d="M18.7248 28.4677C18.7839 28.5121 18.8502 28.5336 18.9235 28.5336C19.0371 28.5336 19.1282 28.4881 19.1956 28.3947L20.11 27.1366C20.1361 27.0994 20.1538 27.0599 20.1645 27.0155C20.1751 26.9724 20.1775 26.9281 20.1704 26.8837C20.1633 26.8394 20.1491 26.7975 20.1254 26.7591C20.1018 26.7208 20.0722 26.6884 20.0367 26.6609C20.0012 26.6345 19.961 26.6153 19.9184 26.6046C19.8746 26.595 19.8309 26.5926 19.7871 26.5998C19.7421 26.6058 19.7019 26.6213 19.6629 26.6441C19.625 26.6681 19.5931 26.6968 19.5659 26.734L18.6514 27.9933C18.6254 28.0292 18.6065 28.0699 18.5958 28.1131C18.5852 28.1574 18.5828 28.2017 18.5899 28.2461C18.597 28.2904 18.6124 28.3324 18.6349 28.3707C18.6585 28.409 18.6881 28.4414 18.7248 28.4677Z" fill="#004266"/>
<path d="M24.7698 28.282C24.7462 28.3216 24.732 28.3635 24.726 28.4078C24.7189 28.4522 24.7213 28.4965 24.732 28.5408C24.7438 28.584 24.7627 28.6235 24.7887 28.6607C24.8159 28.6966 24.8491 28.7254 24.8869 28.7493C25.314 29.0069 25.7753 29.1651 26.2698 29.2238C26.2828 29.225 26.2959 29.225 26.3089 29.2238C26.3988 29.225 26.4768 29.1939 26.5419 29.1316C26.6082 29.0692 26.6436 28.9938 26.6484 28.9027C26.6531 28.8116 26.6271 28.7326 26.5679 28.6631C26.51 28.5936 26.4354 28.554 26.3467 28.5456C25.9481 28.4989 25.5778 28.3731 25.2335 28.1646C25.1957 28.1419 25.1543 28.1263 25.1093 28.1191C25.0656 28.1131 25.0206 28.1155 24.978 28.1263C24.9342 28.1371 24.894 28.1562 24.8585 28.1838C24.8219 28.2101 24.7923 28.2437 24.7698 28.282Z" fill="#004266"/>
<path d="M24.4031 24.8756C24.6101 25.011 24.7272 25.2027 24.7556 25.4495C24.7651 25.5358 24.8017 25.6089 24.8656 25.6664C24.9295 25.7239 25.0052 25.7526 25.0904 25.7538H25.1271C25.172 25.7479 25.2134 25.7347 25.2525 25.7131C25.2927 25.6915 25.3258 25.664 25.3542 25.628C25.3814 25.5933 25.4015 25.5537 25.4145 25.5106C25.4275 25.4675 25.4311 25.4231 25.4264 25.3788C25.4015 25.1571 25.3305 24.9523 25.2134 24.7629C25.0963 24.5748 24.9449 24.4203 24.758 24.3016C24.7201 24.2777 24.6799 24.2609 24.6349 24.2537C24.5912 24.2465 24.5474 24.2477 24.5036 24.2573C24.4599 24.2669 24.4208 24.2861 24.3842 24.3112C24.3475 24.3376 24.3167 24.3699 24.2931 24.4083C24.2694 24.4466 24.254 24.4874 24.2469 24.5329C24.2386 24.5772 24.241 24.6216 24.2505 24.6647C24.2611 24.709 24.2789 24.7498 24.3049 24.7869C24.3309 24.8228 24.3629 24.854 24.4007 24.8768L24.4031 24.8756Z" fill="#004266"/>
<path d="M28.9717 24.7677H29.0226C29.0664 24.7653 29.109 24.7545 29.1492 24.7354C29.1882 24.7162 29.2237 24.6898 29.2533 24.6575C29.2829 24.6239 29.3053 24.5868 29.3207 24.5449C29.3361 24.5029 29.342 24.4598 29.3408 24.4155C29.3396 24.3699 29.329 24.328 29.3113 24.2873C29.2923 24.2465 29.2675 24.2106 29.2355 24.1806C29.2024 24.1495 29.1658 24.1267 29.1255 24.1111C29.0841 24.0943 29.0415 24.0872 28.9966 24.0884C28.7825 24.0943 28.6003 24.0177 28.4524 23.8607C28.4217 23.8283 28.3862 23.802 28.3459 23.7828C28.3057 23.7648 28.2631 23.7541 28.2182 23.7529C28.1732 23.7517 28.1306 23.7577 28.0881 23.7744C28.0467 23.79 28.0088 23.8128 27.9769 23.8439C27.9437 23.8739 27.9177 23.9098 27.9 23.9506C27.881 23.9913 27.8704 24.0344 27.8692 24.08C27.868 24.1243 27.8739 24.1686 27.8893 24.2106C27.9059 24.2525 27.9284 24.2908 27.9591 24.3232C28.0904 24.4646 28.2442 24.5736 28.4205 24.6503C28.5967 24.7282 28.7801 24.7665 28.9717 24.7677Z" fill="#004266"/>
<path d="M32.1232 25.5873C32.1611 25.6101 32.2025 25.6244 32.2462 25.6316C32.2912 25.6376 32.335 25.6352 32.3776 25.6244C32.4213 25.6124 32.4604 25.5933 32.497 25.5669C32.5325 25.5394 32.5621 25.507 32.5846 25.4687C32.7975 25.1044 32.9229 24.7114 32.9619 24.2908C32.9655 24.2453 32.9619 24.201 32.9478 24.1579C32.9347 24.1159 32.9134 24.0764 32.8851 24.0416C32.8567 24.0069 32.8224 23.9793 32.7833 23.9578C32.7431 23.9374 32.7017 23.9242 32.6567 23.9206C32.613 23.9158 32.5692 23.9206 32.5266 23.9338C32.484 23.9482 32.445 23.9685 32.4107 23.9973C32.3764 24.026 32.3492 24.0608 32.3279 24.1003C32.3066 24.1411 32.2947 24.183 32.29 24.2285C32.2604 24.5461 32.1658 24.8432 32.0037 25.1188C31.9812 25.1571 31.9659 25.1991 31.96 25.2446C31.9529 25.2889 31.9552 25.3333 31.9671 25.3776C31.9777 25.4219 31.9966 25.4615 32.0238 25.4986C32.051 25.5346 32.0842 25.5645 32.1232 25.5873Z" fill="#004266"/>
<path d="M33.4493 28.7505C33.5026 28.7817 33.5593 28.7985 33.6209 28.7985C33.7486 28.7985 33.8456 28.7422 33.9107 28.6319C34.1248 28.2665 34.2502 27.8735 34.2892 27.4517C34.2928 27.4074 34.2881 27.363 34.275 27.3199C34.2609 27.2768 34.2407 27.2384 34.2112 27.2037C34.1828 27.1689 34.1485 27.1414 34.1094 27.121C34.0692 27.1006 34.0278 27.0875 33.9829 27.0839C33.9391 27.0803 33.8953 27.0851 33.8527 27.0982C33.8101 27.1114 33.7711 27.133 33.738 27.1617C33.7037 27.1905 33.6753 27.2252 33.6552 27.2648C33.6339 27.3055 33.622 27.3475 33.6185 27.3918C33.5889 27.7105 33.4931 28.0077 33.331 28.282C33.3086 28.3216 33.2932 28.3635 33.2873 28.4079C33.2802 28.4534 33.2825 28.4977 33.2944 28.5409C33.305 28.5852 33.3239 28.6247 33.3511 28.6619C33.3783 28.6978 33.4103 28.7266 33.4493 28.7505Z" fill="#004266"/>
<path d="M27.4623 26.8538L28.3259 27.1222C28.3578 27.1318 28.3909 27.1366 28.424 27.1366C28.508 27.1378 28.5814 27.1102 28.6453 27.0551C28.7091 27 28.747 26.9305 28.7588 26.8478C28.7718 26.7639 28.7553 26.686 28.7103 26.6153C28.6654 26.5435 28.6027 26.4955 28.5234 26.4716L27.6598 26.2056C27.6172 26.19 27.5723 26.1852 27.5273 26.1876C27.4812 26.1912 27.4386 26.2032 27.3972 26.2247C27.357 26.2451 27.3215 26.2727 27.2931 26.3086C27.2635 26.3434 27.2422 26.3829 27.228 26.4272C27.215 26.4716 27.2103 26.5159 27.215 26.5626C27.2198 26.6082 27.234 26.6513 27.2553 26.6908C27.2777 26.7316 27.3061 26.7663 27.3428 26.7951C27.3783 26.8226 27.4185 26.843 27.4623 26.855V26.8538Z" fill="#004266"/>
<path d="M17.155 25.6125C17.1136 25.5933 17.071 25.5825 17.0272 25.5813C16.9822 25.5801 16.9385 25.5873 16.8971 25.6029C16.8545 25.6184 16.8178 25.6412 16.7847 25.6724C16.7516 25.7023 16.7267 25.7383 16.7078 25.779L16.2476 26.7927C16.2299 26.8334 16.2192 26.8765 16.218 26.9221C16.2157 26.9676 16.2228 27.0107 16.2381 27.0527C16.2535 27.0958 16.2772 27.133 16.3068 27.1665C16.3375 27.1989 16.373 27.2252 16.4132 27.2444C16.4582 27.2648 16.5055 27.2755 16.554 27.2743C16.6203 27.2743 16.6806 27.2564 16.7362 27.2204C16.7918 27.1857 16.8332 27.1366 16.8604 27.0766L17.3229 26.0642C17.3419 26.0234 17.3513 25.9803 17.3537 25.9348C17.3549 25.8892 17.3478 25.8449 17.3324 25.803C17.3158 25.7598 17.2934 25.7227 17.2626 25.6891C17.2319 25.6568 17.1952 25.6304 17.155 25.6125Z" fill="#004266"/>
<path d="M22.2335 26.8382C22.2607 26.873 22.2927 26.9017 22.3305 26.9245C22.3672 26.9472 22.4086 26.9616 22.4512 26.9688C22.495 26.9748 22.5375 26.9736 22.5801 26.9628C22.6227 26.9532 22.6618 26.9353 22.6984 26.9089C22.7339 26.8837 22.7635 26.8514 22.786 26.8142C22.8096 26.7771 22.8262 26.7364 22.8333 26.6932C22.8416 26.6501 22.8404 26.6058 22.8321 26.5626C22.8226 26.5195 22.8061 26.4799 22.7812 26.4428L22.1117 25.4938C22.0856 25.4567 22.0537 25.4267 22.0158 25.4028C21.978 25.3788 21.9366 25.362 21.8928 25.3548C21.849 25.3477 21.8053 25.3489 21.7615 25.3596C21.7177 25.3692 21.6775 25.3872 21.6408 25.4136C21.6053 25.4399 21.5746 25.4723 21.5509 25.5106C21.5273 25.5489 21.5119 25.5897 21.5048 25.6352C21.4977 25.6796 21.4989 25.7239 21.5083 25.767C21.519 25.8114 21.5367 25.8521 21.5628 25.888L22.2335 26.8382Z" fill="#004266"/>
<path d="M31.8996 37.9395C31.8996 38.0401 31.8878 38.136 31.8641 38.2294C31.8405 38.3217 31.8062 38.4044 31.7612 38.475C31.7163 38.5457 31.6654 38.6009 31.6074 38.6392C31.5495 38.6775 31.4891 38.6967 31.4264 38.6967C31.3637 38.6967 31.3034 38.6775 31.2454 38.6392C31.1863 38.6009 31.1354 38.5457 31.0916 38.475C31.0467 38.4044 31.0124 38.3217 30.9887 38.2294C30.9639 38.136 30.9521 38.0401 30.9521 37.9395C30.9521 37.8388 30.9639 37.7418 30.9887 37.6495C31.0124 37.556 31.0467 37.4746 31.0916 37.4039C31.1354 37.332 31.1863 37.2781 31.2454 37.2397C31.3034 37.2014 31.3637 37.181 31.4264 37.181C31.4891 37.181 31.5495 37.2014 31.6074 37.2397C31.6654 37.2781 31.7163 37.332 31.7612 37.4039C31.8062 37.4746 31.8405 37.556 31.8641 37.6495C31.8878 37.7418 31.8996 37.8388 31.8996 37.9395Z" fill="#F0FAFF"/>
<path d="M25.8723 37.9395C25.8723 38.0401 25.8605 38.136 25.8369 38.2294C25.812 38.3217 25.7777 38.4044 25.7339 38.475C25.689 38.5457 25.6381 38.6009 25.5801 38.6392C25.5222 38.6775 25.4618 38.6967 25.3992 38.6967C25.3353 38.6967 25.2749 38.6775 25.217 38.6392C25.159 38.6009 25.1081 38.5457 25.0632 38.475C25.0194 38.4044 24.9851 38.3217 24.9603 38.2294C24.9366 38.136 24.9248 38.0401 24.9248 37.9395C24.9248 37.8388 24.9366 37.7418 24.9603 37.6495C24.9851 37.556 25.0194 37.4746 25.0632 37.4039C25.1081 37.332 25.159 37.2781 25.217 37.2397C25.2749 37.2014 25.3353 37.181 25.3992 37.181C25.4618 37.181 25.5222 37.2014 25.5801 37.2397C25.6381 37.2781 25.689 37.332 25.7339 37.4039C25.7777 37.4746 25.812 37.556 25.8369 37.6495C25.8605 37.7418 25.8723 37.8388 25.8723 37.9395Z" fill="#F0FAFF"/>
<path d="M40.0977 52.9278C40.6312 52.0004 39.214 51.1713 38.6911 52.0879C38.3422 52.6846 37.8512 53.6228 37.2089 54.0098C37.2408 53.2921 37.2633 52.5851 37.2633 51.8674C37.2739 50.7962 35.6379 50.7962 35.6272 51.8674C35.6166 53.9762 35.4853 56.085 35.2132 58.1723C35.1481 58.6144 35.3114 59.0566 35.7798 59.1884C36.1619 59.2986 36.7286 59.0566 36.783 58.6144C36.9143 57.687 37.0125 56.7704 37.0882 55.843C37.6548 56.3726 38.0157 57.1011 38.0807 57.8859C38.1789 58.9343 39.8138 58.9451 39.7156 57.8859C39.6174 56.7812 39.214 55.8095 38.5385 55.0151C39.1821 54.4399 39.6718 53.6671 40.0977 52.9278Z" fill="#004266"/>
</g>
<defs>
<clipPath id="clip0_9_1737">
<rect width="375" height="81" fill="white" transform="translate(0 44)"/>
</clipPath>
<clipPath id="clip1_9_1737">
<rect width="36.2272" height="47" fill="white" transform="translate(9.79112 4)"/>
</clipPath>
</defs>
</svg>
