<svg width="102" height="64" viewBox="0 0 102 64" fill="none" xmlns="http://www.w3.org/2000/svg">
<path d="M51.0896 60.7688C30.5759 60.7688 19.4782 55.8175 17.4006 54.7927L8.19287 30.5661V28.3926H93.9851V30.5661L84.7798 54.7903C82.6998 55.8175 71.6021 60.7688 51.0896 60.7688Z" fill="#FEF7DF"/>
<path d="M92.8252 29.5572V30.3546L83.8596 53.9515C81.1161 55.2388 70.401 59.6067 51.0896 59.6067C31.8859 59.6067 21.0764 55.2267 18.3183 53.9442L9.35276 30.3546V29.5572H92.8252ZM95.1438 27.2328H7.03418V30.7825L16.4732 55.6218C16.4756 55.6218 27.675 61.931 51.0896 61.931C74.503 61.931 85.7024 55.6218 85.7024 55.6218L95.1438 30.7825V27.2328Z" fill="#C7A347"/>
<path d="M65.0011 39.85C59.6314 39.85 54.6068 38.2393 51.8887 35.6427L51.0896 34.8805L50.2893 35.6427C47.5712 38.2393 42.5466 39.85 37.1769 39.85C31.6378 39.85 26.5381 38.1663 23.8672 35.4591L23.4919 35.0774L22.9591 35.1175C22.2981 35.1661 21.6273 35.2014 20.9457 35.2014C12.7768 35.2014 5.8743 31.4754 5.8743 27.0663C5.8743 21.4962 25.9242 7.30967 51.0896 7.30967C76.2537 7.30967 96.3037 21.4962 96.3037 27.0663C96.3037 31.4754 89.4012 35.2014 81.2323 35.2014C80.5507 35.2014 79.8799 35.1661 79.2201 35.1175L78.6861 35.0774L78.3108 35.4591C75.6399 38.1663 70.5402 39.85 65.0011 39.85Z" fill="#FEECB6"/>
<path d="M51.0896 8.47182C76.3675 8.47182 95.1438 22.7094 95.1438 27.0663C95.1438 30.3644 89.4315 34.0392 81.2323 34.0392C80.6524 34.0392 80.0409 34.0137 79.3048 33.9602L78.2381 33.8812L77.4851 34.6434C75.0248 37.1367 70.2412 38.6879 65.0011 38.6879C59.9159 38.6879 55.1976 37.1975 52.689 34.8015L51.0896 33.2758L49.489 34.8039C46.9803 37.1975 42.262 38.6879 37.1769 38.6879C31.9368 38.6879 27.1531 37.1367 24.6929 34.6434L23.9398 33.8812L22.8732 33.9602C22.1382 34.0137 21.5256 34.0392 20.9457 34.0392C12.7465 34.0392 7.03418 30.3644 7.03418 27.0663C7.03418 22.7094 25.8104 8.47182 51.0896 8.47182ZM51.0896 6.14751C25.4763 6.14751 4.71561 20.7365 4.71561 27.0663C4.71561 32.2 11.9813 36.3636 20.9457 36.3636C21.6576 36.3636 22.3562 36.3283 23.0439 36.2772C25.8286 39.1012 31.1087 41.0122 37.1769 41.0122C43.0914 41.0122 48.2528 39.1936 51.0896 36.4863C53.9252 39.1936 59.0866 41.0122 65.0011 41.0122C71.0693 41.0122 76.3494 39.1012 79.1341 36.2772C79.8218 36.3283 80.5204 36.3636 81.2323 36.3636C90.1967 36.3636 97.4636 32.2 97.4636 27.0663C97.4636 20.7365 76.7017 6.14751 51.0896 6.14751Z" fill="#C7A347"/>
<path d="M59.204 17.7691C59.0503 17.7691 58.9026 17.7982 58.7609 17.8566C58.6192 17.9162 58.4933 18 58.3844 18.1094C58.2766 18.2176 58.1918 18.3441 58.1337 18.4863C58.0744 18.6285 58.0453 18.7768 58.0453 18.9312C58.0453 19.0844 58.0744 19.2327 58.1337 19.3749C58.1918 19.5184 58.2766 19.6436 58.3844 19.753C58.4933 19.8612 58.6192 19.9451 58.7609 20.0046C58.9026 20.063 59.0503 20.0934 59.204 20.0934C59.3578 20.0934 59.5067 20.063 59.6484 20.0046C59.79 19.9451 59.9159 19.8612 60.0249 19.753C60.1327 19.6436 60.2162 19.5184 60.2755 19.3749C60.3349 19.2327 60.3639 19.0844 60.3639 18.9312C60.3639 18.7768 60.3349 18.6285 60.2755 18.4863C60.2162 18.3441 60.1327 18.2176 60.0249 18.1094C59.9159 18 59.79 17.9162 59.6484 17.8566C59.5067 17.7982 59.3578 17.7691 59.204 17.7691ZM75.4353 20.0934C75.2815 20.0934 75.1338 20.1225 74.9921 20.1809C74.8493 20.2405 74.7246 20.3243 74.6156 20.4337C74.5066 20.5419 74.4231 20.6684 74.3638 20.8106C74.3057 20.9528 74.2766 21.1011 74.2766 21.2555C74.2766 21.4087 74.3057 21.557 74.3638 21.6992C74.4231 21.8427 74.5066 21.9679 74.6156 22.0773C74.7246 22.1855 74.8493 22.2694 74.9921 22.3289C75.1338 22.3873 75.2815 22.4177 75.4353 22.4177C75.589 22.4177 75.7368 22.3873 75.8796 22.3289C76.0213 22.2694 76.146 22.1855 76.255 22.0773C76.3639 21.9679 76.4475 21.8427 76.5068 21.6992C76.5649 21.557 76.5952 21.4087 76.5952 21.2555C76.5952 21.1011 76.5649 20.9528 76.5068 20.8106C76.4475 20.6684 76.3639 20.5419 76.255 20.4337C76.146 20.3243 76.0213 20.2405 75.8796 20.1809C75.7368 20.1225 75.589 20.0934 75.4353 20.0934ZM24.4241 20.0934C24.2704 20.0934 24.1227 20.1225 23.9798 20.1809C23.8381 20.2405 23.7134 20.3243 23.6045 20.4337C23.4955 20.5419 23.412 20.6684 23.3526 20.8106C23.2945 20.9528 23.2643 21.1011 23.2643 21.2555C23.2643 21.4087 23.2945 21.557 23.3526 21.6992C23.412 21.8427 23.4955 21.9679 23.6045 22.0773C23.7134 22.1855 23.8381 22.2694 23.9798 22.3289C24.1227 22.3873 24.2704 22.4177 24.4241 22.4177C24.5779 22.4177 24.7256 22.3873 24.8673 22.3289C25.0101 22.2694 25.1349 22.1855 25.2438 22.0773C25.3528 21.9679 25.4363 21.8427 25.4957 21.6992C25.5538 21.557 25.5828 21.4087 25.5828 21.2555C25.5828 21.1011 25.5538 20.9528 25.4957 20.8106C25.4363 20.6684 25.3528 20.5419 25.2438 20.4337C25.1349 20.3243 25.0101 20.2405 24.8673 20.1809C24.7256 20.1225 24.5779 20.0934 24.4241 20.0934Z" fill="#C7A347"/>
<path d="M49.9297 13.1204C49.7759 13.1204 49.6282 13.1496 49.4866 13.208C49.3437 13.2675 49.219 13.3514 49.11 13.4608C49.0011 13.569 48.9175 13.6954 48.8582 13.8377C48.8001 13.9799 48.7698 14.1282 48.7698 14.2826C48.7698 14.4358 48.8001 14.5841 48.8582 14.7263C48.9175 14.8698 49.0011 14.995 49.11 15.1044C49.219 15.2126 49.3437 15.2964 49.4866 15.356C49.6282 15.4144 49.7759 15.4448 49.9297 15.4448C50.0835 15.4448 50.2312 15.4144 50.3728 15.356C50.5157 15.2964 50.6404 15.2126 50.7494 15.1044C50.8583 14.995 50.9419 14.8698 51.0012 14.7263C51.0593 14.5841 51.0896 14.4358 51.0896 14.2826C51.0896 14.1282 51.0593 13.9799 51.0012 13.8377C50.9419 13.6954 50.8583 13.569 50.7494 13.4608C50.6404 13.3514 50.5157 13.2675 50.3728 13.208C50.2312 13.1496 50.0835 13.1204 49.9297 13.1204Z" fill="#C7A347"/>
<path d="M40.6554 20.0934C40.5016 20.0934 40.3527 20.1225 40.211 20.1809C40.0694 20.2405 39.9435 20.3243 39.8357 20.4337C39.7267 20.5419 39.6432 20.6684 39.5839 20.8106C39.5245 20.9528 39.4955 21.1011 39.4955 21.2555C39.4955 21.4087 39.5245 21.557 39.5839 21.6992C39.6432 21.8427 39.7267 21.9679 39.8357 22.0773C39.9435 22.1855 40.0694 22.2694 40.211 22.3289C40.3527 22.3873 40.5016 22.4177 40.6554 22.4177C40.8091 22.4177 40.9569 22.3873 41.0985 22.3289C41.2402 22.2694 41.3661 22.1855 41.475 22.0773C41.5828 21.9679 41.6676 21.8427 41.7257 21.6992C41.785 21.557 41.8141 21.4087 41.8141 21.2555C41.8141 21.1011 41.785 20.9528 41.7257 20.8106C41.6676 20.6684 41.5828 20.5419 41.475 20.4337C41.3661 20.3243 41.2402 20.2405 41.0985 20.1809C40.9569 20.1225 40.8091 20.0934 40.6554 20.0934Z" fill="#C7A347"/>
</svg>
