<svg width="96" height="65" viewBox="0 0 96 65" fill="none" xmlns="http://www.w3.org/2000/svg">
<path d="M46.8466 57.8038C27.1936 57.8038 16.5615 53.0922 14.5711 52.1171L5.74965 29.0636V26.9953H87.9424V29.0636L79.1233 52.1148C77.1305 53.0922 66.4985 57.8038 46.8466 57.8038Z" fill="#DFF0FE"/>
<path d="M86.8312 28.1035V28.8623L78.2418 51.3166C75.6133 52.5416 65.3478 56.6979 46.8466 56.6979C28.4487 56.6979 18.0927 52.53 15.4503 51.3096L6.86089 28.8623V28.1035H86.8312ZM89.0525 25.8917H4.63959V29.2695L13.6825 52.906C13.6849 52.906 24.4144 58.9097 46.8466 58.9097C69.2777 58.9097 80.0072 52.906 80.0072 52.906L89.0525 29.2695V25.8917Z" fill="#4788C7"/>
<path d="M60.1744 37.898C55.03 37.898 50.2163 36.3652 47.6122 33.8943L46.8466 33.169L46.0799 33.8943C43.4758 36.3652 38.662 37.898 33.5177 37.898C28.2109 37.898 23.3252 36.2958 20.7663 33.7197L20.4068 33.3564L19.8964 33.3946C19.263 33.4409 18.6204 33.4744 17.9674 33.4744C10.1412 33.4744 3.52835 29.9289 3.52835 25.7333C3.52835 20.4329 22.7371 6.93329 46.8466 6.93329C70.955 6.93329 90.1637 20.4329 90.1637 25.7333C90.1637 29.9289 83.5509 33.4744 75.7247 33.4744C75.0716 33.4744 74.429 33.4409 73.7969 33.3946L73.2853 33.3564L72.9257 33.7197C70.3669 36.2958 65.4812 37.898 60.1744 37.898Z" fill="#B6DCFE"/>
<path d="M46.8466 8.03917C71.064 8.03917 89.0525 21.5874 89.0525 25.7333C89.0525 28.8716 83.5799 32.3685 75.7247 32.3685C75.1691 32.3685 74.5833 32.3443 73.8781 32.2934L72.8561 32.2182L72.1347 32.9435C69.7776 35.316 65.1947 36.7921 60.1744 36.7921C55.3026 36.7921 50.7823 35.3739 48.3789 33.0938L46.8466 31.6421L45.3132 33.0962C42.9098 35.3739 38.3894 36.7921 33.5177 36.7921C28.4974 36.7921 23.9144 35.316 21.5574 32.9435L20.8359 32.2182L19.814 32.2934C19.1099 32.3443 18.523 32.3685 17.9674 32.3685C10.1122 32.3685 4.63959 28.8716 4.63959 25.7333C4.63959 21.5874 22.6281 8.03917 46.8466 8.03917ZM46.8466 5.82741C22.3079 5.82741 2.41829 19.7099 2.41829 25.7333C2.41829 30.6183 9.37914 34.5803 17.9674 34.5803C18.6494 34.5803 19.3187 34.5468 19.9776 34.4982C22.6455 37.1854 27.704 39.0038 33.5177 39.0038C39.184 39.0038 44.1289 37.2733 46.8466 34.6971C49.5632 37.2733 54.5081 39.0038 60.1744 39.0038C65.9881 39.0038 71.0466 37.1854 73.7145 34.4982C74.3734 34.5468 75.0426 34.5803 75.7247 34.5803C84.313 34.5803 91.275 30.6183 91.275 25.7333C91.275 19.7099 71.3842 5.82741 46.8466 5.82741Z" fill="#4788C7"/>
<path d="M54.6206 16.8862C54.4733 16.8862 54.3318 16.914 54.1961 16.9695C54.0603 17.0262 53.9397 17.106 53.8353 17.2101C53.7321 17.3131 53.6509 17.4334 53.5952 17.5687C53.5384 17.7041 53.5105 17.8452 53.5105 17.9921C53.5105 18.1379 53.5384 18.279 53.5952 18.4143C53.6509 18.5497 53.7321 18.67 53.8353 18.7741C53.9397 18.877 54.0603 18.9568 54.1961 19.0135C54.3318 19.0691 54.4733 19.098 54.6206 19.098C54.7679 19.098 54.9106 19.0691 55.0463 19.0135C55.182 18.9568 55.3026 18.877 55.407 18.7741C55.5103 18.67 55.5903 18.5497 55.6471 18.4143C55.704 18.279 55.7318 18.1379 55.7318 17.9921C55.7318 17.8452 55.704 17.7041 55.6471 17.5687C55.5903 17.4334 55.5103 17.3131 55.407 17.2101C55.3026 17.106 55.182 17.0262 55.0463 16.9695C54.9106 16.914 54.7679 16.8862 54.6206 16.8862ZM70.1709 19.098C70.0235 19.098 69.882 19.1257 69.7463 19.1813C69.6094 19.2379 69.49 19.3178 69.3856 19.4219C69.2812 19.5248 69.2011 19.6451 69.1443 19.7805C69.0886 19.9158 69.0608 20.0569 69.0608 20.2039C69.0608 20.3496 69.0886 20.4907 69.1443 20.6261C69.2011 20.7626 69.2812 20.8817 69.3856 20.9858C69.49 21.0888 69.6094 21.1686 69.7463 21.2253C69.882 21.2808 70.0235 21.3097 70.1709 21.3097C70.3182 21.3097 70.4597 21.2808 70.5966 21.2253C70.7323 21.1686 70.8517 21.0888 70.9561 20.9858C71.0605 20.8817 71.1406 20.7626 71.1974 20.6261C71.2531 20.4907 71.2821 20.3496 71.2821 20.2039C71.2821 20.0569 71.2531 19.9158 71.1974 19.7805C71.1406 19.6451 71.0605 19.5248 70.9561 19.4219C70.8517 19.3178 70.7323 19.2379 70.5966 19.1813C70.4597 19.1257 70.3182 19.098 70.1709 19.098ZM21.2999 19.098C21.1526 19.098 21.0111 19.1257 20.8742 19.1813C20.7385 19.2379 20.619 19.3178 20.5146 19.4219C20.4102 19.5248 20.3302 19.6451 20.2734 19.7805C20.2177 19.9158 20.1887 20.0569 20.1887 20.2039C20.1887 20.3496 20.2177 20.4907 20.2734 20.6261C20.3302 20.7626 20.4102 20.8817 20.5146 20.9858C20.619 21.0888 20.7385 21.1686 20.8742 21.2253C21.0111 21.2808 21.1526 21.3097 21.2999 21.3097C21.4472 21.3097 21.5887 21.2808 21.7245 21.2253C21.8613 21.1686 21.9808 21.0888 22.0852 20.9858C22.1896 20.8817 22.2696 20.7626 22.3265 20.6261C22.3822 20.4907 22.41 20.3496 22.41 20.2039C22.41 20.0569 22.3822 19.9158 22.3265 19.7805C22.2696 19.6451 22.1896 19.5248 22.0852 19.4219C21.9808 19.3178 21.8613 19.2379 21.7245 19.1813C21.5887 19.1257 21.4472 19.098 21.2999 19.098Z" fill="#4788C7"/>
<path d="M45.7354 12.4627C45.5881 12.4627 45.4466 12.4905 45.3108 12.546C45.174 12.6027 45.0545 12.6825 44.9501 12.7866C44.8457 12.8895 44.7657 13.0098 44.7088 13.1452C44.6531 13.2805 44.6241 13.4217 44.6241 13.5686C44.6241 13.7143 44.6531 13.8555 44.7088 13.9908C44.7657 14.1273 44.8457 14.2464 44.9501 14.3506C45.0545 14.4535 45.174 14.5333 45.3108 14.59C45.4466 14.6455 45.5881 14.6745 45.7354 14.6745C45.8827 14.6745 46.0242 14.6455 46.1599 14.59C46.2968 14.5333 46.4163 14.4535 46.5207 14.3506C46.6251 14.2464 46.7051 14.1273 46.7619 13.9908C46.8176 13.8555 46.8466 13.7143 46.8466 13.5686C46.8466 13.4217 46.8176 13.2805 46.7619 13.1452C46.7051 13.0098 46.6251 12.8895 46.5207 12.7866C46.4163 12.6825 46.2968 12.6027 46.1599 12.546C46.0242 12.4905 45.8827 12.4627 45.7354 12.4627Z" fill="#4788C7"/>
<path d="M36.8502 19.098C36.7029 19.098 36.5602 19.1257 36.4245 19.1813C36.2888 19.238 36.1681 19.3178 36.0649 19.4219C35.9605 19.5248 35.8805 19.6451 35.8236 19.7805C35.7668 19.9158 35.739 20.057 35.739 20.2039C35.739 20.3496 35.7668 20.4907 35.8236 20.6261C35.8805 20.7626 35.9605 20.8817 36.0649 20.9858C36.1681 21.0888 36.2888 21.1686 36.4245 21.2253C36.5602 21.2808 36.7029 21.3097 36.8502 21.3097C36.9975 21.3097 37.139 21.2808 37.2747 21.2253C37.4104 21.1686 37.5311 21.0888 37.6355 20.9858C37.7387 20.8817 37.8199 20.7626 37.8756 20.6261C37.9324 20.4907 37.9603 20.3496 37.9603 20.2039C37.9603 20.057 37.9324 19.9158 37.8756 19.7805C37.8199 19.6451 37.7387 19.5248 37.6355 19.4219C37.5311 19.3178 37.4104 19.238 37.2747 19.1813C37.139 19.1257 36.9975 19.098 36.8502 19.098Z" fill="#4788C7"/>
</svg>
