<svg width="98" height="62" viewBox="0 0 98 62" fill="none" xmlns="http://www.w3.org/2000/svg">
<path d="M49.0144 57.9663C28.6788 57.9663 17.6774 52.9641 15.6178 51.9288L6.48999 27.4531V25.2572H91.5376V27.4531L82.4122 51.9263C80.3502 52.9641 69.3488 57.9663 49.0144 57.9663Z" fill="#DFFEE3"/>
<path d="M90.3878 26.4338V27.2394L81.5 51.0789C78.7803 52.3795 68.1582 56.7922 49.0144 56.7922C29.9774 56.7922 19.2617 52.3672 16.5276 51.0715L7.63982 27.2394V26.4338H90.3878ZM92.6862 24.0856H5.34137V27.6717L14.6984 52.7664C14.7008 52.7664 25.803 59.1404 49.0144 59.1404C72.2246 59.1404 83.3268 52.7664 83.3268 52.7664L92.6862 27.6717V24.0856Z" fill="#47C76B"/>
<path d="M62.8051 36.8325C57.4821 36.8325 52.5011 35.2052 49.8065 32.5819L49.0144 31.8118L48.221 32.5819C45.5265 35.2052 40.5455 36.8325 35.2225 36.8325C29.7314 36.8325 24.676 35.1315 22.0283 32.3964L21.6562 32.0108L21.1281 32.0513C20.4727 32.1004 19.8078 32.136 19.1321 32.136C11.0341 32.136 4.19153 28.3718 4.19153 23.9173C4.19153 18.29 24.0675 3.95755 49.0144 3.95755C73.9601 3.95755 93.8361 18.29 93.8361 23.9173C93.8361 28.3718 86.9935 32.136 78.8955 32.136C78.2198 32.136 77.5548 32.1004 76.9007 32.0513L76.3714 32.0108L75.9993 32.3964C73.3516 35.1315 68.2962 36.8325 62.8051 36.8325Z" fill="#B6FED1"/>
<path d="M49.0144 5.13162C74.073 5.13162 92.6862 19.5156 92.6862 23.9173C92.6862 27.2492 87.0235 30.9619 78.8955 30.9619C78.3206 30.9619 77.7145 30.9361 76.9847 30.8821L75.9273 30.8022L75.1808 31.5723C72.7419 34.0912 67.9998 35.6583 62.8051 35.6583C57.7641 35.6583 53.0868 34.1526 50.5999 31.7319L49.0144 30.1906L47.4277 31.7344C44.9408 34.1526 40.2635 35.6583 35.2225 35.6583C30.0278 35.6583 25.2857 34.0912 22.8468 31.5723L22.1003 30.8022L21.0429 30.8821C20.3143 30.9361 19.707 30.9619 19.1321 30.9619C11.0041 30.9619 5.34136 27.2492 5.34136 23.9173C5.34136 19.5156 23.9546 5.13162 49.0144 5.13162ZM49.0144 2.78342C23.6234 2.78342 3.04291 17.5223 3.04291 23.9173C3.04291 29.1037 10.2455 33.3101 19.1321 33.3101C19.8378 33.3101 20.5304 33.2745 21.2121 33.2229C23.9726 36.0759 29.2069 38.0065 35.2225 38.0065C41.0856 38.0065 46.2022 36.1692 49.0144 33.4342C51.8254 36.1692 56.942 38.0065 62.8051 38.0065C68.8207 38.0065 74.0549 36.0759 76.8155 33.2229C77.4972 33.2745 78.1898 33.3101 78.8955 33.3101C87.7821 33.3101 94.9859 29.1037 94.9859 23.9173C94.9859 17.5223 74.4042 2.78342 49.0144 2.78342Z" fill="#47C76B"/>
<path d="M57.0584 14.5245C56.9059 14.5245 56.7595 14.554 56.6191 14.6129C56.4787 14.6731 56.3538 14.7578 56.2458 14.8684C56.139 14.9777 56.055 15.1054 55.9974 15.2491C55.9386 15.3928 55.9098 15.5426 55.9098 15.6986C55.9098 15.8533 55.9386 16.0032 55.9974 16.1469C56.055 16.2918 56.139 16.4183 56.2458 16.5288C56.3538 16.6381 56.4787 16.7228 56.6191 16.783C56.7595 16.842 56.9059 16.8727 57.0584 16.8727C57.2108 16.8727 57.3584 16.842 57.4989 16.783C57.6393 16.7228 57.7641 16.6381 57.8721 16.5288C57.979 16.4183 58.0618 16.2918 58.1206 16.1469C58.1794 16.0032 58.2082 15.8533 58.2082 15.6986C58.2082 15.5426 58.1794 15.3928 58.1206 15.2491C58.0618 15.1054 57.979 14.9777 57.8721 14.8684C57.7641 14.7578 57.6393 14.6731 57.4989 14.6129C57.3584 14.554 57.2108 14.5245 57.0584 14.5245ZM73.1488 16.8727C72.9963 16.8727 72.8499 16.9022 72.7095 16.9611C72.5678 17.0213 72.4442 17.106 72.3362 17.2166C72.2282 17.3259 72.1454 17.4536 72.0865 17.5973C72.0289 17.741 72.0001 17.8908 72.0001 18.0468C72.0001 18.2015 72.0289 18.3514 72.0865 18.4951C72.1454 18.64 72.2282 18.7665 72.3362 18.877C72.4442 18.9863 72.5678 19.0711 72.7095 19.1312C72.8499 19.1902 72.9963 19.2209 73.1488 19.2209C73.3012 19.2209 73.4476 19.1902 73.5892 19.1312C73.7297 19.0711 73.8533 18.9863 73.9613 18.877C74.0693 18.7665 74.1522 18.64 74.211 18.4951C74.2686 18.3514 74.2986 18.2015 74.2986 18.0468C74.2986 17.8908 74.2686 17.741 74.211 17.5973C74.1522 17.4536 74.0693 17.3259 73.9613 17.2166C73.8533 17.106 73.7297 17.0213 73.5892 16.9611C73.4476 16.9022 73.3012 16.8727 73.1488 16.8727ZM22.5804 16.8727C22.4279 16.8727 22.2815 16.9022 22.1399 16.9611C21.9995 17.0213 21.8758 17.106 21.7678 17.2166C21.6598 17.3259 21.577 17.4536 21.5182 17.5973C21.4605 17.741 21.4305 17.8908 21.4305 18.0468C21.4305 18.2015 21.4605 18.3514 21.5182 18.4951C21.577 18.64 21.6598 18.7665 21.7678 18.877C21.8758 18.9863 21.9995 19.0711 22.1399 19.1312C22.2815 19.1902 22.4279 19.2209 22.5804 19.2209C22.7328 19.2209 22.8792 19.1902 23.0197 19.1312C23.1613 19.0711 23.2849 18.9863 23.3929 18.877C23.501 18.7665 23.5838 18.64 23.6426 18.4951C23.7002 18.3514 23.729 18.2015 23.729 18.0468C23.729 17.8908 23.7002 17.741 23.6426 17.5973C23.5838 17.4536 23.501 17.3259 23.3929 17.2166C23.2849 17.106 23.1613 17.0213 23.0197 16.9611C22.8792 16.9022 22.7328 16.8727 22.5804 16.8727Z" fill="#47C76B"/>
<path d="M47.8645 9.82806C47.7121 9.82806 47.5657 9.85754 47.4253 9.91649C47.2836 9.97667 47.16 10.0614 47.052 10.1719C46.944 10.2812 46.8612 10.409 46.8023 10.5527C46.7447 10.6964 46.7147 10.8462 46.7147 11.0022C46.7147 11.1569 46.7447 11.3067 46.8023 11.4504C46.8612 11.5954 46.944 11.7219 47.052 11.8324C47.16 11.9417 47.2836 12.0264 47.4253 12.0866C47.5657 12.1456 47.7121 12.1763 47.8645 12.1763C48.017 12.1763 48.1634 12.1456 48.3038 12.0866C48.4455 12.0264 48.5691 11.9417 48.6771 11.8324C48.7851 11.7219 48.8679 11.5954 48.9268 11.4504C48.9844 11.3067 49.0144 11.1569 49.0144 11.0022C49.0144 10.8462 48.9844 10.6964 48.9268 10.5527C48.8679 10.409 48.7851 10.2812 48.6771 10.1719C48.5691 10.0614 48.4455 9.97667 48.3038 9.91649C48.1634 9.85754 48.017 9.82806 47.8645 9.82806Z" fill="#47C76B"/>
<path d="M38.6708 16.8727C38.5183 16.8727 38.3707 16.9022 38.2303 16.9611C38.0898 17.0213 37.965 17.106 37.8582 17.2166C37.7502 17.3259 37.6674 17.4536 37.6086 17.5973C37.5497 17.741 37.5209 17.8908 37.5209 18.0468C37.5209 18.2015 37.5497 18.3514 37.6086 18.4951C37.6674 18.64 37.7502 18.7665 37.8582 18.877C37.965 18.9863 38.0898 19.0711 38.2303 19.1312C38.3707 19.1902 38.5183 19.2209 38.6708 19.2209C38.8232 19.2209 38.9696 19.1902 39.1101 19.1312C39.2505 19.0711 39.3753 18.9863 39.4833 18.877C39.5901 18.7665 39.6742 18.64 39.7318 18.4951C39.7906 18.3514 39.8194 18.2015 39.8194 18.0468C39.8194 17.8908 39.7906 17.741 39.7318 17.5973C39.6742 17.4536 39.5901 17.3259 39.4833 17.2166C39.3753 17.106 39.2505 17.0213 39.1101 16.9611C38.9696 16.9022 38.8232 16.8727 38.6708 16.8727Z" fill="#47C76B"/>
</svg>
