<svg width="100" height="64" viewBox="0 0 100 64" fill="none" xmlns="http://www.w3.org/2000/svg">
<path d="M50.1196 59.2449C29.8156 59.2449 18.8313 54.3639 16.7749 53.3537L7.66135 29.4714V27.3287H92.5766V29.4714L83.4654 53.3513C81.4066 54.3639 70.4223 59.2449 50.1196 59.2449Z" fill="#FEDFF5"/>
<path d="M91.4286 28.4767V29.2629L82.5546 52.5244C79.8391 53.7935 69.2336 58.0992 50.1196 58.0992C31.1123 58.0992 20.4132 53.7815 17.6833 52.5172L8.8094 29.2629V28.4767H91.4286ZM93.7234 26.1855H6.51453V29.6847L15.857 54.171C15.8594 54.171 26.9443 60.3905 50.1196 60.3905C73.2936 60.3905 84.3786 54.171 84.3786 54.171L93.7234 29.6847V26.1855Z" fill="#C74784"/>
<path d="M63.8888 38.6233C58.574 38.6233 53.6008 37.0355 50.9105 34.4758L50.1195 33.7244L49.3274 34.4758C46.6371 37.0355 41.6639 38.6233 36.3491 38.6233C30.8666 38.6233 25.819 36.9636 23.1754 34.2948L22.8039 33.9185L22.2766 33.9581C21.6223 34.006 20.9584 34.0408 20.2838 34.0408C12.1984 34.0408 5.36646 30.3678 5.36646 26.0213C5.36646 20.5304 25.2114 6.54539 50.1195 6.54539C75.0265 6.54539 94.8714 20.5304 94.8714 26.0213C94.8714 30.3678 88.0395 34.0408 79.9541 34.0408C79.2795 34.0408 78.6156 34.006 77.9625 33.9581L77.434 33.9185L77.0625 34.2948C74.4189 36.9636 69.3713 38.6233 63.8888 38.6233Z" fill="#FEB6E6"/>
<path d="M50.1196 7.69104C75.1391 7.69104 93.7234 21.7263 93.7234 26.0213C93.7234 29.2725 88.0695 32.8951 79.9542 32.8951C79.3802 32.8951 78.775 32.87 78.0464 32.8172L76.9906 32.7393L76.2452 33.4907C73.8101 35.9486 69.0754 37.4777 63.8888 37.4777C58.8557 37.4777 54.1856 36.0085 51.7026 33.6465L50.1196 32.1426L48.5353 33.6489C46.0523 36.0085 41.3823 37.4777 36.3491 37.4777C31.1626 37.4777 26.4278 35.9486 23.9927 33.4907L23.2473 32.7393L22.1916 32.8172C21.4642 32.87 20.8578 32.8951 20.2838 32.8951C12.1684 32.8951 6.51451 29.2725 6.51451 26.0213C6.51451 21.7263 25.0988 7.69104 50.1196 7.69104ZM50.1196 5.39975C24.7681 5.39975 4.21964 19.7814 4.21964 26.0213C4.21964 31.082 11.411 35.1864 20.2838 35.1864C20.9884 35.1864 21.6799 35.1517 22.3605 35.1013C25.1168 37.8851 30.3429 39.769 36.3491 39.769C42.2031 39.769 47.3118 37.9762 50.1196 35.3075C52.9262 37.9762 58.0348 39.769 63.8888 39.769C69.8951 39.769 75.1211 37.8851 77.8774 35.1013C78.5581 35.1517 79.2495 35.1864 79.9542 35.1864C88.8269 35.1864 96.0195 31.082 96.0195 26.0213C96.0195 19.7814 75.4699 5.39975 50.1196 5.39975Z" fill="#C74784"/>
<path d="M58.151 16.8562C57.9988 16.8562 57.8526 16.8849 57.7124 16.9424C57.5722 17.0012 57.4476 17.0839 57.3397 17.1917C57.2331 17.2984 57.1492 17.423 57.0917 17.5632C57.033 17.7034 57.0042 17.8496 57.0042 18.0018C57.0042 18.1528 57.033 18.299 57.0917 18.4392C57.1492 18.5794 57.2331 18.7041 57.3397 18.8119C57.4476 18.9186 57.5722 19.0012 57.7124 19.06C57.8526 19.1175 57.9988 19.1474 58.151 19.1474C58.3032 19.1474 58.4506 19.1175 58.5908 19.06C58.731 19.0012 58.8557 18.9186 58.9635 18.8119C59.0702 18.7041 59.1529 18.5794 59.2116 18.4392C59.2703 18.299 59.2991 18.1528 59.2991 18.0018C59.2991 17.8496 59.2703 17.7034 59.2116 17.5632C59.1529 17.423 59.0702 17.2984 58.9635 17.1917C58.8557 17.0839 58.731 17.0012 58.5908 16.9424C58.4506 16.8849 58.3032 16.8562 58.151 16.8562ZM74.2164 19.1474C74.0642 19.1474 73.918 19.1762 73.7778 19.2337C73.6364 19.2925 73.5129 19.3751 73.4051 19.483C73.2972 19.5896 73.2145 19.7143 73.1558 19.8545C73.0983 19.9947 73.0695 20.1409 73.0695 20.2931C73.0695 20.4441 73.0983 20.5903 73.1558 20.7305C73.2145 20.8719 73.2972 20.9953 73.4051 21.1032C73.5129 21.2098 73.6364 21.2925 73.7778 21.3513C73.918 21.4088 74.0642 21.4387 74.2164 21.4387C74.3686 21.4387 74.5148 21.4088 74.6562 21.3513C74.7964 21.2925 74.9198 21.2098 75.0277 21.1032C75.1355 20.9953 75.2182 20.8719 75.2769 20.7305C75.3344 20.5903 75.3644 20.4441 75.3644 20.2931C75.3644 20.1409 75.3344 19.9947 75.2769 19.8545C75.2182 19.7143 75.1355 19.5896 75.0277 19.483C74.9198 19.3751 74.7964 19.2925 74.6562 19.2337C74.5148 19.1762 74.3686 19.1474 74.2164 19.1474ZM23.7267 19.1474C23.5745 19.1474 23.4283 19.1762 23.2869 19.2337C23.1467 19.2925 23.0232 19.3751 22.9154 19.483C22.8075 19.5896 22.7248 19.7143 22.6661 19.8545C22.6086 19.9947 22.5786 20.1409 22.5786 20.2931C22.5786 20.4441 22.6086 20.5903 22.6661 20.7305C22.7248 20.8719 22.8075 20.9953 22.9154 21.1032C23.0232 21.2098 23.1467 21.2925 23.2869 21.3513C23.4283 21.4088 23.5745 21.4387 23.7267 21.4387C23.8789 21.4387 24.0251 21.4088 24.1653 21.3513C24.3067 21.2925 24.4301 21.2098 24.538 21.1032C24.6458 20.9953 24.7285 20.8719 24.7872 20.7305C24.8448 20.5903 24.8735 20.4441 24.8735 20.2931C24.8735 20.1409 24.8448 19.9947 24.7872 19.8545C24.7285 19.7143 24.6458 19.5896 24.538 19.483C24.4301 19.3751 24.3067 19.2925 24.1653 19.2337C24.0251 19.1762 23.8789 19.1474 23.7267 19.1474Z" fill="#C74784"/>
<path d="M48.9715 12.2736C48.8193 12.2736 48.6731 12.3024 48.5329 12.3599C48.3915 12.4186 48.2681 12.5013 48.1602 12.6091C48.0524 12.7158 47.9697 12.8404 47.911 12.9806C47.8534 13.1208 47.8235 13.267 47.8235 13.4192C47.8235 13.5702 47.8534 13.7164 47.911 13.8566C47.9697 13.9981 48.0524 14.1215 48.1602 14.2293C48.2681 14.336 48.3915 14.4187 48.5329 14.4774C48.6731 14.5349 48.8193 14.5649 48.9715 14.5649C49.1237 14.5649 49.2699 14.5349 49.4101 14.4774C49.5515 14.4187 49.675 14.336 49.7828 14.2293C49.8907 14.1215 49.9734 13.9981 50.0321 13.8566C50.0896 13.7164 50.1196 13.5702 50.1196 13.4192C50.1196 13.267 50.0896 13.1208 50.0321 12.9806C49.9734 12.8404 49.8907 12.7158 49.7828 12.6091C49.675 12.5013 49.5515 12.4186 49.4101 12.3599C49.2699 12.3024 49.1237 12.2736 48.9715 12.2736Z" fill="#C74784"/>
<path d="M39.792 19.1474C39.6398 19.1474 39.4924 19.1762 39.3522 19.2337C39.212 19.2924 39.0874 19.3751 38.9807 19.483C38.8729 19.5896 38.7902 19.7143 38.7315 19.8545C38.6727 19.9947 38.644 20.1409 38.644 20.2931C38.644 20.4441 38.6727 20.5903 38.7315 20.7305C38.7902 20.8719 38.8729 20.9953 38.9807 21.1032C39.0874 21.2098 39.212 21.2925 39.3522 21.3513C39.4924 21.4088 39.6398 21.4387 39.792 21.4387C39.9442 21.4387 40.0904 21.4088 40.2306 21.3513C40.3708 21.2925 40.4955 21.2098 40.6033 21.1032C40.71 20.9953 40.7939 20.8719 40.8514 20.7305C40.9101 20.5903 40.9389 20.4441 40.9389 20.2931C40.9389 20.1409 40.9101 19.9947 40.8514 19.8545C40.7939 19.7143 40.71 19.5896 40.6033 19.483C40.4955 19.3751 40.3708 19.2924 40.2306 19.2337C40.0904 19.1762 39.9442 19.1474 39.792 19.1474Z" fill="#C74784"/>
</svg>
