<svg width="20" height="20" viewBox="0 0 20 20" fill="none" xmlns="http://www.w3.org/2000/svg">
<path fill-rule="evenodd" clip-rule="evenodd" d="M15.3358 4.69416C14.6428 3.99656 13.8182 3.44342 12.9099 3.06678C12.0015 2.69014 11.0275 2.49749 10.0442 2.49999C5.92083 2.49999 2.56417 5.85583 2.5625 9.98083C2.5625 11.2992 2.90667 12.5858 3.56083 13.7208L2.5 17.5967L6.46583 16.5558C7.56283 17.153 8.79183 17.4661 10.0408 17.4667H10.0442C14.1667 17.4667 17.5233 14.1108 17.525 9.98583C17.5278 9.0029 17.3358 8.02915 16.9601 7.12088C16.5843 6.2126 16.0323 5.3878 15.3358 4.69416ZM10.0442 16.2042H10.0417C8.92793 16.2043 7.83469 15.9046 6.87667 15.3367L6.65 15.2017L4.29667 15.8192L4.92417 13.525L4.77667 13.29C4.15399 12.2987 3.82436 11.1515 3.82583 9.98083C3.8275 6.55249 6.61667 3.76333 10.0467 3.76333C10.8635 3.76151 11.6727 3.92173 12.4272 4.2347C13.1818 4.54768 13.8667 5.0072 14.4425 5.58666C15.0214 6.16336 15.4802 6.84907 15.7924 7.60416C16.1047 8.35924 16.2641 9.16873 16.2617 9.98583C16.26 13.4142 13.4708 16.2042 10.0442 16.2042ZM13.455 11.5467C13.2675 11.4525 12.3492 11.0008 12.1775 10.9383C12.0067 10.8758 11.8825 10.845 11.7575 11.0317C11.6325 11.2183 11.2742 11.6392 11.165 11.7642C11.0558 11.8892 10.9467 11.9042 10.76 11.8108C10.5733 11.7175 9.97083 11.52 9.25667 10.8833C8.70083 10.3875 8.32583 9.77583 8.21667 9.58833C8.1075 9.40083 8.205 9.29999 8.29917 9.20666C8.38333 9.12333 8.48583 8.98833 8.57917 8.87916C8.6725 8.76999 8.70333 8.69249 8.76583 8.56749C8.82833 8.44249 8.7975 8.33333 8.75 8.23999C8.70333 8.14583 8.32917 7.22583 8.17333 6.85166C8.0225 6.48916 7.86833 6.53749 7.75333 6.53249C7.63423 6.52762 7.51504 6.5254 7.39583 6.52583C7.30105 6.52824 7.20778 6.55021 7.12188 6.59037C7.03599 6.63052 6.95931 6.68798 6.89667 6.75916C6.725 6.94666 6.2425 7.39833 6.2425 8.31833C6.2425 9.23833 6.9125 10.1275 7.00583 10.2525C7.09917 10.3775 8.32417 12.265 10.1992 13.075C10.6458 13.2675 10.9942 13.3825 11.265 13.4692C11.7125 13.6117 12.12 13.5908 12.4425 13.5433C12.8017 13.49 13.5483 13.0917 13.7042 12.655C13.86 12.2183 13.86 11.8442 13.8133 11.7658C13.7667 11.6875 13.6408 11.64 13.455 11.5467Z" fill="black"/>
</svg>
